<svg width="399" height="30" viewBox="0 0 399 30" fill="none" xmlns="http://www.w3.org/2000/svg">
<path d="M0.967 24V2.048H12.615C13.831 2.048 14.8977 2.272 15.815 2.72C16.7323 3.14667 17.447 3.76533 17.959 4.576C18.4923 5.38667 18.759 6.336 18.759 7.424C18.759 8.256 18.599 9.01333 18.279 9.696C17.9803 10.3787 17.5537 10.9547 16.999 11.424C16.4657 11.8933 15.8577 12.2453 15.175 12.48V12.608C15.9643 12.7787 16.6683 13.0987 17.287 13.568C17.927 14.016 18.4283 14.6133 18.791 15.36C19.175 16.0853 19.367 16.96 19.367 17.984C19.367 19.3707 19.0577 20.512 18.439 21.408C17.8417 22.304 17.0417 22.9653 16.039 23.392C15.0363 23.7973 13.895 24 12.615 24H0.967ZM4.551 20.928H12.327C13.3083 20.928 14.1083 20.672 14.727 20.16C15.367 19.6267 15.687 18.7733 15.687 17.6C15.687 16.896 15.5483 16.2987 15.271 15.808C15.015 15.296 14.6203 14.912 14.087 14.656C13.5537 14.3787 12.8817 14.24 12.071 14.24H4.551V20.928ZM4.551 11.232H11.783C12.4657 11.232 13.0523 11.104 13.543 10.848C14.0337 10.592 14.407 10.2293 14.663 9.76C14.9403 9.29067 15.079 8.768 15.079 8.192C15.079 7.14667 14.791 6.37867 14.215 5.888C13.6603 5.376 12.9243 5.12 12.007 5.12H4.551V11.232ZM30.1558 24.384C28.4064 24.384 26.9238 24.0747 25.7078 23.456C24.5131 22.816 23.6064 21.8453 22.9878 20.544C22.3904 19.2427 22.0918 17.5893 22.0918 15.584C22.0918 13.5573 22.3904 11.904 22.9878 10.624C23.6064 9.32267 24.5131 8.36267 25.7078 7.744C26.9238 7.104 28.4064 6.784 30.1558 6.784C31.9478 6.784 33.4411 7.104 34.6358 7.744C35.8304 8.36267 36.7264 9.32267 37.3238 10.624C37.9424 11.904 38.2518 13.5573 38.2518 15.584C38.2518 17.5893 37.9424 19.2427 37.3238 20.544C36.7264 21.8453 35.8304 22.816 34.6358 23.456C33.4411 24.0747 31.9478 24.384 30.1558 24.384ZM30.1558 21.632C31.2224 21.632 32.0971 21.4293 32.7798 21.024C33.4624 20.5973 33.9638 19.9573 34.2838 19.104C34.6251 18.2507 34.7958 17.1733 34.7958 15.872V15.296C34.7958 13.9947 34.6251 12.9173 34.2838 12.064C33.9638 11.2107 33.4624 10.5813 32.7798 10.176C32.0971 9.74933 31.2224 9.536 30.1558 9.536C29.1104 9.536 28.2464 9.74933 27.5638 10.176C26.8811 10.5813 26.3691 11.2107 26.0278 12.064C25.7078 12.9173 25.5477 13.9947 25.5477 15.296V15.872C25.5477 17.1733 25.7078 18.2507 26.0278 19.104C26.3691 19.9573 26.8811 20.5973 27.5638 21.024C28.2464 21.4293 29.1104 21.632 30.1558 21.632ZM47.436 24.384C46.0707 24.384 44.8867 24.0747 43.884 23.456C42.8813 22.8373 42.1027 21.8773 41.548 20.576C41.0147 19.2747 40.748 17.5893 40.748 15.52C40.748 13.4933 41.0253 11.84 41.58 10.56C42.1347 9.28 42.9027 8.33067 43.884 7.712C44.8653 7.09333 45.996 6.784 47.276 6.784C48.0227 6.784 48.716 6.86933 49.356 7.04C49.996 7.21067 50.5613 7.47733 51.052 7.84C51.564 8.20267 51.9907 8.66133 52.332 9.216H52.556V0.863998H55.884V24H53.164L52.844 21.696H52.62C52.0653 22.592 51.3293 23.264 50.412 23.712C49.516 24.16 48.524 24.384 47.436 24.384ZM48.364 21.504C49.3453 21.504 50.1347 21.2907 50.732 20.864C51.3507 20.416 51.8093 19.776 52.108 18.944C52.4067 18.0907 52.556 17.056 52.556 15.84V15.392C52.556 14.368 52.46 13.4933 52.268 12.768C52.076 12.0427 51.7987 11.456 51.436 11.008C51.0733 10.5387 50.636 10.1973 50.124 9.984C49.612 9.77067 49.036 9.664 48.396 9.664C47.4147 9.664 46.6147 9.86667 45.996 10.272C45.3773 10.656 44.9187 11.264 44.62 12.096C44.3427 12.928 44.204 14.0053 44.204 15.328V15.904C44.204 17.2267 44.3533 18.304 44.652 19.136C44.9507 19.9467 45.3987 20.544 45.996 20.928C46.6147 21.312 47.404 21.504 48.364 21.504ZM61.9993 29.824C61.3593 29.824 60.8259 29.7707 60.3993 29.664C59.9726 29.5787 59.7059 29.5253 59.5993 29.504V27.104H61.1993C61.6686 27.104 62.1379 26.9973 62.6073 26.784C63.0979 26.5707 63.5353 26.2293 63.9193 25.76C64.3033 25.2907 64.6233 24.704 64.8793 24L58.3193 7.168H61.8073L65.0713 15.552C65.2206 15.936 65.3806 16.416 65.5513 16.992C65.7433 17.568 65.9246 18.1547 66.0953 18.752C66.2873 19.3493 66.4473 19.8827 66.5753 20.352H66.7353C66.8419 20.032 66.9486 19.6693 67.0553 19.264C67.1833 18.8373 67.3113 18.4 67.4392 17.952C67.5673 17.504 67.6953 17.0773 67.8233 16.672C67.9513 16.2453 68.0579 15.8827 68.1433 15.584L70.8633 7.168H74.2553L68.5593 23.36C68.2393 24.256 67.8873 25.0987 67.5033 25.888C67.1193 26.6773 66.6713 27.36 66.1593 27.936C65.6686 28.5333 65.0819 28.992 64.3993 29.312C63.7166 29.6533 62.9166 29.824 61.9993 29.824ZM89.0618 24V5.12H81.7978V2.048H99.9738V5.12H92.6458V24H89.0618ZM107.245 24.384C105.517 24.384 104.066 24.0747 102.893 23.456C101.741 22.816 100.866 21.8453 100.269 20.544C99.6717 19.2427 99.373 17.5893 99.373 15.584C99.373 13.5573 99.6717 11.904 100.269 10.624C100.866 9.32267 101.752 8.36267 102.925 7.744C104.098 7.104 105.56 6.784 107.309 6.784C108.909 6.784 110.242 7.09333 111.309 7.712C112.397 8.30933 113.218 9.22667 113.773 10.464C114.328 11.7013 114.605 13.2587 114.605 15.136V16.416H102.797C102.84 17.6107 103.021 18.6133 103.341 19.424C103.661 20.2133 104.141 20.8 104.781 21.184C105.442 21.5467 106.274 21.728 107.277 21.728C107.896 21.728 108.45 21.6533 108.941 21.504C109.432 21.3333 109.848 21.0987 110.189 20.8C110.53 20.48 110.797 20.1067 110.989 19.68C111.181 19.232 111.277 18.7307 111.277 18.176H114.541C114.541 19.1787 114.37 20.064 114.029 20.832C113.688 21.6 113.186 22.2507 112.525 22.784C111.885 23.296 111.117 23.6907 110.221 23.968C109.325 24.2453 108.333 24.384 107.245 24.384ZM102.861 13.984H111.117C111.117 13.152 111.021 12.4587 110.829 11.904C110.658 11.328 110.402 10.8587 110.061 10.496C109.72 10.1333 109.314 9.87733 108.845 9.728C108.376 9.55733 107.842 9.472 107.245 9.472C106.349 9.472 105.581 9.632 104.941 9.952C104.322 10.272 103.842 10.7733 103.501 11.456C103.16 12.1173 102.946 12.96 102.861 13.984ZM116.103 24L122.119 15.36L116.455 7.168H120.487L124.199 12.8H124.391L128.135 7.168H131.943L126.247 15.264L132.263 24H128.263L124.167 17.824H124.007L119.911 24H116.103ZM138.992 24.384C138.032 24.384 137.275 24.2027 136.72 23.84C136.187 23.456 135.803 22.976 135.568 22.4C135.355 21.8027 135.248 21.1733 135.248 20.512V9.92H133.136V7.168H135.312L135.92 2.464H138.576V7.168H141.616V9.92H138.576V20.128C138.576 20.6187 138.683 20.992 138.896 21.248C139.11 21.504 139.462 21.632 139.952 21.632H141.616V23.872C141.403 23.9573 141.136 24.032 140.816 24.096C140.518 24.1813 140.208 24.2453 139.888 24.288C139.568 24.352 139.27 24.384 138.992 24.384ZM150.249 16.96V13.76H158.345V16.96H150.249ZM166.38 24L174.988 2.048H179.564L188.204 24H184.364L182.412 18.912H172.012L170.06 24H166.38ZM173.164 15.872H181.228L178.764 9.44C178.7 9.248 178.604 8.98133 178.476 8.64C178.348 8.29867 178.209 7.92533 178.06 7.52C177.932 7.11467 177.793 6.70933 177.644 6.304C177.516 5.87733 177.398 5.49333 177.292 5.152H177.1C176.972 5.55733 176.812 6.03733 176.62 6.592C176.428 7.14667 176.236 7.68 176.044 8.192C175.873 8.704 175.724 9.12 175.595 9.44L173.164 15.872ZM190.582 24V7.168H193.334L193.622 9.888H193.814C194.006 9.35467 194.251 8.85333 194.55 8.384C194.87 7.91467 195.275 7.53067 195.766 7.232C196.278 6.93333 196.896 6.784 197.622 6.784C197.963 6.784 198.262 6.816 198.518 6.88C198.795 6.944 199.008 6.99733 199.158 7.04V10.176H198.038C197.355 10.176 196.747 10.2827 196.214 10.496C195.702 10.7093 195.264 11.0293 194.902 11.456C194.56 11.8613 194.304 12.3627 194.134 12.96C193.984 13.5573 193.91 14.2293 193.91 14.976V24H190.582ZM208.02 24.384C206.334 24.384 204.926 24.0747 203.796 23.456C202.665 22.816 201.812 21.8453 201.236 20.544C200.681 19.2427 200.404 17.5893 200.404 15.584C200.404 13.5787 200.692 11.936 201.268 10.656C201.844 9.35467 202.697 8.384 203.828 7.744C204.98 7.104 206.388 6.784 208.052 6.784C209.204 6.784 210.206 6.93333 211.06 7.232C211.913 7.50933 212.638 7.936 213.236 8.512C213.833 9.06667 214.27 9.76 214.548 10.592C214.846 11.424 214.996 12.3733 214.996 13.44H211.636C211.636 12.544 211.508 11.808 211.252 11.232C210.996 10.656 210.601 10.2293 210.068 9.952C209.534 9.65333 208.841 9.504 207.988 9.504C207.092 9.504 206.334 9.71733 205.716 10.144C205.097 10.5493 204.628 11.1787 204.308 12.032C203.988 12.864 203.828 13.9627 203.828 15.328V15.872C203.828 17.1733 203.977 18.2613 204.276 19.136C204.596 19.9893 205.065 20.6293 205.684 21.056C206.324 21.4613 207.134 21.664 208.116 21.664C208.969 21.664 209.652 21.5147 210.164 21.216C210.697 20.896 211.092 20.448 211.348 19.872C211.625 19.2747 211.764 18.56 211.764 17.728H214.996C214.996 18.7307 214.846 19.6373 214.548 20.448C214.27 21.2587 213.833 21.9627 213.236 22.56C212.66 23.136 211.934 23.584 211.06 23.904C210.185 24.224 209.172 24.384 208.02 24.384ZM218.363 24V0.863998H221.691V9.184H221.915C222.32 8.672 222.779 8.24533 223.291 7.904C223.803 7.54133 224.379 7.264 225.019 7.072C225.659 6.88 226.363 6.784 227.131 6.784C228.197 6.784 229.136 6.976 229.947 7.36C230.757 7.72267 231.387 8.32 231.835 9.152C232.304 9.984 232.539 11.104 232.539 12.512V24H229.211V13.024C229.211 12.384 229.125 11.8507 228.955 11.424C228.805 10.9973 228.581 10.656 228.283 10.4C227.984 10.144 227.632 9.96267 227.227 9.856C226.821 9.74933 226.373 9.696 225.883 9.696C225.115 9.696 224.411 9.87733 223.771 10.24C223.152 10.6027 222.651 11.1147 222.267 11.776C221.883 12.4373 221.691 13.2267 221.691 14.144V24H218.363ZM236.707 4.256V0.863998H240.035V4.256H236.707ZM236.707 24V7.168H240.035V24H236.707ZM248.716 24L242.476 7.168H245.964L248.876 15.2C249.004 15.584 249.164 16.0853 249.356 16.704C249.548 17.3013 249.74 17.92 249.932 18.56C250.124 19.2 250.294 19.776 250.444 20.288H250.604C250.732 19.7973 250.881 19.2427 251.052 18.624C251.244 17.984 251.436 17.3547 251.628 16.736C251.82 16.1173 251.99 15.6053 252.14 15.2L255.02 7.168H258.412L252.14 24H248.716ZM267.937 24.384C266.188 24.384 264.705 24.0747 263.489 23.456C262.294 22.816 261.388 21.8453 260.769 20.544C260.172 19.2427 259.873 17.5893 259.873 15.584C259.873 13.5573 260.172 11.904 260.769 10.624C261.388 9.32267 262.294 8.36267 263.489 7.744C264.705 7.104 266.188 6.784 267.937 6.784C269.729 6.784 271.222 7.104 272.417 7.744C273.612 8.36267 274.508 9.32267 275.105 10.624C275.724 11.904 276.033 13.5573 276.033 15.584C276.033 17.5893 275.724 19.2427 275.105 20.544C274.508 21.8453 273.612 22.816 272.417 23.456C271.222 24.0747 269.729 24.384 267.937 24.384ZM267.937 21.632C269.004 21.632 269.878 21.4293 270.561 21.024C271.244 20.5973 271.745 19.9573 272.065 19.104C272.406 18.2507 272.577 17.1733 272.577 15.872V15.296C272.577 13.9947 272.406 12.9173 272.065 12.064C271.745 11.2107 271.244 10.5813 270.561 10.176C269.878 9.74933 269.004 9.536 267.937 9.536C266.892 9.536 266.028 9.74933 265.345 10.176C264.662 10.5813 264.15 11.2107 263.809 12.064C263.489 12.9173 263.329 13.9947 263.329 15.296V15.872C263.329 17.1733 263.489 18.2507 263.809 19.104C264.15 19.9573 264.662 20.5973 265.345 21.024C266.028 21.4293 266.892 21.632 267.937 21.632ZM286.436 24V2.048H292.036L296.292 15.36C296.42 15.744 296.548 16.1813 296.676 16.672C296.804 17.1627 296.921 17.632 297.028 18.08C297.156 18.528 297.252 18.9227 297.316 19.264H297.572C297.614 18.944 297.689 18.56 297.796 18.112C297.902 17.664 298.009 17.1947 298.116 16.704C298.244 16.2133 298.372 15.7547 298.5 15.328L302.788 2.048H308.292V24H304.74V11.968C304.74 11.1573 304.75 10.3147 304.772 9.44C304.793 8.56533 304.814 7.78667 304.836 7.104C304.857 6.42133 304.868 5.984 304.868 5.792H304.612C304.569 6.02667 304.462 6.432 304.292 7.008C304.142 7.56267 303.982 8.16 303.812 8.8C303.641 9.44 303.481 9.99467 303.332 10.464L298.884 24H295.716L291.268 10.496C291.14 10.0907 291.001 9.61067 290.852 9.056C290.702 8.50133 290.553 7.936 290.404 7.36C290.254 6.784 290.126 6.26133 290.02 5.792H289.764C289.785 6.304 289.796 6.93333 289.796 7.68C289.817 8.42667 289.838 9.184 289.86 9.952C289.881 10.6987 289.892 11.3707 289.892 11.968V24H286.436ZM320.026 24.384C318.298 24.384 316.848 24.0747 315.674 23.456C314.522 22.816 313.648 21.8453 313.05 20.544C312.453 19.2427 312.154 17.5893 312.154 15.584C312.154 13.5573 312.453 11.904 313.05 10.624C313.648 9.32267 314.533 8.36267 315.706 7.744C316.88 7.104 318.341 6.784 320.09 6.784C321.69 6.784 323.024 7.09333 324.09 7.712C325.178 8.30933 326 9.22667 326.554 10.464C327.109 11.7013 327.386 13.2587 327.386 15.136V16.416H315.578C315.621 17.6107 315.802 18.6133 316.122 19.424C316.442 20.2133 316.922 20.8 317.562 21.184C318.224 21.5467 319.056 21.728 320.058 21.728C320.677 21.728 321.232 21.6533 321.722 21.504C322.213 21.3333 322.629 21.0987 322.97 20.8C323.312 20.48 323.578 20.1067 323.77 19.68C323.962 19.232 324.058 18.7307 324.058 18.176H327.322C327.322 19.1787 327.152 20.064 326.81 20.832C326.469 21.6 325.968 22.2507 325.306 22.784C324.666 23.296 323.898 23.6907 323.002 23.968C322.106 24.2453 321.114 24.384 320.026 24.384ZM315.642 13.984H323.898C323.898 13.152 323.802 12.4587 323.61 11.904C323.44 11.328 323.184 10.8587 322.842 10.496C322.501 10.1333 322.096 9.87733 321.626 9.728C321.157 9.55733 320.624 9.472 320.026 9.472C319.13 9.472 318.362 9.632 317.722 9.952C317.104 10.272 316.624 10.7733 316.282 11.456C315.941 12.1173 315.728 12.96 315.642 13.984ZM336.561 24.384C335.196 24.384 334.012 24.0747 333.009 23.456C332.006 22.8373 331.228 21.8773 330.673 20.576C330.14 19.2747 329.873 17.5893 329.873 15.52C329.873 13.4933 330.15 11.84 330.705 10.56C331.26 9.28 332.028 8.33067 333.009 7.712C333.99 7.09333 335.121 6.784 336.401 6.784C337.148 6.784 337.841 6.86933 338.481 7.04C339.121 7.21067 339.686 7.47733 340.177 7.84C340.689 8.20267 341.116 8.66133 341.457 9.216H341.681V0.863998H345.009V24H342.289L341.969 21.696H341.745C341.19 22.592 340.454 23.264 339.537 23.712C338.641 24.16 337.649 24.384 336.561 24.384ZM337.489 21.504C338.47 21.504 339.26 21.2907 339.857 20.864C340.476 20.416 340.934 19.776 341.233 18.944C341.532 18.0907 341.681 17.056 341.681 15.84V15.392C341.681 14.368 341.585 13.4933 341.393 12.768C341.201 12.0427 340.924 11.456 340.561 11.008C340.198 10.5387 339.761 10.1973 339.249 9.984C338.737 9.77067 338.161 9.664 337.521 9.664C336.54 9.664 335.74 9.86667 335.121 10.272C334.502 10.656 334.044 11.264 333.745 12.096C333.468 12.928 333.329 14.0053 333.329 15.328V15.904C333.329 17.2267 333.478 18.304 333.777 19.136C334.076 19.9467 334.524 20.544 335.121 20.928C335.74 21.312 336.529 21.504 337.489 21.504ZM349.3 4.256V0.863998H352.628V4.256H349.3ZM349.3 24V7.168H352.628V24H349.3ZM362.205 24.384C360.584 24.384 359.272 23.9573 358.269 23.104C357.267 22.2293 356.765 20.7467 356.765 18.656V7.168H360.093V18.144C360.093 18.784 360.168 19.3173 360.317 19.744C360.488 20.1707 360.723 20.512 361.021 20.768C361.32 21.024 361.672 21.2053 362.077 21.312C362.483 21.4187 362.931 21.472 363.421 21.472C364.189 21.472 364.883 21.2907 365.501 20.928C366.141 20.544 366.653 20.0213 367.037 19.36C367.421 18.6773 367.613 17.8987 367.613 17.024V7.168H370.941V24H368.221L367.933 21.6H367.709C367.304 22.2187 366.824 22.7307 366.269 23.136C365.715 23.5413 365.096 23.8507 364.413 24.064C363.752 24.2773 363.016 24.384 362.205 24.384ZM375.238 24V7.168H377.99L378.278 9.568H378.502C378.886 8.94933 379.323 8.43733 379.814 8.032C380.326 7.62667 380.891 7.31733 381.51 7.104C382.15 6.89067 382.832 6.784 383.558 6.784C384.603 6.784 385.51 6.99733 386.278 7.424C387.067 7.85067 387.664 8.56533 388.07 9.568H388.294C388.678 8.97067 389.126 8.46933 389.638 8.064C390.15 7.63733 390.726 7.31733 391.366 7.104C392.027 6.89067 392.731 6.784 393.478 6.784C394.48 6.784 395.366 6.96533 396.134 7.328C396.902 7.66933 397.51 8.256 397.958 9.088C398.406 9.89867 398.63 10.9867 398.63 12.352V24H395.302V12.96C395.302 12.32 395.227 11.7973 395.078 11.392C394.928 10.9653 394.726 10.6347 394.47 10.4C394.214 10.144 393.904 9.96267 393.542 9.856C393.179 9.74933 392.784 9.696 392.358 9.696C391.654 9.696 391.024 9.888 390.47 10.272C389.915 10.6347 389.467 11.1467 389.126 11.808C388.784 12.4693 388.614 13.248 388.614 14.144V24H385.286V12.96C385.286 12.32 385.211 11.7973 385.062 11.392C384.912 10.9653 384.71 10.6347 384.454 10.4C384.198 10.144 383.888 9.96267 383.526 9.856C383.163 9.74933 382.779 9.696 382.374 9.696C381.67 9.696 381.03 9.888 380.454 10.272C379.878 10.6347 379.419 11.1467 379.078 11.808C378.736 12.4693 378.566 13.248 378.566 14.144V24H375.238Z" fill="#828181"/>
</svg>
