<svg width="1043" height="341" viewBox="0 0 1043 341" fill="none" xmlns="http://www.w3.org/2000/svg">
<rect x="556.5" y="0.5" width="486" height="340" fill="white" stroke="#DEDEDE"/>
<rect x="729" y="123" width="60" height="7" fill="#BCBBBB"/>
<rect x="729" y="198" width="60" height="7" fill="#BCBBBB"/>
<rect x="729" y="265" width="60" height="17" fill="#BCBBBB"/>
<rect x="823" y="61" width="191" height="18" fill="#BCBBBB"/>
<rect x="913" y="237" width="61" height="18" fill="#BCBBBB"/>
<rect x="0.5" y="0.5" width="485" height="340" fill="white" stroke="#DEDEDE"/>
<rect x="20" y="12" width="143" height="30" fill="#BCBBBB"/>
<rect x="577" y="15" width="142" height="30" fill="#BCBBBB"/>
<rect x="577" y="74" width="61" height="58" fill="#BCBBBB"/>
<rect x="577" y="147" width="61" height="58" fill="#BCBBBB"/>
<rect x="652" y="74" width="137" height="43" fill="#BCBBBB"/>
<rect x="809" y="59" width="2" height="223" fill="#BCBBBB"/>
<rect x="652" y="147" width="137" height="43" fill="#BCBBBB"/>
<rect x="837" y="185" width="137" height="42" fill="#BCBBBB"/>
<rect x="20" y="289" width="188" height="8" fill="#BCBBBB"/>
<rect x="20" y="89" width="188" height="183" fill="#BCBBBB"/>
<rect x="352" y="250" width="107" height="25" fill="#BCBBBB"/>
<rect x="245" y="89" width="213" height="140" fill="#BCBBBB"/>
<rect x="577" y="61" width="212" height="4" fill="#BCBBBB"/>
<rect x="577" y="61" width="212" height="4" fill="#BCBBBB"/>
<rect x="577" y="250" width="212" height="5" fill="#BCBBBB"/>
<rect x="20" y="63" width="290" height="11" fill="#BCBBBB"/>
<rect x="167" y="24" width="291" height="11" fill="#BCBBBB"/>
<rect x="725" y="24" width="289" height="11" fill="#BCBBBB"/>
<line x1="20.543" y1="269.818" x2="208.46" y2="94.7717" stroke="black"/>
<line x1="20.372" y1="88.772" x2="209.147" y2="269.824" stroke="black"/>
<line x1="577.191" y1="131.319" x2="637.077" y2="74.5355" stroke="black"/>
<line x1="577.529" y1="205.618" x2="637.414" y2="148.834" stroke="black"/>
<line x1="577.361" y1="74.1837" x2="637.426" y2="131.674" stroke="black"/>
<line x1="577.361" y1="147.977" x2="637.426" y2="205.467" stroke="black"/>
</svg>
