<svg width="279" height="44" viewBox="0 0 279 44" fill="none" xmlns="http://www.w3.org/2000/svg">
<path d="M68.32 28.272C67.936 28.528 67.4133 28.816 66.752 29.136C66.0907 29.456 65.312 29.7227 64.416 29.936C63.5413 30.1493 62.5813 30.256 61.536 30.256C59.744 30.2347 58.1227 29.9147 56.672 29.296C55.2427 28.6773 54.0267 27.8347 53.024 26.768C52.0213 25.7013 51.2427 24.4747 50.688 23.088C50.1547 21.68 49.888 20.1867 49.888 18.608C49.888 16.88 50.1653 15.2907 50.72 13.84C51.296 12.368 52.096 11.0987 53.12 10.032C54.144 8.944 55.3493 8.10133 56.736 7.504C58.144 6.90667 59.68 6.608 61.344 6.608C62.7307 6.608 63.9893 6.8 65.12 7.184C66.2507 7.54667 67.2213 7.984 68.032 8.496L66.784 11.376C66.144 10.9493 65.3653 10.544 64.448 10.16C63.552 9.776 62.5493 9.584 61.44 9.584C60.3093 9.584 59.2427 9.808 58.24 10.256C57.2373 10.704 56.352 11.3333 55.584 12.144C54.816 12.9547 54.208 13.904 53.76 14.992C53.3333 16.0587 53.12 17.2107 53.12 18.448C53.12 19.7067 53.312 20.88 53.696 21.968C54.1013 23.0347 54.6667 23.9627 55.392 24.752C56.1387 25.5413 57.0347 26.16 58.08 26.608C59.1253 27.056 60.2987 27.28 61.6 27.28C62.7733 27.28 63.8187 27.0987 64.736 26.736C65.6533 26.3733 66.4107 25.968 67.008 25.52L68.32 28.272ZM72.8108 30V5.232H75.7228V19.824L75.6588 19.28C76.1068 18.4053 76.7894 17.68 77.7068 17.104C78.6454 16.528 79.7441 16.24 81.0028 16.24C82.2614 16.24 83.2854 16.6133 84.0748 17.36C84.8854 18.0853 85.3014 19.0347 85.3228 20.208V30H82.3148V21.264C82.2934 20.5387 82.0801 19.952 81.6748 19.504C81.2908 19.0347 80.6828 18.8 79.8508 18.8C79.0828 18.8 78.3894 19.024 77.7708 19.472C77.1521 19.8987 76.6614 20.4853 76.2988 21.232C75.9574 21.9787 75.7868 22.832 75.7868 23.792V30H72.8108ZM96.0023 30.32C94.7649 30.32 93.6343 30.0533 92.6102 29.52C91.6076 28.9867 90.8076 28.208 90.2103 27.184C89.6343 26.1387 89.3463 24.8693 89.3463 23.376C89.3463 21.904 89.6556 20.6347 90.2743 19.568C90.8929 18.48 91.7143 17.648 92.7383 17.072C93.7836 16.496 94.9249 16.208 96.1623 16.208C97.3996 16.208 98.4449 16.496 99.2983 17.072C100.152 17.6267 100.802 18.288 101.25 19.056L101.058 19.568L101.346 16.752H104.098V30H101.122V26.544L101.442 27.312C101.357 27.5253 101.165 27.8027 100.866 28.144C100.589 28.464 100.205 28.7947 99.7143 29.136C99.2449 29.4773 98.7009 29.7653 98.0823 30C97.4636 30.2133 96.7703 30.32 96.0023 30.32ZM96.8023 27.856C97.5489 27.856 98.2209 27.7173 98.8183 27.44C99.4156 27.1627 99.9063 26.7787 100.29 26.288C100.696 25.776 100.973 25.168 101.122 24.464V21.872C100.952 21.232 100.653 20.6773 100.226 20.208C99.7996 19.7173 99.2876 19.344 98.6903 19.088C98.0929 18.8107 97.4316 18.672 96.7063 18.672C95.9169 18.672 95.1916 18.864 94.5303 19.248C93.8689 19.632 93.3356 20.1653 92.9303 20.848C92.5463 21.5307 92.3543 22.3307 92.3543 23.248C92.3543 24.1013 92.5569 24.88 92.9623 25.584C93.3676 26.288 93.9116 26.8427 94.5943 27.248C95.2769 27.6533 96.0129 27.856 96.8023 27.856ZM111.904 16.752L112.192 20.592L112.032 20.08C112.374 19.2693 112.864 18.5867 113.504 18.032C114.166 17.456 114.848 17.0187 115.552 16.72C116.278 16.4 116.907 16.24 117.44 16.24L117.28 19.184C116.278 19.12 115.392 19.312 114.624 19.76C113.878 20.208 113.28 20.8053 112.832 21.552C112.406 22.2987 112.192 23.0987 112.192 23.952V30H109.248V16.752H111.904ZM121.28 16.752H124.256V30H121.28V16.752ZM121.056 11.952C121.056 11.4827 121.237 11.088 121.6 10.768C121.984 10.448 122.4 10.288 122.848 10.288C123.296 10.288 123.69 10.448 124.032 10.768C124.394 11.088 124.576 11.4827 124.576 11.952C124.576 12.4427 124.394 12.848 124.032 13.168C123.69 13.4667 123.296 13.616 122.848 13.616C122.4 13.616 121.984 13.456 121.6 13.136C121.237 12.816 121.056 12.4213 121.056 11.952ZM130.685 10.928H133.661V16.816H137.309V19.152H133.661V30H130.685V19.152H128.253V16.816H130.685V10.928ZM142.025 36.368L150.761 16.752H153.513L144.969 36.368H142.025ZM145.289 30.096L138.921 16.752H142.281L147.625 28.592L145.289 30.096ZM162.549 30.32C161.034 30.32 159.733 30.0213 158.645 29.424C157.557 28.8053 156.714 27.9733 156.117 26.928C155.541 25.8613 155.253 24.6453 155.253 23.28C155.253 21.9787 155.583 20.7947 156.245 19.728C156.906 18.6613 157.791 17.808 158.901 17.168C160.01 16.528 161.247 16.208 162.613 16.208C164.362 16.208 165.813 16.72 166.965 17.744C168.117 18.768 168.895 20.176 169.301 21.968L158.389 25.808L157.685 24.048L166.645 20.784L166.005 21.2C165.749 20.496 165.322 19.888 164.725 19.376C164.127 18.8427 163.349 18.576 162.389 18.576C161.578 18.576 160.853 18.7787 160.213 19.184C159.573 19.568 159.071 20.1013 158.709 20.784C158.346 21.4667 158.165 22.2453 158.165 23.12C158.165 24.0373 158.357 24.848 158.741 25.552C159.125 26.2347 159.647 26.7787 160.309 27.184C160.991 27.568 161.759 27.76 162.613 27.76C163.189 27.76 163.743 27.6533 164.277 27.44C164.831 27.2267 165.343 26.9493 165.813 26.608L167.189 28.816C166.527 29.264 165.781 29.6267 164.949 29.904C164.138 30.1813 163.338 30.32 162.549 30.32ZM183.782 28.784C183.184 29.2533 182.47 29.6267 181.638 29.904C180.806 30.1813 179.974 30.32 179.142 30.32C177.691 30.32 176.422 30.032 175.334 29.456C174.246 28.88 173.392 28.08 172.774 27.056C172.176 26.0107 171.878 24.784 171.878 23.376C171.878 21.968 172.198 20.7413 172.838 19.696C173.499 18.6507 174.352 17.8507 175.398 17.296C176.464 16.72 177.606 16.432 178.822 16.432C179.888 16.432 180.838 16.5813 181.67 16.88C182.523 17.1787 183.248 17.584 183.846 18.096L182.374 20.016C181.99 19.7173 181.52 19.4507 180.966 19.216C180.411 18.9813 179.782 18.864 179.078 18.864C178.31 18.864 177.595 19.0667 176.934 19.472C176.294 19.856 175.782 20.3893 175.398 21.072C175.035 21.7547 174.854 22.5227 174.854 23.376C174.854 24.1867 175.046 24.944 175.43 25.648C175.814 26.3307 176.347 26.8747 177.03 27.28C177.712 27.664 178.491 27.856 179.366 27.856C179.942 27.856 180.464 27.7707 180.934 27.6C181.424 27.4293 181.862 27.1947 182.246 26.896L183.782 28.784ZM193.127 30.32C191.89 30.32 190.759 30.0533 189.735 29.52C188.733 28.9867 187.933 28.208 187.335 27.184C186.759 26.1387 186.471 24.8693 186.471 23.376C186.471 21.904 186.781 20.6347 187.399 19.568C188.018 18.48 188.839 17.648 189.863 17.072C190.909 16.496 192.05 16.208 193.287 16.208C194.525 16.208 195.57 16.496 196.423 17.072C197.277 17.6267 197.927 18.288 198.375 19.056L198.183 19.568L198.471 16.752H201.223V30H198.247V26.544L198.567 27.312C198.482 27.5253 198.29 27.8027 197.991 28.144C197.714 28.464 197.33 28.7947 196.839 29.136C196.37 29.4773 195.826 29.7653 195.207 30C194.589 30.2133 193.895 30.32 193.127 30.32ZM193.927 27.856C194.674 27.856 195.346 27.7173 195.943 27.44C196.541 27.1627 197.031 26.7787 197.415 26.288C197.821 25.776 198.098 25.168 198.247 24.464V21.872C198.077 21.232 197.778 20.6773 197.351 20.208C196.925 19.7173 196.413 19.344 195.815 19.088C195.218 18.8107 194.557 18.672 193.831 18.672C193.042 18.672 192.317 18.864 191.655 19.248C190.994 19.632 190.461 20.1653 190.055 20.848C189.671 21.5307 189.479 22.3307 189.479 23.248C189.479 24.1013 189.682 24.88 190.087 25.584C190.493 26.288 191.037 26.8427 191.719 27.248C192.402 27.6533 193.138 27.856 193.927 27.856ZM209.029 16.752L209.317 20.592L209.157 20.08C209.499 19.2693 209.989 18.5867 210.629 18.032C211.291 17.456 211.973 17.0187 212.677 16.72C213.403 16.4 214.032 16.24 214.565 16.24L214.405 19.184C213.403 19.12 212.517 19.312 211.749 19.76C211.003 20.208 210.405 20.8053 209.957 21.552C209.531 22.2987 209.317 23.0987 209.317 23.952V30H206.373V16.752H209.029ZM223.218 30.32C222.002 30.32 220.893 30.032 219.89 29.456C218.909 28.8587 218.13 28.0267 217.554 26.96C216.978 25.872 216.69 24.624 216.69 23.216C216.69 21.744 216.989 20.4853 217.586 19.44C218.205 18.3947 219.037 17.5947 220.082 17.04C221.127 16.4853 222.301 16.208 223.602 16.208C224.647 16.208 225.639 16.432 226.578 16.88C227.538 17.328 228.285 17.9467 228.818 18.736L228.69 19.792V5.232H231.634V30H228.658V26.704L228.978 27.536C228.359 28.3467 227.559 29.0187 226.578 29.552C225.597 30.064 224.477 30.32 223.218 30.32ZM224.146 27.792C224.935 27.792 225.639 27.6533 226.258 27.376C226.877 27.0773 227.389 26.672 227.794 26.16C228.199 25.648 228.487 25.04 228.658 24.336V21.84C228.487 21.2 228.178 20.6453 227.73 20.176C227.303 19.6853 226.781 19.3013 226.162 19.024C225.565 18.7253 224.893 18.576 224.146 18.576C223.335 18.576 222.589 18.7787 221.906 19.184C221.245 19.568 220.711 20.1013 220.306 20.784C219.901 21.4667 219.698 22.256 219.698 23.152C219.698 24.0267 219.901 24.816 220.306 25.52C220.711 26.2027 221.255 26.7573 221.938 27.184C222.621 27.5893 223.357 27.792 224.146 27.792ZM240.523 30.256C239.584 30.256 238.667 30.096 237.771 29.776C236.896 29.4347 236.171 28.9333 235.595 28.272L236.843 26.544C237.397 27.0773 237.963 27.4827 238.539 27.76C239.136 28.016 239.723 28.144 240.299 28.144C240.725 28.144 241.12 28.0907 241.483 27.984C241.845 27.8773 242.133 27.7067 242.347 27.472C242.581 27.216 242.699 26.8747 242.699 26.448C242.699 25.9787 242.539 25.6053 242.219 25.328C241.92 25.0507 241.525 24.8267 241.035 24.656C240.565 24.4853 240.064 24.3253 239.531 24.176C238.443 23.8133 237.611 23.312 237.035 22.672C236.459 22.032 236.171 21.2533 236.171 20.336C236.171 19.632 236.341 18.9813 236.683 18.384C237.045 17.7653 237.568 17.264 238.251 16.88C238.955 16.496 239.819 16.304 240.843 16.304C241.76 16.304 242.581 16.4213 243.307 16.656C244.032 16.8693 244.715 17.232 245.355 17.744L244.171 19.6C243.787 19.1947 243.328 18.896 242.795 18.704C242.261 18.512 241.781 18.4053 241.355 18.384C240.992 18.3627 240.64 18.416 240.299 18.544C239.979 18.672 239.712 18.8533 239.499 19.088C239.285 19.3227 239.179 19.6 239.179 19.92C239.179 20.368 239.328 20.7307 239.627 21.008C239.925 21.2853 240.309 21.5093 240.779 21.68C241.269 21.8293 241.749 21.9893 242.219 22.16C242.88 22.352 243.467 22.608 243.979 22.928C244.491 23.248 244.896 23.6427 245.195 24.112C245.515 24.5813 245.675 25.168 245.675 25.872C245.675 26.6613 245.483 27.3973 245.099 28.08C244.736 28.7413 244.171 29.2747 243.403 29.68C242.656 30.064 241.696 30.256 240.523 30.256Z" fill="black"/>
<path d="M2 10C1.60444 10 1.21776 10.088 0.88886 10.2528C0.559962 10.4176 0.303617 10.6519 0.152242 10.926C0.000866566 11.2001 -0.0387401 11.5017 0.0384303 11.7926C0.115601 12.0836 0.306082 12.3509 0.585787 12.5607C0.865492 12.7704 1.22186 12.9133 1.60982 12.9712C1.99778 13.0291 2.39991 12.9994 2.76537 12.8858C3.13082 12.7723 3.44318 12.58 3.66294 12.3334C3.8827 12.0867 4 11.7967 4 11.5C4 11.1022 3.78929 10.7206 3.41421 10.4393C3.03914 10.158 2.53043 10 2 10Z" fill="#B31629"/>
<path d="M37 13C38.1046 13 39 12.3284 39 11.5C39 10.6716 38.1046 10 37 10C35.8954 10 35 10.6716 35 11.5C35 12.3284 35.8954 13 37 13Z" fill="#B31629"/>
<path d="M19.4435 3.25084C19.7547 3.25315 20.0595 3.1598 20.3194 2.9826C20.5792 2.80541 20.7823 2.55237 20.903 2.25557C21.0236 1.95877 21.0563 1.63159 20.997 1.31552C20.9377 0.999448 20.7889 0.708731 20.5697 0.480238C20.3504 0.251745 20.0705 0.0957711 19.7655 0.0320996C19.4604 -0.031572 19.144 -7.30026e-05 18.8562 0.122602C18.5685 0.245276 18.3225 0.453599 18.1493 0.721148C17.9762 0.988698 17.8838 1.30342 17.8838 1.6254C17.8838 2.05447 18.0477 2.46615 18.3399 2.77064C18.6321 3.07514 19.0288 3.24775 19.4435 3.25084ZM34.5999 14.6055C33.1877 14.9414 31.8128 15.4273 30.4971 16.0556C28.8919 16.8524 27.3759 17.8288 25.9762 18.9673C24.9845 17.7066 24.128 16.3382 23.4219 14.8862C22.295 12.3955 21.3431 9.82399 20.5737 7.19165C20.5012 6.94307 20.3507 6.72654 20.1461 6.57621C19.9414 6.42588 19.6942 6.3503 19.4435 6.36139C19.1927 6.3503 18.9456 6.42588 18.7409 6.57621C18.5363 6.72654 18.3858 6.94307 18.3133 7.19165C17.5457 9.82465 16.5938 12.3963 15.4651 14.8862C14.7623 16.3365 13.9056 17.7014 12.9108 18.9556C11.5045 17.8302 9.98943 16.8584 8.38984 16.0556C7.10614 15.4356 5.76582 14.9499 4.38883 14.6055C4.18439 14.5547 3.97031 14.5639 3.77064 14.6321C3.57098 14.7002 3.39365 14.8247 3.2586 14.9914C3.12116 15.1637 3.03429 15.3731 3.00825 15.5948C2.98221 15.8165 3.0181 16.0414 3.11167 16.2427C5.25572 21.2867 6.77474 26.591 7.63259 32.0293C7.67834 32.3039 7.81733 32.5525 8.02454 32.7304C8.23175 32.9084 8.49356 33.0039 8.76282 32.9999H30.2372C30.5064 33.0039 30.7682 32.9084 30.9755 32.7304C31.1827 32.5525 31.3217 32.3039 31.3674 32.0293C32.2253 26.591 33.7443 21.2867 35.8883 16.2427C35.9819 16.0414 36.0178 15.8165 35.9917 15.5948C35.9657 15.3731 35.8788 15.1637 35.7414 14.9914C35.6054 14.8226 35.4262 14.6969 35.2243 14.6286C35.0224 14.5604 34.806 14.5524 34.5999 14.6055ZM11.3736 29.1643C11.1251 29.1666 10.8814 29.0925 10.6736 28.9513C10.4658 28.8101 10.3033 28.6081 10.2066 28.3712C10.1099 28.1342 10.0834 27.8729 10.1305 27.6203C10.1777 27.3678 10.2962 27.1354 10.4712 26.9527C10.6462 26.77 10.8697 26.6452 11.1134 26.5941C11.3571 26.5431 11.6099 26.5681 11.8398 26.666C12.0697 26.7639 12.2663 26.9303 12.4047 27.144C12.543 27.3577 12.6169 27.6091 12.6169 27.8663C12.6169 28.2085 12.4863 28.5369 12.2535 28.78C12.0206 29.0231 11.7044 29.1612 11.3736 29.1643ZM19.4548 29.1643C19.1441 29.1337 18.8555 28.9843 18.6455 28.7454C18.4355 28.5064 18.3192 28.1951 18.3192 27.8721C18.3192 27.5492 18.4355 27.2378 18.6455 26.9989C18.8555 26.76 19.1441 26.6106 19.4548 26.58C19.7655 26.6106 20.0541 26.76 20.2641 26.9989C20.474 27.2378 20.5904 27.5492 20.5904 27.8721C20.5904 28.1951 20.474 28.5064 20.2641 28.7454C20.0541 28.9843 19.7655 29.1337 19.4548 29.1643ZM27.5472 29.1643C27.2986 29.1666 27.055 29.0925 26.8472 28.9513C26.6394 28.8101 26.4768 28.6081 26.3802 28.3712C26.2835 28.1342 26.257 27.8729 26.3041 27.6203C26.3512 27.3678 26.4698 27.1354 26.6448 26.9527C26.8198 26.77 27.0433 26.6452 27.287 26.5941C27.5307 26.5431 27.7835 26.5681 28.0134 26.666C28.2433 26.7639 28.4399 26.9303 28.5782 27.144C28.7166 27.3577 28.7905 27.6091 28.7905 27.8663C28.7905 28.2085 28.6599 28.5369 28.427 28.78C28.1942 29.0231 27.878 29.1612 27.5472 29.1643Z" fill="#B31629"/>
</svg>
