<svg width="49" height="53" viewBox="0 0 49 53" fill="none" xmlns="http://www.w3.org/2000/svg">
<path d="M49 26.5006C49 24.9946 48.4043 23.5503 47.344 22.4854C46.2837 21.4204 44.8456 20.8222 43.3462 20.8222H26.3846V18.6928C28.0022 18.2708 29.4348 17.3218 30.4579 15.9945C31.481 14.6673 32.0369 13.0367 32.0385 11.3581C32.0385 4.73326 25.8098 0.495727 25.546 0.318276C25.2363 0.11075 24.8723 0 24.5 0C24.1277 0 23.7637 0.11075 23.454 0.318276C23.1902 0.495727 16.9615 4.73326 16.9615 11.3581C16.9631 13.0367 17.519 14.6673 18.5421 15.9945C19.5652 17.3218 20.9978 18.2708 22.6154 18.6928V20.8222H5.65385C4.15435 20.8222 2.71628 21.4204 1.65597 22.4854C0.595672 23.5503 0 24.9946 0 26.5006V32.0205C0.0019336 34.0854 0.662411 36.0954 1.88462 37.7558V47.3216C1.88462 48.8276 2.48029 50.2719 3.54059 51.3368C4.60089 52.4017 6.03897 53 7.53846 53H41.4615C42.961 53 44.3991 52.4017 45.4594 51.3368C46.5197 50.2719 47.1154 48.8276 47.1154 47.3216V37.7558C48.3376 36.0954 48.9981 34.0854 49 32.0205V26.5006ZM20.7308 11.3581C20.7308 8.14742 23.0865 5.57083 24.5 4.30975C25.9135 5.57083 28.2692 8.14742 28.2692 11.3581C28.2692 12.3621 27.8721 13.325 27.1652 14.035C26.4584 14.7449 25.4997 15.1437 24.5 15.1437C23.5003 15.1437 22.5416 14.7449 21.8348 14.035C21.1279 13.325 20.7308 12.3621 20.7308 11.3581ZM3.76923 26.5006C3.76923 25.9986 3.96779 25.5172 4.32122 25.1622C4.67466 24.8072 5.15402 24.6078 5.65385 24.6078H43.3462C43.846 24.6078 44.3253 24.8072 44.6788 25.1622C45.0322 25.5172 45.2308 25.9986 45.2308 26.5006V32.0205C45.2308 35.1555 42.7666 37.7723 39.7371 37.8551C38.9815 37.8766 38.2292 37.7457 37.5248 37.4702C36.8204 37.1946 36.1782 36.7799 35.6361 36.2507C35.0941 35.7215 34.6632 35.0885 34.3689 34.3892C34.0747 33.6898 33.9231 32.9383 33.9231 32.1791C33.9231 31.6771 33.7245 31.1956 33.3711 30.8406C33.0177 30.4857 32.5383 30.2862 32.0385 30.2862C31.5386 30.2862 31.0593 30.4857 30.7058 30.8406C30.3524 31.1956 30.1538 31.6771 30.1538 32.1791C30.1538 33.6851 29.5582 35.1294 28.4979 36.1943C27.4376 37.2592 25.9995 37.8575 24.5 37.8575C23.0005 37.8575 21.5624 37.2592 20.5021 36.1943C19.4418 35.1294 18.8462 33.6851 18.8462 32.1791C18.8462 31.6771 18.6476 31.1956 18.2942 30.8406C17.9407 30.4857 17.4614 30.2862 16.9615 30.2862C16.4617 30.2862 15.9823 30.4857 15.6289 30.8406C15.2755 31.1956 15.0769 31.6771 15.0769 32.1791C15.0772 32.9385 14.9259 33.6903 14.6318 34.3899C14.3377 35.0896 13.9068 35.7228 13.3647 36.2523C12.8226 36.7817 12.1803 37.1966 11.4757 37.4723C10.7712 37.748 10.0187 37.879 9.26288 37.8575C6.23337 37.7723 3.76923 35.1555 3.76923 32.0205V26.5006ZM41.4615 49.2144H7.53846C7.03863 49.2144 6.55927 49.015 6.20584 48.66C5.8524 48.305 5.65385 47.8236 5.65385 47.3216V40.8292C6.75702 41.3313 7.9486 41.6079 9.15923 41.6431C10.4187 41.6825 11.6732 41.4657 12.8472 41.0058C14.0212 40.546 15.0905 39.8525 15.991 38.9672C16.3425 38.623 16.667 38.252 16.9615 37.8575C17.8393 39.0329 18.9774 39.9869 20.2859 40.644C21.5943 41.301 23.0371 41.6431 24.5 41.6431C25.9629 41.6431 27.4057 41.301 28.7141 40.644C30.0226 39.9869 31.1607 39.0329 32.0385 37.8575C32.3339 38.2504 32.6592 38.6199 33.0114 38.9624C34.7646 40.6871 37.1229 41.65 39.5769 41.6431H39.8455C41.0545 41.6073 42.2444 41.3307 43.3462 40.8292V47.3216C43.3462 47.8236 43.1476 48.305 42.7942 48.66C42.4407 49.015 41.9614 49.2144 41.4615 49.2144Z" fill="#BA5C67"/>
</svg>
