<svg width="48" height="48" viewBox="0 0 48 48" fill="none" xmlns="http://www.w3.org/2000/svg">
<path d="M37.722 40.552C38.2567 40.1086 38.769 39.64 39.259 39.146M35.819 24C35.8163 21.042 34.7035 18.1928 32.7008 16.0161C30.698 13.8394 27.9511 12.4936 25.0036 12.2452C22.0561 11.9968 19.1227 12.8638 16.7839 14.6746C14.445 16.4854 12.871 19.1082 12.3733 22.0239C11.8756 24.9397 12.4905 27.9361 14.0963 30.4202C15.7021 32.9043 18.1818 34.6952 21.0448 35.4386C23.9078 36.1819 26.9455 35.8236 29.557 34.4345C32.1684 33.0453 34.1633 30.7266 35.147 27.937C35.5934 26.6724 35.82 25.341 35.819 24Z" stroke="black" stroke-linecap="round" stroke-linejoin="round"/>
<path d="M45.5 24C45.5057 20.6661 44.7361 17.3766 43.2519 14.3913C41.7677 11.406 39.6096 8.80684 36.9481 6.79906C34.2866 4.79128 31.1947 3.42995 27.9166 2.82263C24.6385 2.21532 21.2641 2.37865 18.06 3.29974C14.8559 4.22083 11.9098 5.87442 9.45472 8.12987C6.99959 10.3853 5.10261 13.1808 3.91367 16.2955C2.72473 19.4101 2.27641 22.7586 2.60413 26.0763C2.93185 29.3941 4.02663 32.5901 5.80197 35.412L4.46797 43.532L12.588 42.198C15.5114 44.0399 18.8365 45.1484 22.2803 45.4291C25.7242 45.7097 29.1849 45.1543 32.368 43.81" stroke="black" stroke-linecap="round" stroke-linejoin="round"/>
<path d="M35.1451 27.936C33.7011 31.458 36.0521 33.353 38.0751 33.813C40.5421 34.373 45.5001 31.794 45.5001 24" stroke="black" stroke-linecap="round" stroke-linejoin="round"/>
</svg>
