<svg width="1017" height="687" viewBox="0 0 1017 687" fill="none" xmlns="http://www.w3.org/2000/svg">
<path d="M1.76136 168V153.455H10.483V155.017H3.52273V159.932H9.82955V161.494H3.52273V168H1.76136ZM16.4826 168.256C15.7913 168.256 15.1639 168.125 14.6005 167.865C14.0371 167.6 13.5896 167.219 13.2582 166.722C12.9267 166.22 12.761 165.614 12.761 164.903C12.761 164.278 12.8841 163.772 13.1303 163.384C13.3765 162.991 13.7056 162.683 14.1175 162.46C14.5295 162.238 14.984 162.072 15.4812 161.963C15.9831 161.849 16.4873 161.759 16.994 161.693C17.6568 161.608 18.1942 161.544 18.6062 161.501C19.0228 161.454 19.3259 161.376 19.5153 161.267C19.7094 161.158 19.8065 160.969 19.8065 160.699V160.642C19.8065 159.941 19.6147 159.397 19.2312 159.009C18.8524 158.62 18.2771 158.426 17.5053 158.426C16.7051 158.426 16.0778 158.601 15.6232 158.952C15.1687 159.302 14.8491 159.676 14.6644 160.074L13.0735 159.506C13.3576 158.843 13.7364 158.327 14.2099 157.957C14.6881 157.583 15.2089 157.323 15.7724 157.176C16.3406 157.025 16.8993 156.949 17.4485 156.949C17.7989 156.949 18.2013 156.991 18.6559 157.077C19.1152 157.157 19.5579 157.325 19.984 157.581C20.4149 157.837 20.7724 158.223 21.0565 158.739C21.3406 159.255 21.4826 159.946 21.4826 160.812V168H19.8065V166.523H19.7212C19.6076 166.759 19.4182 167.013 19.1531 167.283C18.8879 167.553 18.5352 167.782 18.0948 167.972C17.6545 168.161 17.1171 168.256 16.4826 168.256ZM16.7383 166.75C17.4012 166.75 17.9599 166.62 18.4144 166.359C18.8737 166.099 19.2193 165.763 19.4513 165.351C19.6881 164.939 19.8065 164.506 19.8065 164.051V162.517C19.7354 162.602 19.5792 162.68 19.3377 162.751C19.101 162.818 18.8263 162.877 18.5138 162.929C18.2061 162.976 17.9054 163.019 17.6119 163.057C17.323 163.09 17.0887 163.118 16.9087 163.142C16.4731 163.199 16.0659 163.291 15.6871 163.419C15.3131 163.542 15.0101 163.729 14.7781 163.98C14.5508 164.226 14.4371 164.562 14.4371 164.989C14.4371 165.571 14.6526 166.011 15.0835 166.31C15.5191 166.603 16.0707 166.75 16.7383 166.75ZM33.0717 157.091L29.0376 168H27.3331L23.299 157.091H25.1172L28.1286 165.784H28.2422L31.2536 157.091H33.0717ZM39.3253 168.227C38.3404 168.227 37.4763 167.993 36.733 167.524C35.9943 167.055 35.4167 166.4 35 165.557C34.5881 164.714 34.3821 163.729 34.3821 162.602C34.3821 161.466 34.5881 160.474 35 159.626C35.4167 158.779 35.9943 158.121 36.733 157.652C37.4763 157.183 38.3404 156.949 39.3253 156.949C40.3101 156.949 41.1719 157.183 41.9105 157.652C42.6539 158.121 43.2315 158.779 43.6435 159.626C44.0601 160.474 44.2685 161.466 44.2685 162.602C44.2685 163.729 44.0601 164.714 43.6435 165.557C43.2315 166.4 42.6539 167.055 41.9105 167.524C41.1719 167.993 40.3101 168.227 39.3253 168.227ZM39.3253 166.722C40.0734 166.722 40.6889 166.53 41.1719 166.146C41.6548 165.763 42.0123 165.259 42.2443 164.634C42.4763 164.009 42.5923 163.331 42.5923 162.602C42.5923 161.873 42.4763 161.194 42.2443 160.564C42.0123 159.934 41.6548 159.425 41.1719 159.037C40.6889 158.649 40.0734 158.455 39.3253 158.455C38.5772 158.455 37.9616 158.649 37.4787 159.037C36.9957 159.425 36.6383 159.934 36.4062 160.564C36.1742 161.194 36.0582 161.873 36.0582 162.602C36.0582 163.331 36.1742 164.009 36.4062 164.634C36.6383 165.259 36.9957 165.763 37.4787 166.146C37.9616 166.53 38.5772 166.722 39.3253 166.722ZM53.7021 163.54V157.091H55.3782V168H53.7021V166.153H53.5884C53.3327 166.707 52.935 167.179 52.3952 167.567C51.8555 167.95 51.1737 168.142 50.3498 168.142C49.668 168.142 49.0619 167.993 48.5316 167.695C48.0013 167.392 47.5846 166.937 47.2816 166.331C46.9786 165.72 46.8271 164.951 46.8271 164.023V157.091H48.5032V163.909C48.5032 164.705 48.7257 165.339 49.1708 165.812C49.6206 166.286 50.1935 166.523 50.8896 166.523C51.3062 166.523 51.73 166.416 52.1609 166.203C52.5965 165.99 52.9611 165.663 53.2546 165.223C53.5529 164.783 53.7021 164.222 53.7021 163.54ZM58.4482 168V157.091H60.0675V158.739H60.1811C60.38 158.199 60.7398 157.761 61.2607 157.425C61.7815 157.089 62.3686 156.92 63.022 156.92C63.1451 156.92 63.299 156.923 63.4837 156.928C63.6683 156.932 63.808 156.939 63.9027 156.949V158.653C63.8459 158.639 63.7157 158.618 63.5121 158.589C63.3132 158.556 63.1025 158.54 62.88 158.54C62.3497 158.54 61.8762 158.651 61.4595 158.874C61.0476 159.091 60.7209 159.394 60.4794 159.783C60.2427 160.166 60.1243 160.604 60.1243 161.097V168H58.4482ZM65.8896 168V157.091H67.5657V168H65.8896ZM66.7418 155.273C66.4151 155.273 66.1334 155.161 65.8967 154.939C65.6647 154.716 65.5487 154.449 65.5487 154.136C65.5487 153.824 65.6647 153.556 65.8967 153.334C66.1334 153.111 66.4151 153 66.7418 153C67.0685 153 67.3479 153.111 67.5799 153.334C67.8166 153.556 67.935 153.824 67.935 154.136C67.935 154.449 67.8166 154.716 67.5799 154.939C67.3479 155.161 67.0685 155.273 66.7418 155.273ZM75.38 157.091V158.511H69.7266V157.091H75.38ZM71.3743 154.477H73.0504V164.875C73.0504 165.348 73.1191 165.704 73.2564 165.94C73.3984 166.172 73.5784 166.329 73.7962 166.409C74.0187 166.485 74.2531 166.523 74.4993 166.523C74.6839 166.523 74.8355 166.513 74.9538 166.494C75.0722 166.471 75.1669 166.452 75.2379 166.438L75.5788 167.943C75.4652 167.986 75.3066 168.028 75.103 168.071C74.8994 168.118 74.6413 168.142 74.3288 168.142C73.8554 168.142 73.3913 168.04 72.9368 167.837C72.487 167.633 72.1129 167.323 71.8146 166.906C71.5211 166.49 71.3743 165.964 71.3743 165.33V154.477ZM82.358 168.227C81.3068 168.227 80.4001 167.995 79.6378 167.531C78.8802 167.062 78.2955 166.409 77.8835 165.571C77.4763 164.728 77.2727 163.748 77.2727 162.631C77.2727 161.513 77.4763 160.528 77.8835 159.676C78.2955 158.819 78.8684 158.152 79.6023 157.673C80.3409 157.19 81.2027 156.949 82.1875 156.949C82.7557 156.949 83.3168 157.044 83.8707 157.233C84.4247 157.422 84.929 157.73 85.3835 158.156C85.8381 158.578 86.2003 159.136 86.4702 159.832C86.7401 160.528 86.875 161.385 86.875 162.403V163.114H78.4659V161.665H85.1705C85.1705 161.049 85.0473 160.5 84.8011 160.017C84.5597 159.534 84.214 159.153 83.7642 158.874C83.3191 158.594 82.7936 158.455 82.1875 158.455C81.5199 158.455 80.9422 158.62 80.4545 158.952C79.9716 159.278 79.5999 159.705 79.3395 160.23C79.0791 160.756 78.9489 161.319 78.9489 161.92V162.886C78.9489 163.71 79.0909 164.409 79.375 164.982C79.6638 165.55 80.0639 165.983 80.5753 166.281C81.0866 166.575 81.6809 166.722 82.358 166.722C82.7983 166.722 83.196 166.66 83.5511 166.537C83.911 166.409 84.2211 166.22 84.4815 165.969C84.742 165.713 84.9432 165.396 85.0852 165.017L86.7045 165.472C86.5341 166.021 86.2476 166.504 85.8452 166.92C85.4427 167.332 84.9455 167.654 84.3537 167.886C83.7618 168.114 83.0966 168.227 82.358 168.227ZM94.5668 152.773L89.8793 170.188H88.3452L93.0327 152.773H94.5668ZM104.735 157.091C104.65 156.371 104.305 155.812 103.699 155.415C103.092 155.017 102.349 154.818 101.468 154.818C100.824 154.818 100.261 154.922 99.7781 155.131C99.2998 155.339 98.9258 155.625 98.6559 155.99C98.3907 156.355 98.2582 156.769 98.2582 157.233C98.2582 157.621 98.3505 157.955 98.5352 158.234C98.7246 158.509 98.966 158.739 99.2596 158.923C99.5531 159.103 99.8609 159.252 100.183 159.371C100.505 159.484 100.801 159.577 101.071 159.648L102.548 160.045C102.927 160.145 103.348 160.282 103.812 160.457C104.281 160.633 104.728 160.872 105.154 161.175C105.585 161.473 105.94 161.857 106.22 162.325C106.499 162.794 106.639 163.369 106.639 164.051C106.639 164.837 106.433 165.547 106.021 166.182C105.614 166.816 105.017 167.321 104.231 167.695C103.45 168.069 102.501 168.256 101.383 168.256C100.342 168.256 99.4395 168.088 98.6772 167.751C97.9196 167.415 97.323 166.946 96.8874 166.345C96.4566 165.744 96.2127 165.045 96.1559 164.25H97.9741C98.0214 164.799 98.2061 165.254 98.5281 165.614C98.8548 165.969 99.2667 166.234 99.7638 166.409C100.266 166.58 100.806 166.665 101.383 166.665C102.056 166.665 102.659 166.556 103.194 166.338C103.729 166.116 104.153 165.808 104.466 165.415C104.778 165.017 104.934 164.553 104.934 164.023C104.934 163.54 104.799 163.147 104.529 162.844C104.26 162.541 103.904 162.295 103.464 162.105C103.024 161.916 102.548 161.75 102.037 161.608L100.247 161.097C99.1104 160.77 98.2108 160.304 97.5479 159.697C96.8851 159.091 96.5536 158.298 96.5536 157.318C96.5536 156.504 96.7738 155.794 97.2141 155.188C97.6592 154.577 98.2558 154.103 99.0039 153.767C99.7567 153.426 100.597 153.256 101.525 153.256C102.463 153.256 103.296 153.424 104.025 153.76C104.754 154.091 105.332 154.546 105.758 155.124C106.189 155.701 106.416 156.357 106.44 157.091H104.735ZM112.518 168.256C111.826 168.256 111.199 168.125 110.636 167.865C110.072 167.6 109.625 167.219 109.293 166.722C108.962 166.22 108.796 165.614 108.796 164.903C108.796 164.278 108.919 163.772 109.165 163.384C109.412 162.991 109.741 162.683 110.153 162.46C110.565 162.238 111.019 162.072 111.516 161.963C112.018 161.849 112.522 161.759 113.029 161.693C113.692 161.608 114.229 161.544 114.641 161.501C115.058 161.454 115.361 161.376 115.55 161.267C115.745 161.158 115.842 160.969 115.842 160.699V160.642C115.842 159.941 115.65 159.397 115.266 159.009C114.888 158.62 114.312 158.426 113.54 158.426C112.74 158.426 112.113 158.601 111.658 158.952C111.204 159.302 110.884 159.676 110.7 160.074L109.109 159.506C109.393 158.843 109.772 158.327 110.245 157.957C110.723 157.583 111.244 157.323 111.808 157.176C112.376 157.025 112.934 156.949 113.484 156.949C113.834 156.949 114.237 156.991 114.691 157.077C115.15 157.157 115.593 157.325 116.019 157.581C116.45 157.837 116.808 158.223 117.092 158.739C117.376 159.255 117.518 159.946 117.518 160.812V168H115.842V166.523H115.756C115.643 166.759 115.453 167.013 115.188 167.283C114.923 167.553 114.57 167.782 114.13 167.972C113.69 168.161 113.152 168.256 112.518 168.256ZM112.773 166.75C113.436 166.75 113.995 166.62 114.45 166.359C114.909 166.099 115.254 165.763 115.487 165.351C115.723 164.939 115.842 164.506 115.842 164.051V162.517C115.771 162.602 115.614 162.68 115.373 162.751C115.136 162.818 114.862 162.877 114.549 162.929C114.241 162.976 113.941 163.019 113.647 163.057C113.358 163.09 113.124 163.118 112.944 163.142C112.508 163.199 112.101 163.291 111.722 163.419C111.348 163.542 111.045 163.729 110.813 163.98C110.586 164.226 110.472 164.562 110.472 164.989C110.472 165.571 110.688 166.011 111.119 166.31C111.554 166.603 112.106 166.75 112.773 166.75ZM129.107 157.091L125.073 168H123.368L119.334 157.091H121.152L124.164 165.784H124.277L127.289 157.091H129.107ZM135.502 168.227C134.451 168.227 133.545 167.995 132.782 167.531C132.025 167.062 131.44 166.409 131.028 165.571C130.621 164.728 130.417 163.748 130.417 162.631C130.417 161.513 130.621 160.528 131.028 159.676C131.44 158.819 132.013 158.152 132.747 157.673C133.485 157.19 134.347 156.949 135.332 156.949C135.9 156.949 136.461 157.044 137.015 157.233C137.569 157.422 138.074 157.73 138.528 158.156C138.983 158.578 139.345 159.136 139.615 159.832C139.885 160.528 140.02 161.385 140.02 162.403V163.114H131.61V161.665H138.315C138.315 161.049 138.192 160.5 137.946 160.017C137.704 159.534 137.359 159.153 136.909 158.874C136.464 158.594 135.938 158.455 135.332 158.455C134.664 158.455 134.087 158.62 133.599 158.952C133.116 159.278 132.744 159.705 132.484 160.23C132.224 160.756 132.093 161.319 132.093 161.92V162.886C132.093 163.71 132.235 164.409 132.52 164.982C132.808 165.55 133.208 165.983 133.72 166.281C134.231 166.575 134.825 166.722 135.502 166.722C135.943 166.722 136.341 166.66 136.696 166.537C137.056 166.409 137.366 166.22 137.626 165.969C137.886 165.713 138.088 165.396 138.23 165.017L139.849 165.472C139.679 166.021 139.392 166.504 138.99 166.92C138.587 167.332 138.09 167.654 137.498 167.886C136.906 168.114 136.241 168.227 135.502 168.227ZM146.689 168.227C145.779 168.227 144.977 167.998 144.281 167.538C143.585 167.074 143.04 166.421 142.647 165.578C142.254 164.731 142.058 163.729 142.058 162.574C142.058 161.428 142.254 160.434 142.647 159.591C143.04 158.748 143.587 158.097 144.288 157.638C144.989 157.179 145.798 156.949 146.717 156.949C147.427 156.949 147.988 157.067 148.4 157.304C148.817 157.536 149.134 157.801 149.352 158.099C149.574 158.393 149.747 158.634 149.87 158.824H150.012V153.455H151.689V168H150.069V166.324H149.87C149.747 166.523 149.572 166.774 149.345 167.077C149.118 167.375 148.793 167.643 148.372 167.879C147.95 168.111 147.389 168.227 146.689 168.227ZM146.916 166.722C147.588 166.722 148.156 166.546 148.62 166.196C149.084 165.841 149.437 165.351 149.679 164.726C149.92 164.096 150.041 163.369 150.041 162.545C150.041 161.731 149.922 161.018 149.686 160.408C149.449 159.792 149.099 159.314 148.635 158.973C148.171 158.627 147.598 158.455 146.916 158.455C146.206 158.455 145.614 158.637 145.14 159.001C144.672 159.361 144.319 159.851 144.082 160.472C143.85 161.087 143.734 161.778 143.734 162.545C143.734 163.322 143.852 164.027 144.089 164.662C144.331 165.292 144.686 165.794 145.154 166.168C145.628 166.537 146.215 166.722 146.916 166.722Z" fill="black"/>
<path d="M426.761 168V153.455H428.523V166.438H435.284V168H426.761ZM442.216 168.227C441.231 168.227 440.367 167.993 439.624 167.524C438.885 167.055 438.307 166.4 437.891 165.557C437.479 164.714 437.273 163.729 437.273 162.602C437.273 161.466 437.479 160.474 437.891 159.626C438.307 158.779 438.885 158.121 439.624 157.652C440.367 157.183 441.231 156.949 442.216 156.949C443.201 156.949 444.063 157.183 444.801 157.652C445.545 158.121 446.122 158.779 446.534 159.626C446.951 160.474 447.159 161.466 447.159 162.602C447.159 163.729 446.951 164.714 446.534 165.557C446.122 166.4 445.545 167.055 444.801 167.524C444.063 167.993 443.201 168.227 442.216 168.227ZM442.216 166.722C442.964 166.722 443.58 166.53 444.062 166.146C444.545 165.763 444.903 165.259 445.135 164.634C445.367 164.009 445.483 163.331 445.483 162.602C445.483 161.873 445.367 161.194 445.135 160.564C444.903 159.934 444.545 159.425 444.062 159.037C443.58 158.649 442.964 158.455 442.216 158.455C441.468 158.455 440.852 158.649 440.369 159.037C439.886 159.425 439.529 159.934 439.297 160.564C439.065 161.194 438.949 161.873 438.949 162.602C438.949 163.331 439.065 164.009 439.297 164.634C439.529 165.259 439.886 165.763 440.369 166.146C440.852 166.53 441.468 166.722 442.216 166.722ZM454.15 168.227C453.127 168.227 452.246 167.986 451.507 167.503C450.769 167.02 450.201 166.355 449.803 165.507C449.405 164.66 449.206 163.691 449.206 162.602C449.206 161.494 449.41 160.517 449.817 159.669C450.229 158.817 450.802 158.152 451.536 157.673C452.275 157.19 453.136 156.949 454.121 156.949C454.888 156.949 455.579 157.091 456.195 157.375C456.81 157.659 457.315 158.057 457.708 158.568C458.101 159.08 458.345 159.676 458.439 160.358H456.763C456.635 159.861 456.351 159.42 455.911 159.037C455.475 158.649 454.888 158.455 454.15 158.455C453.496 158.455 452.923 158.625 452.431 158.966C451.943 159.302 451.562 159.778 451.287 160.393C451.017 161.004 450.882 161.722 450.882 162.545C450.882 163.388 451.015 164.122 451.28 164.747C451.55 165.372 451.929 165.857 452.417 166.203C452.909 166.549 453.487 166.722 454.15 166.722C454.585 166.722 454.98 166.646 455.336 166.494C455.691 166.343 455.991 166.125 456.238 165.841C456.484 165.557 456.659 165.216 456.763 164.818H458.439C458.345 165.462 458.11 166.042 457.736 166.558C457.367 167.07 456.877 167.477 456.266 167.78C455.66 168.078 454.954 168.227 454.15 168.227ZM464.1 168.256C463.408 168.256 462.781 168.125 462.218 167.865C461.654 167.6 461.207 167.219 460.875 166.722C460.544 166.22 460.378 165.614 460.378 164.903C460.378 164.278 460.501 163.772 460.748 163.384C460.994 162.991 461.323 162.683 461.735 162.46C462.147 162.238 462.601 162.072 463.098 161.963C463.6 161.849 464.105 161.759 464.611 161.693C465.274 161.608 465.811 161.544 466.223 161.501C466.64 161.454 466.943 161.376 467.132 161.267C467.327 161.158 467.424 160.969 467.424 160.699V160.642C467.424 159.941 467.232 159.397 466.848 159.009C466.47 158.62 465.894 158.426 465.123 158.426C464.322 158.426 463.695 158.601 463.24 158.952C462.786 159.302 462.466 159.676 462.282 160.074L460.691 159.506C460.975 158.843 461.354 158.327 461.827 157.957C462.305 157.583 462.826 157.323 463.39 157.176C463.958 157.025 464.516 156.949 465.066 156.949C465.416 156.949 465.819 156.991 466.273 157.077C466.732 157.157 467.175 157.325 467.601 157.581C468.032 157.837 468.39 158.223 468.674 158.739C468.958 159.255 469.1 159.946 469.1 160.812V168H467.424V166.523H467.338C467.225 166.759 467.035 167.013 466.77 167.283C466.505 167.553 466.152 167.782 465.712 167.972C465.272 168.161 464.734 168.256 464.1 168.256ZM464.355 166.75C465.018 166.75 465.577 166.62 466.032 166.359C466.491 166.099 466.837 165.763 467.069 165.351C467.305 164.939 467.424 164.506 467.424 164.051V162.517C467.353 162.602 467.196 162.68 466.955 162.751C466.718 162.818 466.444 162.877 466.131 162.929C465.823 162.976 465.523 163.019 465.229 163.057C464.94 163.09 464.706 163.118 464.526 163.142C464.09 163.199 463.683 163.291 463.304 163.419C462.93 163.542 462.627 163.729 462.395 163.98C462.168 164.226 462.054 164.562 462.054 164.989C462.054 165.571 462.27 166.011 462.701 166.31C463.136 166.603 463.688 166.75 464.355 166.75ZM476.903 157.091V158.511H471.25V157.091H476.903ZM472.898 154.477H474.574V164.875C474.574 165.348 474.643 165.704 474.78 165.94C474.922 166.172 475.102 166.329 475.32 166.409C475.542 166.485 475.777 166.523 476.023 166.523C476.207 166.523 476.359 166.513 476.477 166.494C476.596 166.471 476.69 166.452 476.761 166.438L477.102 167.943C476.989 167.986 476.83 168.028 476.626 168.071C476.423 168.118 476.165 168.142 475.852 168.142C475.379 168.142 474.915 168.04 474.46 167.837C474.01 167.633 473.636 167.323 473.338 166.906C473.045 166.49 472.898 165.964 472.898 165.33V154.477ZM479.425 168V157.091H481.101V168H479.425ZM480.277 155.273C479.95 155.273 479.669 155.161 479.432 154.939C479.2 154.716 479.084 154.449 479.084 154.136C479.084 153.824 479.2 153.556 479.432 153.334C479.669 153.111 479.95 153 480.277 153C480.604 153 480.883 153.111 481.115 153.334C481.352 153.556 481.47 153.824 481.47 154.136C481.47 154.449 481.352 154.716 481.115 154.939C480.883 155.161 480.604 155.273 480.277 155.273ZM488.603 168.227C487.618 168.227 486.754 167.993 486.01 167.524C485.272 167.055 484.694 166.4 484.277 165.557C483.865 164.714 483.659 163.729 483.659 162.602C483.659 161.466 483.865 160.474 484.277 159.626C484.694 158.779 485.272 158.121 486.01 157.652C486.754 157.183 487.618 156.949 488.603 156.949C489.587 156.949 490.449 157.183 491.188 157.652C491.931 158.121 492.509 158.779 492.921 159.626C493.337 160.474 493.546 161.466 493.546 162.602C493.546 163.729 493.337 164.714 492.921 165.557C492.509 166.4 491.931 167.055 491.188 167.524C490.449 167.993 489.587 168.227 488.603 168.227ZM488.603 166.722C489.351 166.722 489.966 166.53 490.449 166.146C490.932 165.763 491.29 165.259 491.522 164.634C491.754 164.009 491.87 163.331 491.87 162.602C491.87 161.873 491.754 161.194 491.522 160.564C491.29 159.934 490.932 159.425 490.449 159.037C489.966 158.649 489.351 158.455 488.603 158.455C487.855 158.455 487.239 158.649 486.756 159.037C486.273 159.425 485.916 159.934 485.684 160.564C485.452 161.194 485.336 161.873 485.336 162.602C485.336 163.331 485.452 164.009 485.684 164.634C485.916 165.259 486.273 165.763 486.756 166.146C487.239 166.53 487.855 166.722 488.603 166.722ZM497.781 161.438V168H496.104V157.091H497.724V158.795H497.866C498.121 158.241 498.51 157.796 499.031 157.46C499.551 157.119 500.224 156.949 501.048 156.949C501.786 156.949 502.433 157.1 502.987 157.403C503.54 157.702 503.971 158.156 504.279 158.767C504.587 159.373 504.741 160.14 504.741 161.068V168H503.065V161.182C503.065 160.325 502.842 159.657 502.397 159.179C501.952 158.696 501.341 158.455 500.565 158.455C500.03 158.455 499.551 158.571 499.13 158.803C498.713 159.035 498.384 159.373 498.143 159.818C497.901 160.263 497.781 160.803 497.781 161.438Z" fill="black"/>
<path d="M677.966 155.017V153.455H688.875V155.017H684.301V168H682.54V155.017H677.966ZM693.042 161.438V168H691.366V153.455H693.042V158.795H693.184C693.44 158.232 693.824 157.785 694.335 157.453C694.851 157.117 695.538 156.949 696.395 156.949C697.138 156.949 697.789 157.098 698.348 157.396C698.906 157.69 699.34 158.142 699.647 158.753C699.96 159.359 700.116 160.131 700.116 161.068V168H698.44V161.182C698.44 160.315 698.215 159.645 697.765 159.172C697.32 158.694 696.702 158.455 695.912 158.455C695.362 158.455 694.87 158.571 694.434 158.803C694.003 159.035 693.663 159.373 693.412 159.818C693.165 160.263 693.042 160.803 693.042 161.438ZM707.756 168.227C706.705 168.227 705.799 167.995 705.036 167.531C704.279 167.062 703.694 166.409 703.282 165.571C702.875 164.728 702.671 163.748 702.671 162.631C702.671 161.513 702.875 160.528 703.282 159.676C703.694 158.819 704.267 158.152 705.001 157.673C705.739 157.19 706.601 156.949 707.586 156.949C708.154 156.949 708.715 157.044 709.269 157.233C709.823 157.422 710.327 157.73 710.782 158.156C711.237 158.578 711.599 159.136 711.869 159.832C712.138 160.528 712.273 161.385 712.273 162.403V163.114H703.864V161.665H710.569C710.569 161.049 710.446 160.5 710.2 160.017C709.958 159.534 709.612 159.153 709.163 158.874C708.718 158.594 708.192 158.455 707.586 158.455C706.918 158.455 706.341 158.62 705.853 158.952C705.37 159.278 704.998 159.705 704.738 160.23C704.478 160.756 704.347 161.319 704.347 161.92V162.886C704.347 163.71 704.489 164.409 704.773 164.982C705.062 165.55 705.462 165.983 705.974 166.281C706.485 166.575 707.079 166.722 707.756 166.722C708.197 166.722 708.594 166.66 708.95 166.537C709.309 166.409 709.62 166.22 709.88 165.969C710.14 165.713 710.342 165.396 710.484 165.017L712.103 165.472C711.933 166.021 711.646 166.504 711.244 166.92C710.841 167.332 710.344 167.654 709.752 167.886C709.16 168.114 708.495 168.227 707.756 168.227ZM732.948 160.727C732.948 162.261 732.671 163.587 732.117 164.705C731.563 165.822 730.803 166.684 729.837 167.29C728.871 167.896 727.768 168.199 726.528 168.199C725.287 168.199 724.184 167.896 723.218 167.29C722.252 166.684 721.492 165.822 720.938 164.705C720.384 163.587 720.107 162.261 720.107 160.727C720.107 159.193 720.384 157.867 720.938 156.75C721.492 155.633 722.252 154.771 723.218 154.165C724.184 153.559 725.287 153.256 726.528 153.256C727.768 153.256 728.871 153.559 729.837 154.165C730.803 154.771 731.563 155.633 732.117 156.75C732.671 157.867 732.948 159.193 732.948 160.727ZM731.244 160.727C731.244 159.468 731.033 158.405 730.612 157.538C730.195 156.672 729.629 156.016 728.914 155.571C728.204 155.126 727.408 154.903 726.528 154.903C725.647 154.903 724.849 155.126 724.134 155.571C723.424 156.016 722.858 156.672 722.437 157.538C722.02 158.405 721.812 159.468 721.812 160.727C721.812 161.987 722.02 163.05 722.437 163.916C722.858 164.783 723.424 165.438 724.134 165.884C724.849 166.329 725.647 166.551 726.528 166.551C727.408 166.551 728.204 166.329 728.914 165.884C729.629 165.438 730.195 164.783 730.612 163.916C731.033 163.05 731.244 161.987 731.244 160.727ZM740.114 168.227C739.092 168.227 738.211 167.986 737.472 167.503C736.734 167.02 736.165 166.355 735.768 165.507C735.37 164.66 735.171 163.691 735.171 162.602C735.171 161.494 735.375 160.517 735.782 159.669C736.194 158.817 736.767 158.152 737.501 157.673C738.239 157.19 739.101 156.949 740.086 156.949C740.853 156.949 741.544 157.091 742.16 157.375C742.775 157.659 743.28 158.057 743.673 158.568C744.066 159.08 744.309 159.676 744.404 160.358H742.728C742.6 159.861 742.316 159.42 741.876 159.037C741.44 158.649 740.853 158.455 740.114 158.455C739.461 158.455 738.888 158.625 738.396 158.966C737.908 159.302 737.527 159.778 737.252 160.393C736.982 161.004 736.847 161.722 736.847 162.545C736.847 163.388 736.98 164.122 737.245 164.747C737.515 165.372 737.894 165.857 738.381 166.203C738.874 166.549 739.451 166.722 740.114 166.722C740.55 166.722 740.945 166.646 741.3 166.494C741.656 166.343 741.956 166.125 742.202 165.841C742.449 165.557 742.624 165.216 742.728 164.818H744.404C744.309 165.462 744.075 166.042 743.701 166.558C743.332 167.07 742.842 167.477 742.231 167.78C741.625 168.078 740.919 168.227 740.114 168.227ZM751.428 168.227C750.377 168.227 749.47 167.995 748.708 167.531C747.951 167.062 747.366 166.409 746.954 165.571C746.547 164.728 746.343 163.748 746.343 162.631C746.343 161.513 746.547 160.528 746.954 159.676C747.366 158.819 747.939 158.152 748.673 157.673C749.411 157.19 750.273 156.949 751.258 156.949C751.826 156.949 752.387 157.044 752.941 157.233C753.495 157.422 753.999 157.73 754.454 158.156C754.908 158.578 755.271 159.136 755.54 159.832C755.81 160.528 755.945 161.385 755.945 162.403V163.114H747.536V161.665H754.241C754.241 161.049 754.118 160.5 753.871 160.017C753.63 159.534 753.284 159.153 752.835 158.874C752.389 158.594 751.864 158.455 751.258 158.455C750.59 158.455 750.013 158.62 749.525 158.952C749.042 159.278 748.67 159.705 748.41 160.23C748.149 160.756 748.019 161.319 748.019 161.92V162.886C748.019 163.71 748.161 164.409 748.445 164.982C748.734 165.55 749.134 165.983 749.646 166.281C750.157 166.575 750.751 166.722 751.428 166.722C751.869 166.722 752.266 166.66 752.621 166.537C752.981 166.409 753.291 166.22 753.552 165.969C753.812 165.713 754.013 165.396 754.156 165.017L755.775 165.472C755.604 166.021 755.318 166.504 754.915 166.92C754.513 167.332 754.016 167.654 753.424 167.886C752.832 168.114 752.167 168.227 751.428 168.227ZM761.705 168.256C761.014 168.256 760.387 168.125 759.823 167.865C759.26 167.6 758.812 167.219 758.481 166.722C758.149 166.22 757.984 165.614 757.984 164.903C757.984 164.278 758.107 163.772 758.353 163.384C758.599 162.991 758.928 162.683 759.34 162.46C759.752 162.238 760.207 162.072 760.704 161.963C761.206 161.849 761.71 161.759 762.217 161.693C762.879 161.608 763.417 161.544 763.829 161.501C764.246 161.454 764.549 161.376 764.738 161.267C764.932 161.158 765.029 160.969 765.029 160.699V160.642C765.029 159.941 764.837 159.397 764.454 159.009C764.075 158.62 763.5 158.426 762.728 158.426C761.928 158.426 761.3 158.601 760.846 158.952C760.391 159.302 760.072 159.676 759.887 160.074L758.296 159.506C758.58 158.843 758.959 158.327 759.433 157.957C759.911 157.583 760.432 157.323 760.995 157.176C761.563 157.025 762.122 156.949 762.671 156.949C763.022 156.949 763.424 156.991 763.879 157.077C764.338 157.157 764.781 157.325 765.207 157.581C765.638 157.837 765.995 158.223 766.279 158.739C766.563 159.255 766.705 159.946 766.705 160.812V168H765.029V166.523H764.944C764.83 166.759 764.641 167.013 764.376 167.283C764.111 167.553 763.758 167.782 763.317 167.972C762.877 168.161 762.34 168.256 761.705 168.256ZM761.961 166.75C762.624 166.75 763.183 166.62 763.637 166.359C764.096 166.099 764.442 165.763 764.674 165.351C764.911 164.939 765.029 164.506 765.029 164.051V162.517C764.958 162.602 764.802 162.68 764.56 162.751C764.324 162.818 764.049 162.877 763.737 162.929C763.429 162.976 763.128 163.019 762.835 163.057C762.546 163.09 762.311 163.118 762.131 163.142C761.696 163.199 761.289 163.291 760.91 163.419C760.536 163.542 760.233 163.729 760.001 163.98C759.773 164.226 759.66 164.562 759.66 164.989C759.66 165.571 759.875 166.011 760.306 166.31C760.742 166.603 761.293 166.75 761.961 166.75ZM771.441 161.438V168H769.765V157.091H771.384V158.795H771.526C771.782 158.241 772.17 157.796 772.691 157.46C773.212 157.119 773.884 156.949 774.708 156.949C775.446 156.949 776.093 157.1 776.647 157.403C777.201 157.702 777.632 158.156 777.939 158.767C778.247 159.373 778.401 160.14 778.401 161.068V168H776.725V161.182C776.725 160.325 776.502 159.657 776.057 159.179C775.612 158.696 775.001 158.455 774.225 158.455C773.69 158.455 773.212 158.571 772.79 158.803C772.373 159.035 772.044 159.373 771.803 159.818C771.561 160.263 771.441 160.803 771.441 161.438ZM793.339 159.946V161.509H786.975V159.946H793.339ZM802.737 168H800.89L806.231 153.455H808.049L813.39 168H811.544L807.197 155.756H807.083L802.737 168ZM803.419 162.318H810.862V163.881H803.419V162.318ZM817.105 161.438V168H815.429V157.091H817.048V158.795H817.19C817.446 158.241 817.834 157.796 818.355 157.46C818.876 157.119 819.548 156.949 820.372 156.949C821.11 156.949 821.757 157.1 822.311 157.403C822.865 157.702 823.296 158.156 823.603 158.767C823.911 159.373 824.065 160.14 824.065 161.068V168H822.389V161.182C822.389 160.325 822.166 159.657 821.721 159.179C821.276 158.696 820.665 158.455 819.889 158.455C819.354 158.455 818.876 158.571 818.454 158.803C818.038 159.035 817.708 159.373 817.467 159.818C817.225 160.263 817.105 160.803 817.105 161.438ZM827.817 172.091C827.533 172.091 827.279 172.067 827.057 172.02C826.834 171.977 826.68 171.935 826.595 171.892L827.021 170.415C827.429 170.519 827.788 170.557 828.101 170.528C828.413 170.5 828.69 170.36 828.932 170.109C829.178 169.863 829.403 169.463 829.607 168.909L829.919 168.057L825.885 157.091H827.703L830.714 165.784H830.828L833.839 157.091H835.658L831.027 169.591C830.819 170.154 830.561 170.621 830.253 170.99C829.945 171.364 829.588 171.641 829.18 171.821C828.778 172.001 828.323 172.091 827.817 172.091ZM840.342 168L837.018 157.091H838.779L841.137 165.443H841.251L843.58 157.091H845.37L847.671 165.415H847.785L850.143 157.091H851.904L848.58 168H846.933L844.546 159.619H844.376L841.989 168H840.342ZM855.796 161.438V168H854.12V153.455H855.796V158.795H855.938C856.194 158.232 856.577 157.785 857.089 157.453C857.605 157.117 858.291 156.949 859.148 156.949C859.892 156.949 860.543 157.098 861.102 157.396C861.66 157.69 862.094 158.142 862.401 158.753C862.714 159.359 862.87 160.131 862.87 161.068V168H861.194V161.182C861.194 160.315 860.969 159.645 860.519 159.172C860.074 158.694 859.456 158.455 858.665 158.455C858.116 158.455 857.624 158.571 857.188 158.803C856.757 159.035 856.416 159.373 856.165 159.818C855.919 160.263 855.796 160.803 855.796 161.438ZM870.51 168.227C869.459 168.227 868.552 167.995 867.79 167.531C867.033 167.062 866.448 166.409 866.036 165.571C865.629 164.728 865.425 163.748 865.425 162.631C865.425 161.513 865.629 160.528 866.036 159.676C866.448 158.819 867.021 158.152 867.755 157.673C868.493 157.19 869.355 156.949 870.34 156.949C870.908 156.949 871.469 157.044 872.023 157.233C872.577 157.422 873.081 157.73 873.536 158.156C873.99 158.578 874.353 159.136 874.623 159.832C874.892 160.528 875.027 161.385 875.027 162.403V163.114H866.618V161.665H873.323C873.323 161.049 873.2 160.5 872.953 160.017C872.712 159.534 872.366 159.153 871.917 158.874C871.471 158.594 870.946 158.455 870.34 158.455C869.672 158.455 869.095 158.62 868.607 158.952C868.124 159.278 867.752 159.705 867.492 160.23C867.231 160.756 867.101 161.319 867.101 161.92V162.886C867.101 163.71 867.243 164.409 867.527 164.982C867.816 165.55 868.216 165.983 868.728 166.281C869.239 166.575 869.833 166.722 870.51 166.722C870.951 166.722 871.348 166.66 871.703 166.537C872.063 166.409 872.373 166.22 872.634 165.969C872.894 165.713 873.096 165.396 873.238 165.017L874.857 165.472C874.686 166.021 874.4 166.504 873.998 166.92C873.595 167.332 873.098 167.654 872.506 167.886C871.914 168.114 871.249 168.227 870.51 168.227ZM877.577 168V157.091H879.196V158.739H879.31C879.509 158.199 879.869 157.761 880.39 157.425C880.91 157.089 881.498 156.92 882.151 156.92C882.274 156.92 882.428 156.923 882.613 156.928C882.797 156.932 882.937 156.939 883.032 156.949V158.653C882.975 158.639 882.845 158.618 882.641 158.589C882.442 158.556 882.231 158.54 882.009 158.54C881.479 158.54 881.005 158.651 880.588 158.874C880.176 159.091 879.85 159.394 879.608 159.783C879.372 160.166 879.253 160.604 879.253 161.097V168H877.577ZM889.26 168.227C888.209 168.227 887.302 167.995 886.54 167.531C885.783 167.062 885.198 166.409 884.786 165.571C884.379 164.728 884.175 163.748 884.175 162.631C884.175 161.513 884.379 160.528 884.786 159.676C885.198 158.819 885.771 158.152 886.505 157.673C887.243 157.19 888.105 156.949 889.09 156.949C889.658 156.949 890.219 157.044 890.773 157.233C891.327 157.422 891.831 157.73 892.286 158.156C892.74 158.578 893.103 159.136 893.373 159.832C893.642 160.528 893.777 161.385 893.777 162.403V163.114H885.368V161.665H892.073C892.073 161.049 891.95 160.5 891.703 160.017C891.462 159.534 891.116 159.153 890.667 158.874C890.221 158.594 889.696 158.455 889.09 158.455C888.422 158.455 887.845 158.62 887.357 158.952C886.874 159.278 886.502 159.705 886.242 160.23C885.981 160.756 885.851 161.319 885.851 161.92V162.886C885.851 163.71 885.993 164.409 886.277 164.982C886.566 165.55 886.966 165.983 887.478 166.281C887.989 166.575 888.583 166.722 889.26 166.722C889.701 166.722 890.098 166.66 890.453 166.537C890.813 166.409 891.123 166.22 891.384 165.969C891.644 165.713 891.846 165.396 891.988 165.017L893.607 165.472C893.436 166.021 893.15 166.504 892.748 166.92C892.345 167.332 891.848 167.654 891.256 167.886C890.664 168.114 889.999 168.227 889.26 168.227ZM901.952 168V157.091H903.628V168H901.952ZM902.804 155.273C902.478 155.273 902.196 155.161 901.959 154.939C901.727 154.716 901.611 154.449 901.611 154.136C901.611 153.824 901.727 153.556 901.959 153.334C902.196 153.111 902.478 153 902.804 153C903.131 153 903.41 153.111 903.642 153.334C903.879 153.556 903.998 153.824 903.998 154.136C903.998 154.449 903.879 154.716 903.642 154.939C903.41 155.161 903.131 155.273 902.804 155.273ZM908.374 161.438V168H906.698V157.091H908.317V158.795H908.46C908.715 158.241 909.103 157.796 909.624 157.46C910.145 157.119 910.817 156.949 911.641 156.949C912.38 156.949 913.026 157.1 913.58 157.403C914.134 157.702 914.565 158.156 914.873 158.767C915.181 159.373 915.335 160.14 915.335 161.068V168H913.658V161.182C913.658 160.325 913.436 159.657 912.991 159.179C912.546 158.696 911.935 158.455 911.158 158.455C910.623 158.455 910.145 158.571 909.724 158.803C909.307 159.035 908.978 159.373 908.737 159.818C908.495 160.263 908.374 160.803 908.374 161.438ZM928.767 157.091V158.511H923.113V157.091H928.767ZM924.761 154.477H926.437V164.875C926.437 165.348 926.506 165.704 926.643 165.94C926.785 166.172 926.965 166.329 927.183 166.409C927.405 166.485 927.64 166.523 927.886 166.523C928.071 166.523 928.222 166.513 928.341 166.494C928.459 166.471 928.554 166.452 928.625 166.438L928.966 167.943C928.852 167.986 928.693 168.028 928.49 168.071C928.286 168.118 928.028 168.142 927.716 168.142C927.242 168.142 926.778 168.04 926.324 167.837C925.874 167.633 925.5 167.323 925.201 166.906C924.908 166.49 924.761 165.964 924.761 165.33V154.477ZM933.199 161.438V168H931.522V153.455H933.199V158.795H933.341C933.596 158.232 933.98 157.785 934.491 157.453C935.007 157.117 935.694 156.949 936.551 156.949C937.294 156.949 937.945 157.098 938.504 157.396C939.063 157.69 939.496 158.142 939.804 158.753C940.116 159.359 940.272 160.131 940.272 161.068V168H938.596V161.182C938.596 160.315 938.371 159.645 937.922 159.172C937.476 158.694 936.859 158.455 936.068 158.455C935.519 158.455 935.026 158.571 934.591 158.803C934.16 159.035 933.819 159.373 933.568 159.818C933.322 160.263 933.199 160.803 933.199 161.438ZM947.913 168.227C946.862 168.227 945.955 167.995 945.192 167.531C944.435 167.062 943.85 166.409 943.438 165.571C943.031 164.728 942.827 163.748 942.827 162.631C942.827 161.513 943.031 160.528 943.438 159.676C943.85 158.819 944.423 158.152 945.157 157.673C945.896 157.19 946.757 156.949 947.742 156.949C948.31 156.949 948.871 157.044 949.425 157.233C949.979 157.422 950.484 157.73 950.938 158.156C951.393 158.578 951.755 159.136 952.025 159.832C952.295 160.528 952.43 161.385 952.43 162.403V163.114H944.021V161.665H950.725C950.725 161.049 950.602 160.5 950.356 160.017C950.114 159.534 949.769 159.153 949.319 158.874C948.874 158.594 948.348 158.455 947.742 158.455C947.075 158.455 946.497 158.62 946.009 158.952C945.526 159.278 945.155 159.705 944.894 160.23C944.634 160.756 944.504 161.319 944.504 161.92V162.886C944.504 163.71 944.646 164.409 944.93 164.982C945.219 165.55 945.619 165.983 946.13 166.281C946.641 166.575 947.236 166.722 947.913 166.722C948.353 166.722 948.751 166.66 949.106 166.537C949.466 166.409 949.776 166.22 950.036 165.969C950.297 165.713 950.498 165.396 950.64 165.017L952.259 165.472C952.089 166.021 951.802 166.504 951.4 166.92C950.997 167.332 950.5 167.654 949.908 167.886C949.317 168.114 948.651 168.227 947.913 168.227ZM963.076 168L959.752 157.091H961.513L963.871 165.443H963.985L966.315 157.091H968.104L970.406 165.415H970.519L972.877 157.091H974.638L971.315 168H969.667L967.281 159.619H967.11L964.724 168H963.076ZM980.915 168.227C979.93 168.227 979.066 167.993 978.323 167.524C977.584 167.055 977.007 166.4 976.59 165.557C976.178 164.714 975.972 163.729 975.972 162.602C975.972 161.466 976.178 160.474 976.59 159.626C977.007 158.779 977.584 158.121 978.323 157.652C979.066 157.183 979.93 156.949 980.915 156.949C981.9 156.949 982.762 157.183 983.5 157.652C984.244 158.121 984.821 158.779 985.233 159.626C985.65 160.474 985.858 161.466 985.858 162.602C985.858 163.729 985.65 164.714 985.233 165.557C984.821 166.4 984.244 167.055 983.5 167.524C982.762 167.993 981.9 168.227 980.915 168.227ZM980.915 166.722C981.663 166.722 982.279 166.53 982.762 166.146C983.245 165.763 983.602 165.259 983.834 164.634C984.066 164.009 984.182 163.331 984.182 162.602C984.182 161.873 984.066 161.194 983.834 160.564C983.602 159.934 983.245 159.425 982.762 159.037C982.279 158.649 981.663 158.455 980.915 158.455C980.167 158.455 979.551 158.649 979.069 159.037C978.586 159.425 978.228 159.934 977.996 160.564C977.764 161.194 977.648 161.873 977.648 162.602C977.648 163.331 977.764 164.009 977.996 164.634C978.228 165.259 978.586 165.763 979.069 166.146C979.551 166.53 980.167 166.722 980.915 166.722ZM988.417 168V157.091H990.036V158.739H990.15C990.349 158.199 990.709 157.761 991.229 157.425C991.75 157.089 992.337 156.92 992.991 156.92C993.114 156.92 993.268 156.923 993.452 156.928C993.637 156.932 993.777 156.939 993.871 156.949V158.653C993.815 158.639 993.684 158.618 993.481 158.589C993.282 158.556 993.071 158.54 992.849 158.54C992.318 158.54 991.845 158.651 991.428 158.874C991.016 159.091 990.69 159.394 990.448 159.783C990.211 160.166 990.093 160.604 990.093 161.097V168H988.417ZM997.534 153.455V168H995.858V153.455H997.534ZM1004.72 168.227C1003.81 168.227 1003.01 167.998 1002.32 167.538C1001.62 167.074 1001.08 166.421 1000.68 165.578C1000.29 164.731 1000.09 163.729 1000.09 162.574C1000.09 161.428 1000.29 160.434 1000.68 159.591C1001.08 158.748 1001.62 158.097 1002.32 157.638C1003.02 157.179 1003.83 156.949 1004.75 156.949C1005.46 156.949 1006.02 157.067 1006.44 157.304C1006.85 157.536 1007.17 157.801 1007.39 158.099C1007.61 158.393 1007.78 158.634 1007.91 158.824H1008.05V153.455H1009.72V168H1008.1V166.324H1007.91C1007.78 166.523 1007.61 166.774 1007.38 167.077C1007.15 167.375 1006.83 167.643 1006.41 167.879C1005.99 168.111 1005.42 168.227 1004.72 168.227ZM1004.95 166.722C1005.62 166.722 1006.19 166.546 1006.66 166.196C1007.12 165.841 1007.47 165.351 1007.71 164.726C1007.96 164.096 1008.08 163.369 1008.08 162.545C1008.08 161.731 1007.96 161.018 1007.72 160.408C1007.48 159.792 1007.13 159.314 1006.67 158.973C1006.21 158.627 1005.63 158.455 1004.95 158.455C1004.24 158.455 1003.65 158.637 1003.18 159.001C1002.71 159.361 1002.35 159.851 1002.12 160.472C1001.89 161.087 1001.77 161.778 1001.77 162.545C1001.77 163.322 1001.89 164.027 1002.12 164.662C1002.37 165.292 1002.72 165.794 1003.19 166.168C1003.66 166.537 1004.25 166.722 1004.95 166.722Z" fill="black"/>
<path d="M110.357 0C97.8196 0 86.8425 5.36626 80 14.4369C73.1575 5.36626 62.1804 0 49.6429 0C39.6628 0.0111963 30.0947 3.96221 23.0378 10.9862C15.9808 18.0103 12.0112 27.5337 12 37.4672C12 79.7688 75.0154 114.009 77.6989 115.423C78.4062 115.802 79.1968 116 80 116C80.8032 116 81.5938 115.802 82.3011 115.423C84.9846 114.009 148 79.7688 148 37.4672C147.989 27.5337 144.019 18.0103 136.962 10.9862C129.905 3.96221 120.337 0.0111963 110.357 0ZM80 105.633C68.9136 99.2034 21.7143 69.9125 21.7143 37.4672C21.7239 30.0976 24.6695 23.0326 29.905 17.8215C35.1406 12.6104 42.2387 9.67854 49.6429 9.66895C61.4518 9.66895 71.3664 15.9296 75.5071 25.9853C75.8731 26.872 76.4956 27.6304 77.2956 28.1641C78.0956 28.6979 79.0369 28.9828 80 28.9828C80.9631 28.9828 81.9044 28.6979 82.7044 28.1641C83.5044 27.6304 84.1269 26.872 84.4929 25.9853C88.6336 15.9115 98.5482 9.66895 110.357 9.66895C117.761 9.67854 124.859 12.6104 130.095 17.8215C135.331 23.0326 138.276 30.0976 138.286 37.4672C138.286 69.8642 91.0743 99.1973 80 105.633Z" fill="black"/>
<path d="M468 6.82353C458.907 6.82353 450.186 10.4181 443.756 16.8164C437.327 23.2147 433.714 31.8926 433.714 40.9412C433.714 48.6381 438.309 57.6179 444.754 66.2565C451.104 74.7586 458.791 82.36 464.078 87.1842C465.14 88.1779 466.542 88.7311 468 88.7311C469.458 88.7311 470.86 88.1779 471.922 87.1842C477.202 82.3532 484.896 74.7654 491.246 66.2565C497.691 57.6179 502.286 48.6381 502.286 40.9412C502.286 31.8926 498.673 23.2147 492.244 16.8164C485.814 10.4181 477.093 6.82353 468 6.82353ZM426.857 40.9412C426.857 30.0829 431.192 19.6694 438.908 11.9914C446.623 4.31343 457.088 0 468 0C478.912 0 489.377 4.31343 497.092 11.9914C504.808 19.6694 509.143 30.0829 509.143 40.9412C509.143 50.9581 503.362 61.4595 496.752 70.3233C490.032 79.3235 481.995 87.2456 476.558 92.2063C474.231 94.3545 471.174 95.5481 468 95.5481C464.826 95.5481 461.769 94.3545 459.442 92.2063C454.005 87.2456 445.961 79.3235 439.248 70.3233C432.638 61.4595 426.857 50.9581 426.857 40.9412ZM468 30.7059C465.272 30.7059 462.656 31.7842 460.727 33.7037C458.798 35.6232 457.714 38.2266 457.714 40.9412C457.714 43.6557 458.798 46.2591 460.727 48.1786C462.656 50.0981 465.272 51.1765 468 51.1765C470.728 51.1765 473.344 50.0981 475.273 48.1786C477.202 46.2591 478.286 43.6557 478.286 40.9412C478.286 38.2266 477.202 35.6232 475.273 33.7037C473.344 31.7842 470.728 30.7059 468 30.7059ZM450.857 40.9412C450.857 36.4169 452.663 32.0779 455.878 28.8788C459.093 25.6796 463.453 23.8824 468 23.8824C472.547 23.8824 476.907 25.6796 480.122 28.8788C483.337 32.0779 485.143 36.4169 485.143 40.9412C485.143 45.4655 483.337 49.8044 480.122 53.0036C476.907 56.2027 472.547 58 468 58C463.453 58 459.093 56.2027 455.878 53.0036C452.663 49.8044 450.857 45.4655 450.857 40.9412ZM498.309 79.4122C496.719 81.3293 495.085 83.2086 493.406 85.0485C495.152 85.5398 496.779 86.0743 498.288 86.652C502.087 88.1054 504.933 89.7567 506.763 91.4148C508.594 93.0729 509.143 94.4649 509.143 95.5294C509.143 96.5939 508.594 97.9859 506.763 99.644C504.933 101.302 502.087 102.953 498.288 104.407C490.704 107.314 480 109.183 468 109.183C456 109.183 445.296 107.314 437.712 104.407C433.913 102.953 431.067 101.302 429.237 99.644C427.406 97.9859 426.857 96.5939 426.857 95.5294C426.857 94.4649 427.406 93.0729 429.237 91.4148C431.067 89.7567 433.913 88.1054 437.712 86.652C439.313 86.0419 440.943 85.5068 442.594 85.0485C440.913 83.2104 439.279 81.3311 437.691 79.4122C436.872 79.6863 436.058 79.9775 435.25 80.2856C430.992 81.9165 427.303 83.9431 424.622 86.3654C421.947 88.7878 420 91.8856 420 95.5294C420 99.18 421.947 102.271 424.622 104.693C427.296 107.116 430.992 109.142 435.25 110.78C443.801 114.055 455.383 116 468 116C480.617 116 492.199 114.048 500.75 110.78C505.008 109.142 508.697 107.116 511.378 104.693C514.053 102.271 516 99.18 516 95.5294C516 91.8788 514.053 88.7878 511.378 86.3654C508.704 83.9431 505.008 81.9165 500.75 80.2856C499.942 79.9775 499.128 79.6863 498.309 79.4122Z" fill="black"/>
<path d="M322 57.5C322 58.1518 321.741 58.7768 321.28 59.2377C320.819 59.6985 320.194 59.9574 319.543 59.9574H285.957V93.5426C285.957 94.1943 285.699 94.8194 285.238 95.2802C284.777 95.7411 284.152 96 283.5 96C282.848 96 282.223 95.7411 281.762 95.2802C281.301 94.8194 281.043 94.1943 281.043 93.5426V59.9574H247.457C246.806 59.9574 246.181 59.6985 245.72 59.2377C245.259 58.7768 245 58.1518 245 57.5C245 56.8482 245.259 56.2232 245.72 55.7623C246.181 55.3015 246.806 55.0426 247.457 55.0426H281.043V21.4574C281.043 20.8057 281.301 20.1806 281.762 19.7198C282.223 19.2589 282.848 19 283.5 19C284.152 19 284.777 19.2589 285.238 19.7198C285.699 20.1806 285.957 20.8057 285.957 21.4574V55.0426H319.543C320.194 55.0426 320.819 55.3015 321.28 55.7623C321.741 56.2232 322 56.8482 322 57.5Z" fill="#BCBBBB"/>
<path d="M691 57.5C691 58.1518 690.741 58.7768 690.28 59.2377C689.819 59.6985 689.194 59.9574 688.543 59.9574H654.957V93.5426C654.957 94.1943 654.699 94.8194 654.238 95.2802C653.777 95.7411 653.152 96 652.5 96C651.848 96 651.223 95.7411 650.762 95.2802C650.301 94.8194 650.043 94.1943 650.043 93.5426V59.9574H616.457C615.806 59.9574 615.181 59.6985 614.72 59.2377C614.259 58.7768 614 58.1518 614 57.5C614 56.8482 614.259 56.2232 614.72 55.7623C615.181 55.3015 615.806 55.0426 616.457 55.0426H650.043V21.4574C650.043 20.8057 650.301 20.1806 650.762 19.7198C651.223 19.2589 651.848 19 652.5 19C653.152 19 653.777 19.2589 654.238 19.7198C654.699 20.1806 654.957 20.8057 654.957 21.4574V55.0426H688.543C689.194 55.0426 689.819 55.3015 690.28 55.7623C690.741 56.2232 691 56.8482 691 57.5Z" fill="#BCBBBB"/>
<rect x="789" width="116" height="116" rx="11" fill="#2A586B"/>
<path d="M253 552C253 552.796 252.684 553.559 252.121 554.121C251.559 554.684 250.796 555 250 555H162C161.204 555 160.441 554.684 159.879 554.121C159.316 553.559 159 552.796 159 552C159 551.204 159.316 550.441 159.879 549.879C160.441 549.316 161.204 549 162 549H250C250.796 549 251.559 549.316 252.121 549.879C252.684 550.441 253 551.204 253 552ZM162 523H250C250.796 523 251.559 522.684 252.121 522.121C252.684 521.559 253 520.796 253 520C253 519.204 252.684 518.441 252.121 517.879C251.559 517.316 250.796 517 250 517H162C161.204 517 160.441 517.316 159.879 517.879C159.316 518.441 159 519.204 159 520C159 520.796 159.316 521.559 159.879 522.121C160.441 522.684 161.204 523 162 523Z" fill="#BCBBBB"/>
<path d="M466.692 422.215L467.5 423.321L468.308 422.215C481.242 404.5 502.001 394 525.758 394C544.637 394.022 562.742 401.744 576.1 415.48C589.459 429.218 596.979 447.85 597 467.289C596.999 508.77 567.064 546.454 536.22 574.23C505.424 601.964 473.979 619.595 471.438 620.978L471.432 620.981C470.222 621.65 468.871 622 467.5 622C466.129 622 464.778 621.65 463.568 620.981L463.562 620.978C461.021 619.595 429.576 601.964 398.78 574.23C367.936 546.453 338 508.769 338 467.289C338.021 447.849 345.541 429.218 358.9 415.48C372.258 401.744 390.363 394.022 409.242 394C432.999 394 453.758 404.5 466.692 422.215ZM466.986 603.303L467.501 603.611L468.015 603.303C478.668 596.906 506.704 579.132 532.089 554.893C557.428 530.698 580.357 499.846 580.357 467.288V467.287C580.338 452.419 574.587 438.16 564.355 427.638C554.123 417.116 540.244 411.191 525.76 411.171H525.759C502.717 411.171 483.302 423.771 475.193 444.153C474.563 445.73 473.492 447.075 472.123 448.019C470.753 448.964 469.144 449.466 467.5 449.466C465.856 449.466 464.247 448.964 462.877 448.019C461.507 447.075 460.437 445.73 459.807 444.152C451.698 423.807 432.284 411.171 409.241 411.171L409.24 411.171C394.756 411.191 380.877 417.116 370.645 427.638C360.413 438.16 354.662 452.419 354.643 467.287V467.288C354.643 499.893 377.566 530.749 402.902 554.934C428.285 579.162 456.321 596.913 466.986 603.303Z" fill="#2A586B" stroke="#2A586B" stroke-width="2"/>
<path d="M532.907 607C598.834 614.364 604.483 672.029 467.776 679C298.379 672.029 363.122 607.205 403.72 607.205" stroke="#2A586B" stroke-width="15" stroke-linecap="round"/>
<path d="M500.498 517.344C500.498 536.105 485.597 551.081 467.498 551.081C449.4 551.081 434.498 536.105 434.498 517.344C434.498 498.584 449.4 483.607 467.498 483.607C485.597 483.607 500.498 498.584 500.498 517.344Z" stroke="#2A586B" stroke-width="15"/>
<path d="M466.703 433.491L467.5 434.543L468.297 433.491C480.42 417.495 499.89 408 522.187 408C539.904 408.02 556.887 415.001 569.412 427.41C581.937 439.818 588.98 456.64 589 474.184C588.999 511.637 560.937 545.689 531.98 570.812C503.078 595.888 473.564 611.83 471.181 613.08L471.175 613.083C470.046 613.685 468.783 614 467.5 614C466.217 614 464.954 613.685 463.825 613.083L463.819 613.08C461.436 611.83 431.922 595.888 403.02 570.812C374.063 545.689 346 511.637 346 474.183C346.02 456.639 353.063 439.818 365.588 427.41C378.113 415.001 395.096 408.02 412.813 408C435.11 408 454.58 417.495 466.703 433.491ZM467 597.277L467.501 597.566L468.001 597.277C478.002 591.492 504.324 575.415 528.158 553.49C551.941 531.612 573.5 503.683 573.5 474.183L573.5 474.181C573.482 460.699 568.068 447.776 558.448 438.245C548.829 428.715 535.789 423.355 522.189 423.337H522.187C500.557 423.337 482.301 434.733 474.669 453.213C474.087 454.618 473.095 455.821 471.819 456.668C470.542 457.516 469.039 457.969 467.5 457.969C465.961 457.969 464.458 457.516 463.181 456.668C461.905 455.821 460.913 454.617 460.33 453.212C452.699 434.766 434.444 423.337 412.812 423.337L412.811 423.337C399.211 423.355 386.171 428.715 376.552 438.245C366.932 447.776 361.518 460.699 361.5 474.181V474.183C361.5 503.726 383.053 531.658 406.834 553.526C430.666 575.442 456.988 591.498 467 597.277Z" fill="#2A586B" stroke="#2A586B" stroke-width="2"/>
</svg>
