<svg width="278" height="603" viewBox="0 0 278 603" fill="none" xmlns="http://www.w3.org/2000/svg">
<rect width="278" height="603" fill="#D9D9D9"/>
<rect x="15" y="17" width="161" height="29" fill="#BCBBBB"/>
<rect x="205" y="129" width="58" height="17" fill="#BCBBBB"/>
<rect x="117" y="129" width="80" height="17" fill="#BCBBBB"/>
<rect x="15" y="60" width="161" height="55" fill="#BCBBBB"/>
<rect x="15" y="169" width="248" height="76" fill="#BCBBBB"/>
<rect y="529" width="278" height="74" fill="#BCBBBB"/>
<rect x="15" y="274" width="248" height="76" fill="#BCBBBB"/>
<rect x="15" y="381" width="248" height="74" fill="#BCBBBB"/>
<rect x="25" y="178" width="61" height="60" fill="#909090"/>
<rect x="25" y="283" width="61" height="60" fill="#909090"/>
<rect x="25" y="388" width="61" height="60" fill="#909090"/>
<line x1="24.801" y1="236.822" x2="86.0546" y2="176.993" stroke="black"/>
<line x1="24.801" y1="342.236" x2="86.0546" y2="282.407" stroke="black"/>
<line x1="24.801" y1="447.646" x2="86.0546" y2="387.817" stroke="black"/>
<line x1="25.4998" y1="176.992" x2="86.7533" y2="236.821" stroke="black"/>
<line x1="25.4998" y1="282.406" x2="86.7533" y2="342.235" stroke="black"/>
<line x1="25.4998" y1="387.818" x2="86.7533" y2="447.647" stroke="black"/>
</svg>
