<svg width="278" height="603" viewBox="0 0 278 603" fill="none" xmlns="http://www.w3.org/2000/svg">
<rect width="278" height="602.002" fill="#D9D9D9"/>
<rect x="15" y="20.9648" width="124" height="19.9669" fill="#BCBBBB"/>
<rect x="15" y="56.9062" width="175" height="39.9338" fill="#BCBBBB"/>
<rect x="15" y="122.797" width="248" height="90.8493" fill="#BCBBBB"/>
<rect x="51" y="444.264" width="171" height="19.9669" fill="#BCBBBB"/>
<rect y="536.111" width="278" height="66.8891" fill="#BCBBBB"/>
<rect x="15" y="230.617" width="248" height="91.8477" fill="#BCBBBB"/>
<rect x="15" y="338.439" width="248" height="91.8477" fill="#BCBBBB"/>
<line y1="-0.5" x2="262.289" y2="-0.5" transform="matrix(0.936854 -0.349722 0.35074 0.936473 16.6045 214.01)" stroke="black"/>
<line y1="-0.5" x2="262.289" y2="-0.5" transform="matrix(0.936854 -0.349722 0.35074 0.936473 15.1797 322.094)" stroke="black"/>
<line y1="-0.5" x2="262.289" y2="-0.5" transform="matrix(0.936854 -0.349722 0.35074 0.936473 15.1797 430.176)" stroke="black"/>
<line y1="-0.5" x2="263.624" y2="-0.5" transform="matrix(0.937513 0.347951 -0.348965 0.937136 15.1797 122.281)" stroke="black"/>
<line y1="-0.5" x2="263.624" y2="-0.5" transform="matrix(0.937513 0.347951 -0.348965 0.937136 14.4678 230.363)" stroke="black"/>
<line y1="-0.5" x2="263.624" y2="-0.5" transform="matrix(0.937513 0.347951 -0.348965 0.937136 15.1797 338.447)" stroke="black"/>
</svg>
