<svg width="278" height="603" viewBox="0 0 278 603" fill="none" xmlns="http://www.w3.org/2000/svg">
<rect width="278" height="603" fill="#D9D9D9"/>
<rect x="15" y="60" width="247" height="73" fill="#BCBBBB"/>
<rect x="22" y="66" width="62" height="60" fill="#909090"/>
<rect y="554" width="278" height="49" fill="#BCBBBB"/>
<rect x="167" y="393" width="95" height="21" fill="#BCBBBB"/>
<rect x="15" y="185" width="247" height="197" fill="#BCBBBB"/>
<rect x="15" y="144" width="174" height="23" fill="#BCBBBB"/>
<rect x="15" y="24" width="124" height="19" fill="#BCBBBB"/>
<rect x="15" y="463" width="247" height="73" fill="#BCBBBB"/>
<rect x="22" y="469" width="96" height="60" fill="#909090"/>
<rect x="160" y="469" width="95" height="60" fill="#909090"/>
<line x1="23.1577" y1="124.996" x2="83.6991" y2="66.5911" stroke="black"/>
<line x1="23.1401" y1="66.5913" x2="83.6814" y2="124.996" stroke="black"/>
<line x1="16.0695" y1="379.953" x2="260.371" y2="185.508" stroke="black"/>
<line x1="15.9805" y1="184.794" x2="260.995" y2="379.951" stroke="black"/>
<line x1="24.6685" y1="526.637" x2="115.837" y2="471.082" stroke="black"/>
<line x1="23.7669" y1="469.66" x2="116.36" y2="526.64" stroke="black"/>
<line x1="159.997" y1="527.35" x2="252.59" y2="471.082" stroke="black"/>
<line x1="160.521" y1="469.662" x2="253.114" y2="527.354" stroke="black"/>
</svg>
