<svg width="746" height="193" viewBox="0 0 746 193" fill="none" xmlns="http://www.w3.org/2000/svg">
<path d="M2 115.607C26.4394 137.474 79 188 114.5 191.5C154.529 191.5 212.472 191.386 246.382 165.549C261.53 154.008 266.656 124.085 247.58 115.607C219.228 103.006 205.353 180.76 250.694 180.76C262.75 180.76 274.807 180.76 286.863 180.76C305.908 180.76 321.523 174.26 339.321 168.783C361.134 162.071 383.504 154.179 402.677 140.997C432.913 120.21 461.578 90.2163 499.808 90.2163" stroke="black" stroke-width="3" stroke-linecap="round"/>
<path d="M469.001 22.5602C469.001 18.9031 465.146 14.4816 461.154 16.2285C457.971 17.6207 456.524 24.1279 455.529 27.0733C453.963 31.71 454.113 37.6594 454.519 42.5321C454.943 47.6266 458.158 53.3593 460.783 57.6542C462.375 60.2594 465.073 59.8393 467.788 58.934C474.021 56.8565 475.54 48.8865 478.094 43.7783" stroke="black" stroke-width="3" stroke-linecap="round"/>
<path d="M484.763 35.291C482.001 35.291 480.141 34.8135 478.835 37.7159C477.852 39.8999 478.701 43.9935 478.701 46.4726C478.701 49.0538 479.855 56.8577 483.416 51.1877C485.59 47.7242 486.708 43.5506 487.154 39.5346C487.269 38.5009 486.935 37.2378 487.221 36.234C487.436 35.4849 489.096 39.9029 489.276 40.4439C490.214 43.2594 490.792 45.6197 492.071 48.3923C493.138 50.7035 495.544 54.0015 498.504 53.6463C504.481 52.9291 504.162 46.9811 504.162 42.5658" stroke="black" stroke-width="3" stroke-linecap="round"/>
<path d="M497.494 36.5035C497.879 38.239 502.211 38.1764 503.219 37.076C504.917 35.2237 504.938 33.8544 505.678 37.1097C507.083 43.2946 505.981 50.766 505.981 57.1153C505.981 59.6525 505.981 62.1897 505.981 64.7269C505.981 65.7984 505.682 72.0307 505.408 67.9264C504.93 60.7484 505.375 53.4051 505.375 46.2032C505.375 42.251 506.332 38.9317 508.439 35.5942C510.725 31.9747 517.414 34.0694 517.499 38.3222C517.539 40.3297 517.499 42.3428 517.499 44.3508C517.499 47.0323 515.46 47.2196 514.165 49.2343C512.75 51.4355 508.793 51.8705 507.496 49.5374C506.724 48.1474 507.433 45.6263 508.743 44.856C510.518 43.8116 512.74 45.1536 514.603 45.7317C517.587 46.6578 522.146 47.7103 525.043 45.8664C528.505 43.6639 535.998 32.2599 527.502 32.2599C524.242 32.2599 524.168 38.0546 524.168 40.1409C524.168 41.8669 524.029 43.6135 524.471 45.2938C524.662 46.0198 525.793 48.9313 526.323 49.2343C528.668 50.574 529.71 51.053 532.655 51.053C533.912 51.053 539.161 49.4563 537.505 48.6281" stroke="black" stroke-width="3" stroke-linecap="round"/>
<path d="M552.054 17.1041C562.006 17.1041 572.379 16.7851 579.874 9.29051C581.285 7.87902 582.366 6.60746 582.366 4.50802C582.366 1.18148 576.743 7.6456 576.371 8.21276C572.526 14.0754 572.269 22.7765 571.757 29.4308C571.564 31.9431 570.743 45.3275 575.967 45.3275C581.668 45.3275 584.476 30.4412 582.231 30.4412C579.284 30.4412 577.91 48.6314 589.641 44.856C597.215 42.4182 598.257 32.2616 599.61 25.6924C600.095 23.3346 599.851 20.9719 600.081 18.586C600.279 16.5364 601.102 14.5702 601.159 12.5237C601.233 9.85357 601.604 6.66944 601.125 4.03651C600.087 -1.6758 596.955 6.22122 596.915 8.34748C596.808 14.1619 596.501 20.3052 597.286 26.0629C597.89 30.4915 599.456 31.9694 603.719 31.6537C605.316 31.5353 608.158 27.4865 608.063 27.8479C606.994 31.9104 607.221 35.9619 607.221 40.1409C607.221 42.3181 609.897 44.6601 612.071 43.5088C614.693 42.1208 615.337 36.1455 615.675 33.4387C615.856 31.9883 613.588 26.9823 612.071 26.8038C609.675 26.522 608.38 29.2992 609.747 31.3505C612.264 35.1259 622.726 29.0959 624.533 26.3323C625.379 25.0386 624.802 25.7949 624.802 27.4437C624.802 30.5797 624.73 33.5001 626.015 36.4361C627.872 40.6814 629.311 41.6578 634.03 41.3533C639.199 41.0199 639.352 33.0573 639.352 29.6329C639.352 28.6261 639.972 25.6745 638.476 25.5914C637.071 25.5133 634.081 25.035 632.818 25.8608C631.709 26.5857 630.399 30.8487 631.807 31.6537C641.477 37.1793 652.689 15.8404 652.689 8.34748C652.689 7.19321 653.049 4.90142 652.082 4.03651C650.504 2.62457 647.592 8.21013 647.367 9.22315C646.254 14.2323 646.02 19.8 646.02 24.9178C646.02 28.5366 644.393 39.9238 648.445 41.6901C654.024 44.1221 656.033 35.0761 658.145 32.2599" stroke="black" stroke-width="3" stroke-linecap="round"/>
<path d="M666.632 26.1976C666.632 23.9245 661.484 24.7144 660.637 26.1976C659.155 28.7905 659.111 31.2061 659.829 34.0785C660.447 36.5514 661.646 38.3037 663.028 40.3766C664.774 42.995 667.746 33.5865 667.878 32.5966C667.998 31.7006 669.277 27.1276 669.663 27.9489C670.635 30.0142 670.554 36.5035 673.907 36.5035C677.615 36.5035 677 31.9922 678.184 29.2287C678.524 28.4353 681.283 23.4856 682.057 26.0292C682.356 27.0129 682.788 39.602 681.788 39.602C680.188 39.602 683.297 27.5577 683.943 26.2649C684.776 24.5994 688.035 24.398 689.534 25.1198C691.192 25.918 691.282 30.6059 691.959 32.2599C692.21 32.8738 692.094 34.6173 692.094 32.7314C692.094 29.0554 692.153 27.1887 693.912 24.1094C695.108 22.0161 697.975 32.1486 698.122 33.4723C699.109 42.3493 702.057 29.4001 704.824 28.0162" stroke="black" stroke-width="3" stroke-linecap="round"/>
<path d="M714.524 24.9851C714.385 23.5961 713.052 22.1016 711.628 21.9877C708.207 21.714 706.684 22.9293 706.037 26.1639C705.265 30.0249 704.293 37.5644 709.439 39.1305C716.096 41.1566 716.829 29.6829 716.949 25.5914C717.035 22.6745 718.797 30.8189 719.037 31.6537C719.901 34.6549 723.257 39.9358 726.514 36.2341C729.926 32.3565 730.286 26.6837 730.286 21.7856C730.286 17.431 730.976 31.9597 734.799 34.0449C740.613 37.2159 744.229 33.2881 744.229 27.41" stroke="black" stroke-width="3" stroke-linecap="round"/>
<path d="M729.074 10.4355C729.074 9.07392 727.224 5.68398 728.232 4.67636C729.489 3.41843 733.049 3.20576 734.193 4.67636C737 8.28614 732.536 11.9878 729.343 11.0755C726.85 10.3632 720.975 2.75224 718.902 7.67383C718.001 9.81407 722.066 12.7129 723.617 13.4667C725.856 14.5542 728.659 14.2111 730.892 13.4667" stroke="black" stroke-width="3" stroke-linecap="round"/>
</svg>
