<svg width="430" height="37" viewBox="0 0 430 37" fill="none" xmlns="http://www.w3.org/2000/svg">
<path d="M9.88 29.48C8.22667 29.48 6.69333 29.2133 5.28 28.68C3.86667 28.1467 2.73333 27.28 1.88 26.08C1.05333 24.88 0.64 23.2667 0.64 21.24C0.64 21.1067 0.64 20.96 0.64 20.8C0.666667 20.6133 0.68 20.4933 0.68 20.44H4.32C4.32 20.4667 4.30667 20.5867 4.28 20.8C4.28 20.9867 4.28 21.1467 4.28 21.28C4.28 22.96 4.8 24.2133 5.84 25.04C6.88 25.84 8.17333 26.24 9.72 26.24C11.56 26.24 12.9733 25.8533 13.96 25.08C14.9733 24.28 15.48 23.1467 15.48 21.68C15.48 20.6933 15.2133 19.8933 14.68 19.28C14.1733 18.6667 13.4933 18.16 12.64 17.76C11.8133 17.36 10.8933 17 9.88 16.68C8.86667 16.36 7.84 16.0133 6.8 15.64C5.78667 15.2667 4.85333 14.7867 4 14.2C3.17333 13.6133 2.49333 12.8667 1.96 11.96C1.45333 11.0267 1.2 9.85333 1.2 8.44C1.2 6.76 1.58667 5.37333 2.36 4.28C3.16 3.18667 4.21333 2.38667 5.52 1.88C6.85333 1.34667 8.32 1.08 9.92 1.08C11.52 1.08 12.96 1.34667 14.24 1.88C15.5467 2.38667 16.5867 3.21333 17.36 4.36C18.1333 5.48 18.52 6.96 18.52 8.8V9.28H14.88V8.68C14.88 7.26667 14.4133 6.18666 13.48 5.44C12.5467 4.69333 11.3867 4.32 10 4.32C8.56 4.32 7.34667 4.62666 6.36 5.24C5.4 5.85333 4.92 6.82667 4.92 8.16C4.92 9.09333 5.17333 9.85333 5.68 10.44C6.21333 11.0267 6.89333 11.52 7.72 11.92C8.57333 12.2933 9.50667 12.64 10.52 12.96C11.5333 13.28 12.5467 13.6267 13.56 14C14.5733 14.3733 15.4933 14.8533 16.32 15.44C17.1733 16.0267 17.8533 16.7733 18.36 17.68C18.8933 18.56 19.16 19.6933 19.16 21.08C19.16 23.1333 18.7467 24.7733 17.92 26C17.12 27.2267 16.0267 28.12 14.64 28.68C13.2533 29.2133 11.6667 29.48 9.88 29.48ZM28.475 29.48C26.9017 29.48 25.635 29.0133 24.675 28.08C23.7417 27.12 23.275 25.4667 23.275 23.12V7.96H26.555V22.88C26.555 24.3467 26.8217 25.3333 27.355 25.84C27.915 26.32 28.635 26.56 29.515 26.56C30.555 26.56 31.4617 26.0533 32.235 25.04C33.035 24.0267 33.435 22.6133 33.435 20.8V7.96H36.715V29H34.235L33.795 26.56H33.555C32.9683 27.6 32.235 28.3467 31.355 28.8C30.475 29.2533 29.515 29.48 28.475 29.48ZM49.2372 29.48C48.2772 29.48 47.3972 29.24 46.5972 28.76C45.7972 28.2533 45.1439 27.52 44.6372 26.56H44.4372L43.9972 29H41.5172V0.079998H44.7972V9.96H44.9972C45.3705 9.18667 45.9572 8.58667 46.7572 8.16C47.5572 7.70667 48.4639 7.48 49.4772 7.48C50.6505 7.48 51.7039 7.86667 52.6372 8.64C53.5972 9.38667 54.3572 10.5733 54.9172 12.2C55.4772 13.8 55.7572 15.88 55.7572 18.44C55.7572 22.3067 55.1705 25.12 53.9972 26.88C52.8239 28.6133 51.2372 29.48 49.2372 29.48ZM48.5572 26.56C49.8105 26.56 50.7439 26 51.3572 24.88C51.9972 23.7333 52.3172 21.8533 52.3172 19.24V17.72C52.3172 15.1067 51.9972 13.24 51.3572 12.12C50.7439 10.9733 49.8105 10.4 48.5572 10.4C47.3039 10.4 46.3572 11.0267 45.7172 12.28C45.1039 13.5333 44.7972 15.4 44.7972 17.88V19.24C44.7972 21.6667 45.1039 23.4933 45.7172 24.72C46.3572 25.9467 47.3039 26.56 48.5572 26.56ZM59.7594 29V0.079998H63.0394V10.16H63.2794C63.8127 9.22667 64.466 8.54667 65.2394 8.12C66.0394 7.69333 66.9594 7.48 67.9994 7.48C69.5727 7.48 70.826 7.96 71.7594 8.92C72.7194 9.85333 73.1994 11.4933 73.1994 13.84V29H69.9194V14.08C69.9194 12.6133 69.6394 11.64 69.0794 11.16C68.546 10.6533 67.8394 10.4 66.9594 10.4C65.9194 10.4 64.9994 10.9067 64.1994 11.92C63.426 12.9333 63.0394 14.3467 63.0394 16.16V29H59.7594ZM85.2416 29.48C82.6282 29.48 80.6416 28.6267 79.2816 26.92C77.9482 25.1867 77.2816 22.3733 77.2816 18.48C77.2816 14.6933 77.9349 11.92 79.2416 10.16C80.5749 8.37333 82.5616 7.48 85.2016 7.48C87.4949 7.48 89.2149 8.25333 90.3616 9.8C91.5349 11.32 92.1216 13.84 92.1216 17.36V19.44H80.7216C80.7482 21.8933 81.1349 23.6933 81.8816 24.84C82.6282 25.9867 83.7749 26.56 85.3216 26.56C86.3616 26.56 87.2149 26.1467 87.8816 25.32C88.5482 24.4667 88.8816 23.3067 88.8816 21.84H92.1216C92.1216 24.1867 91.4816 26.0533 90.2016 27.44C88.9482 28.8 87.2949 29.48 85.2416 29.48ZM80.7616 16.52H88.6816C88.6816 14.52 88.3882 13 87.8016 11.96C87.2149 10.92 86.3482 10.4 85.2016 10.4C83.7349 10.4 82.6549 10.92 81.9616 11.96C81.2949 12.9733 80.8949 14.4933 80.7616 16.52ZM100.724 29.48C100.217 29.48 99.6438 29.4 99.0038 29.24C98.3638 29.1067 97.7504 28.84 97.1638 28.44C96.6038 28.0133 96.1371 27.4133 95.7638 26.64C95.3904 25.8667 95.2038 24.84 95.2038 23.56C95.2038 21.6133 95.6571 20.1467 96.5638 19.16C97.4971 18.1467 98.7638 17.4533 100.364 17.08C101.99 16.7067 103.817 16.52 105.844 16.52V13.8C105.844 12.7867 105.617 11.9733 105.164 11.36C104.737 10.72 103.857 10.4 102.524 10.4C101.297 10.4 100.444 10.76 99.9638 11.48C99.5104 12.1733 99.2838 12.92 99.2838 13.72V14.2H96.0438C96.0171 14.0667 96.0038 13.9333 96.0038 13.8C96.0038 13.6667 96.0038 13.5067 96.0038 13.32C96.0038 11.4 96.6304 9.94667 97.8838 8.96C99.1638 7.97333 100.79 7.48 102.764 7.48C104.897 7.48 106.484 8 107.524 9.04C108.59 10.0533 109.124 11.4933 109.124 13.36V25.16C109.124 25.6667 109.244 26.0267 109.484 26.24C109.724 26.4533 109.977 26.56 110.244 26.56H111.524V28.84C111.337 28.9467 111.057 29.0533 110.684 29.16C110.337 29.2667 109.897 29.32 109.364 29.32C108.51 29.32 107.79 29.08 107.204 28.6C106.644 28.12 106.257 27.4933 106.044 26.72H105.844C105.31 27.5733 104.59 28.2533 103.684 28.76C102.804 29.24 101.817 29.48 100.724 29.48ZM101.484 26.56C102.177 26.56 102.857 26.3733 103.524 26C104.19 25.6 104.737 25.0133 105.164 24.24C105.617 23.4667 105.844 22.5067 105.844 21.36V19.44C104.404 19.44 103.137 19.5467 102.044 19.76C100.977 19.9467 100.137 20.32 99.5238 20.88C98.9371 21.44 98.6438 22.2667 98.6438 23.36C98.6438 24.56 98.8838 25.4 99.3638 25.88C99.8704 26.3333 100.577 26.56 101.484 26.56ZM120.206 29.48C118.206 29.48 116.619 28.6133 115.446 26.88C114.273 25.12 113.686 22.3067 113.686 18.44C113.686 15.88 113.966 13.8 114.526 12.2C115.086 10.5733 115.846 9.38667 116.806 8.64C117.766 7.86667 118.819 7.48 119.966 7.48C120.979 7.48 121.886 7.70667 122.686 8.16C123.513 8.58667 124.099 9.18667 124.446 9.96H124.646V0.079998H127.926V29H125.446L125.006 26.56H124.806C124.299 27.52 123.646 28.2533 122.846 28.76C122.046 29.24 121.166 29.48 120.206 29.48ZM120.886 26.56C122.139 26.56 123.073 25.9467 123.686 24.72C124.326 23.4933 124.646 21.6667 124.646 19.24V17.88C124.646 15.4 124.326 13.5333 123.686 12.28C123.073 11.0267 122.139 10.4 120.886 10.4C119.633 10.4 118.686 10.9733 118.046 12.12C117.433 13.24 117.126 15.1067 117.126 17.72V19.24C117.126 21.8533 117.433 23.7333 118.046 24.88C118.686 26 119.633 26.56 120.886 26.56ZM133.834 29V7.96H137.114V29H133.834ZM133.754 3.88V0.079998H137.154V3.88H133.754ZM142.416 29V7.96H144.896L145.336 10.4H145.576C146.162 9.36 146.896 8.61333 147.776 8.16C148.656 7.70667 149.616 7.48 150.656 7.48C152.229 7.48 153.482 7.96 154.416 8.92C155.376 9.85333 155.856 11.4933 155.856 13.84V29H152.576V14.08C152.576 12.6133 152.296 11.64 151.736 11.16C151.202 10.6533 150.496 10.4 149.616 10.4C148.576 10.4 147.656 10.9067 146.856 11.92C146.082 12.9333 145.696 14.3467 145.696 16.16V29H142.416ZM163.978 36.28C162.271 36.28 160.978 35.7867 160.098 34.8C159.218 33.84 158.778 32.6667 158.778 31.28C158.778 30.2667 159.018 29.3467 159.498 28.52C160.004 27.6933 160.671 27.12 161.498 26.8C160.964 26.4533 160.538 26 160.218 25.44C159.924 24.8533 159.778 24.2533 159.778 23.64C159.778 22.7867 160.044 22.0533 160.578 21.44C161.138 20.8 161.858 20.32 162.738 20C161.991 19.3867 161.391 18.6267 160.938 17.72C160.511 16.7867 160.298 15.7333 160.298 14.56C160.298 12.3467 160.911 10.6133 162.138 9.36C163.364 8.10667 165.044 7.48 167.178 7.48C168.271 7.48 169.284 7.73333 170.218 8.24C171.151 7.73333 171.791 7.16 172.138 6.52C172.484 5.88 172.711 5.22667 172.818 4.56H175.698C175.698 5.81333 175.378 6.89333 174.738 7.8C174.124 8.70667 173.271 9.30667 172.178 9.6C172.764 10.1867 173.218 10.9067 173.538 11.76C173.884 12.5867 174.058 13.52 174.058 14.56C174.058 16.7467 173.444 18.4667 172.218 19.72C171.018 20.9733 169.391 21.6133 167.338 21.64H165.138C164.604 21.64 164.151 21.8267 163.778 22.2C163.404 22.5467 163.218 22.9867 163.218 23.52C163.218 24.0267 163.404 24.4667 163.778 24.84C164.178 25.2133 164.631 25.4 165.138 25.4H171.138C172.658 25.4 173.858 25.8933 174.738 26.88C175.644 27.84 176.098 28.9867 176.098 30.32C176.098 31.4133 175.858 32.4133 175.378 33.32C174.924 34.2267 174.231 34.9467 173.298 35.48C172.391 36.0133 171.271 36.28 169.938 36.28H163.978ZM164.498 33.44H170.298C170.991 33.44 171.578 33.1867 172.058 32.68C172.538 32.2 172.778 31.6267 172.778 30.96C172.778 30.2667 172.578 29.68 172.178 29.2C171.778 28.7467 171.151 28.52 170.298 28.52H164.498C163.671 28.52 163.058 28.7467 162.658 29.2C162.258 29.68 162.058 30.2667 162.058 30.96C162.058 31.6267 162.258 32.2 162.658 32.68C163.058 33.1867 163.671 33.44 164.498 33.44ZM167.138 18.92C168.311 18.92 169.204 18.5333 169.818 17.76C170.431 16.96 170.738 15.8933 170.738 14.56C170.738 13.1467 170.431 12.0667 169.818 11.32C169.204 10.5733 168.311 10.2 167.138 10.2C165.991 10.2 165.111 10.6 164.498 11.4C163.884 12.1733 163.578 13.2267 163.578 14.56C163.578 15.9467 163.884 17.0267 164.498 17.8C165.111 18.5467 165.991 18.92 167.138 18.92ZM186.002 20.16V16.24H196.082V20.16H186.002ZM203.804 29L212.524 1.56H217.044L225.764 29H221.964L220.084 22.88H209.204L207.324 29H203.804ZM210.164 19.68H219.084L215.364 7.48C215.284 7.16 215.19 6.76 215.084 6.28C214.977 5.8 214.884 5.37333 214.804 5C214.75 4.62667 214.724 4.44 214.724 4.44H214.564C214.564 4.44 214.524 4.64 214.444 5.04C214.39 5.41333 214.31 5.84 214.204 6.32C214.124 6.8 214.03 7.18667 213.924 7.48L210.164 19.68ZM228.119 29V7.96H230.599L231.039 10.72H231.279C231.545 9.92 231.959 9.18667 232.519 8.52C233.079 7.82667 233.852 7.48 234.839 7.48C235.292 7.48 235.665 7.53333 235.959 7.64C236.252 7.74667 236.399 7.8 236.399 7.8V11.2H235.319C234.625 11.2 233.972 11.36 233.359 11.68C232.772 11.9733 232.292 12.48 231.919 13.2C231.572 13.92 231.399 14.9067 231.399 16.16V29H228.119ZM245.296 29.48C242.816 29.48 240.99 28.6 239.816 26.84C238.67 25.0533 238.096 22.2667 238.096 18.48C238.096 14.6933 238.683 11.92 239.856 10.16C241.03 8.37333 242.843 7.48 245.296 7.48C247.59 7.48 249.23 8.18667 250.216 9.6C251.23 11.0133 251.736 13.0667 251.736 15.76H248.336C248.336 13.9467 248.123 12.6 247.696 11.72C247.27 10.84 246.47 10.4 245.296 10.4C243.99 10.4 243.03 11.0133 242.416 12.24C241.83 13.4667 241.536 15.2933 241.536 17.72V19.24C241.536 21.6667 241.83 23.4933 242.416 24.72C243.03 25.9467 243.99 26.56 245.296 26.56C246.47 26.56 247.296 26.1067 247.776 25.2C248.256 24.2667 248.496 22.9333 248.496 21.2H251.736C251.736 22.6667 251.523 24.0267 251.096 25.28C250.67 26.5333 249.976 27.5467 249.016 28.32C248.083 29.0933 246.843 29.48 245.296 29.48ZM255.463 29V0.079998H258.743V10.16H258.983C259.516 9.22667 260.169 8.54667 260.943 8.12C261.743 7.69333 262.663 7.48 263.703 7.48C265.276 7.48 266.529 7.96 267.463 8.92C268.423 9.85333 268.903 11.4933 268.903 13.84V29H265.623V14.08C265.623 12.6133 265.343 11.64 264.783 11.16C264.249 10.6533 263.543 10.4 262.663 10.4C261.623 10.4 260.703 10.9067 259.903 11.92C259.129 12.9333 258.743 14.3467 258.743 16.16V29H255.463ZM274.225 29V7.96H277.505V29H274.225ZM274.145 3.88V0.079998H277.545V3.88H274.145ZM286.846 29L280.806 7.96H284.406L287.246 18.64C287.38 19.0667 287.5 19.5067 287.606 19.96C287.74 20.4133 287.86 20.8667 287.966 21.32C288.1 21.7467 288.22 22.1867 288.326 22.64C288.46 23.0667 288.58 23.5067 288.686 23.96H288.846C288.98 23.5067 289.1 23.0533 289.206 22.6C289.34 22.1467 289.46 21.6933 289.566 21.24C289.7 20.7867 289.82 20.3333 289.926 19.88C290.06 19.4267 290.18 18.9733 290.286 18.52L293.126 7.96H296.446L290.406 29H286.846ZM305.933 29.48C303.479 29.48 301.613 28.6 300.333 26.84C299.053 25.0533 298.413 22.2667 298.413 18.48C298.413 14.6933 299.053 11.92 300.333 10.16C301.613 8.37333 303.479 7.48 305.933 7.48C308.386 7.48 310.253 8.37333 311.533 10.16C312.813 11.92 313.453 14.6933 313.453 18.48C313.453 22.2667 312.813 25.0533 311.533 26.84C310.253 28.6 308.386 29.48 305.933 29.48ZM305.933 26.56C307.293 26.56 308.306 25.9467 308.973 24.72C309.666 23.4933 310.013 21.6667 310.013 19.24V17.72C310.013 15.2933 309.666 13.4667 308.973 12.24C308.306 11.0133 307.293 10.4 305.933 10.4C304.573 10.4 303.546 11.0133 302.853 12.24C302.186 13.4667 301.853 15.2933 301.853 17.72V19.24C301.853 21.6667 302.186 23.4933 302.853 24.72C303.546 25.9467 304.573 26.56 305.933 26.56ZM326.956 29V1.56H329.996L340.196 18.8C340.41 19.1467 340.636 19.6133 340.876 20.2C341.143 20.7867 341.37 21.32 341.556 21.8C341.77 22.2533 341.876 22.48 341.876 22.48L341.996 22.44C341.996 22.44 341.983 22.2 341.956 21.72C341.956 21.24 341.943 20.7067 341.916 20.12C341.89 19.5333 341.876 19.0933 341.876 18.8V1.56H345.036V29H342.116L331.836 11.52C331.623 11.12 331.37 10.64 331.076 10.08C330.81 9.49333 330.57 8.97333 330.356 8.52C330.17 8.06667 330.076 7.84 330.076 7.84L329.956 7.88C329.956 7.88 329.97 8.10667 329.996 8.56C330.023 9.01333 330.05 9.53333 330.076 10.12C330.103 10.68 330.116 11.1467 330.116 11.52V29H326.956ZM354.708 29.48C354.201 29.48 353.628 29.4 352.988 29.24C352.348 29.1067 351.735 28.84 351.148 28.44C350.588 28.0133 350.121 27.4133 349.748 26.64C349.375 25.8667 349.188 24.84 349.188 23.56C349.188 21.6133 349.641 20.1467 350.548 19.16C351.481 18.1467 352.748 17.4533 354.348 17.08C355.975 16.7067 357.801 16.52 359.828 16.52V13.8C359.828 12.7867 359.601 11.9733 359.148 11.36C358.721 10.72 357.841 10.4 356.508 10.4C355.281 10.4 354.428 10.76 353.948 11.48C353.495 12.1733 353.268 12.92 353.268 13.72V14.2H350.028C350.001 14.0667 349.988 13.9333 349.988 13.8C349.988 13.6667 349.988 13.5067 349.988 13.32C349.988 11.4 350.615 9.94667 351.868 8.96C353.148 7.97333 354.775 7.48 356.748 7.48C358.881 7.48 360.468 8 361.508 9.04C362.575 10.0533 363.108 11.4933 363.108 13.36V25.16C363.108 25.6667 363.228 26.0267 363.468 26.24C363.708 26.4533 363.961 26.56 364.228 26.56H365.508V28.84C365.321 28.9467 365.041 29.0533 364.668 29.16C364.321 29.2667 363.881 29.32 363.348 29.32C362.495 29.32 361.775 29.08 361.188 28.6C360.628 28.12 360.241 27.4933 360.028 26.72H359.828C359.295 27.5733 358.575 28.2533 357.668 28.76C356.788 29.24 355.801 29.48 354.708 29.48ZM355.468 26.56C356.161 26.56 356.841 26.3733 357.508 26C358.175 25.6 358.721 25.0133 359.148 24.24C359.601 23.4667 359.828 22.5067 359.828 21.36V19.44C358.388 19.44 357.121 19.5467 356.028 19.76C354.961 19.9467 354.121 20.32 353.508 20.88C352.921 21.44 352.628 22.2667 352.628 23.36C352.628 24.56 352.868 25.4 353.348 25.88C353.855 26.3333 354.561 26.56 355.468 26.56ZM368.47 29V7.96H370.95L371.39 10.72H371.63C371.897 9.92 372.31 9.18667 372.87 8.52C373.43 7.82667 374.204 7.48 375.19 7.48C375.644 7.48 376.017 7.53333 376.31 7.64C376.604 7.74667 376.75 7.8 376.75 7.8V11.2H375.67C374.977 11.2 374.324 11.36 373.71 11.68C373.124 11.9733 372.644 12.48 372.27 13.2C371.924 13.92 371.75 14.9067 371.75 16.16V29H368.47ZM379.408 29V7.96H381.888L382.328 10.72H382.568C382.834 9.92 383.248 9.18667 383.808 8.52C384.368 7.82667 385.141 7.48 386.128 7.48C386.581 7.48 386.954 7.53333 387.248 7.64C387.541 7.74667 387.688 7.8 387.688 7.8V11.2H386.608C385.914 11.2 385.261 11.36 384.648 11.68C384.061 11.9733 383.581 12.48 383.208 13.2C382.861 13.92 382.688 14.9067 382.688 16.16V29H379.408ZM397.065 29.48C394.612 29.48 392.745 28.6 391.465 26.84C390.185 25.0533 389.545 22.2667 389.545 18.48C389.545 14.6933 390.185 11.92 391.465 10.16C392.745 8.37333 394.612 7.48 397.065 7.48C399.519 7.48 401.385 8.37333 402.665 10.16C403.945 11.92 404.585 14.6933 404.585 18.48C404.585 22.2667 403.945 25.0533 402.665 26.84C401.385 28.6 399.519 29.48 397.065 29.48ZM397.065 26.56C398.425 26.56 399.439 25.9467 400.105 24.72C400.799 23.4933 401.145 21.6667 401.145 19.24V17.72C401.145 15.2933 400.799 13.4667 400.105 12.24C399.439 11.0133 398.425 10.4 397.065 10.4C395.705 10.4 394.679 11.0133 393.985 12.24C393.319 13.4667 392.985 15.2933 392.985 17.72V19.24C392.985 21.6667 393.319 23.4933 393.985 24.72C394.679 25.9467 395.705 26.56 397.065 26.56ZM411.467 29L406.228 7.96H409.828L412.468 19.8C412.601 20.36 412.734 21.04 412.868 21.84C413.001 22.6133 413.108 23.3067 413.188 23.92C413.268 24.5067 413.308 24.8 413.308 24.8H413.468C413.468 24.8 413.494 24.5333 413.548 24C413.601 23.4667 413.681 22.8133 413.788 22.04C413.894 21.2667 414.001 20.52 414.108 19.8L416.228 7.96H420.028L422.188 19.8C422.268 20.3333 422.348 20.8933 422.428 21.48C422.508 22.04 422.574 22.5733 422.628 23.08C422.708 23.5867 422.761 24 422.788 24.32C422.814 24.64 422.828 24.8 422.828 24.8H422.988C422.988 24.8 423.001 24.6533 423.028 24.36C423.081 24.0667 423.134 23.68 423.188 23.2C423.268 22.72 423.361 22.1867 423.468 21.6C423.574 20.9867 423.694 20.3867 423.828 19.8L426.468 7.96H429.788L424.548 29H420.908L418.708 17C418.574 16.28 418.454 15.5467 418.348 14.8C418.268 14.0533 418.201 13.4267 418.148 12.92C418.094 12.4133 418.068 12.16 418.068 12.16H417.908C417.908 12.16 417.881 12.4133 417.828 12.92C417.774 13.4267 417.694 14.0533 417.588 14.8C417.508 15.52 417.401 16.2533 417.268 17L415.108 29H411.467Z" fill="black"/>
</svg>
