<svg width="2854" height="257" viewBox="0 0 2854 257" fill="none" xmlns="http://www.w3.org/2000/svg">
<path d="M2810.34 2.125H2634.66C2610.55 2.125 2591 21.5245 2591 45.4551V213.27C2591 237.2 2610.55 256.6 2634.66 256.6H2810.34C2834.45 256.6 2854 237.2 2854 213.27V45.4551C2854 21.5245 2834.45 2.125 2810.34 2.125Z" fill="#49021F"/>
<path d="M2686.51 68.6974V180.228C2686.51 181.396 2685.98 181.98 2684.92 181.98H2663.57C2662.63 181.98 2662.16 181.396 2662.16 180.228V68.6974C2662.16 67.7641 2662.69 67.2972 2663.75 67.2965H2685.1C2685.28 67.2713 2685.46 67.2852 2685.64 67.3372C2685.81 67.3892 2685.97 67.4782 2686.1 67.5978C2686.24 67.7174 2686.35 67.8649 2686.42 68.03C2686.49 68.195 2686.53 68.3737 2686.52 68.5536L2686.51 68.6974ZM2750.81 183.719L2749.67 183.73C2741.55 183.853 2733.51 182.178 2726.12 178.828C2719.24 175.668 2713.49 170.508 2709.62 164.033C2705.72 157.6 2703.72 149.583 2703.63 139.982L2703.62 139.258C2703.56 131.222 2705.63 123.311 2709.62 116.322C2713.63 109.393 2719.47 103.687 2726.52 99.8226L2727.09 99.5127C2734.73 95.3109 2743.97 93.2099 2754.79 93.2099L2755.02 93.211L2755.52 93.2222L2756.1 93.2446L2756.74 93.2772L2757.44 93.3211L2758.21 93.3772L2759.96 93.5189L2760.43 93.5596V59.0689C2760.43 58.2526 2760.79 57.8438 2761.49 57.8424H2783.72C2783.87 57.8219 2784.01 57.835 2784.15 57.8805C2784.29 57.9261 2784.41 58.0028 2784.52 58.1047C2784.62 58.2067 2784.7 58.3309 2784.74 58.4677C2784.79 58.6044 2784.8 58.7499 2784.78 58.8925V162.37C2784.79 164.532 2784.88 166.693 2785.05 168.848L2785.21 171.105L2785.36 173.206L2785.49 175.151C2785.51 175.514 2785.42 175.876 2785.23 176.189C2785.04 176.501 2784.76 176.75 2784.43 176.902C2778.69 179.276 2772.72 181.036 2766.61 182.154C2761.4 183.11 2756.11 183.633 2750.81 183.719M2760.44 162.019V114.22C2759.48 113.964 2758.51 113.788 2757.53 113.695C2756.32 113.575 2755.12 113.516 2753.91 113.52C2749.63 113.478 2745.4 114.438 2741.56 116.322C2737.82 118.167 2734.63 120.942 2732.3 124.376C2729.88 127.877 2728.68 132.488 2728.68 138.208C2728.59 142.024 2729.22 145.823 2730.53 149.413C2731.6 152.305 2733.28 154.934 2735.47 157.117C2737.57 159.126 2740.1 160.625 2742.88 161.494C2745.82 162.437 2748.88 162.91 2751.97 162.896C2753.61 162.896 2755.14 162.837 2756.55 162.72C2757.68 162.635 2758.8 162.451 2759.89 162.169L2760.44 162.019Z" fill="#FF3366"/>
<path d="M2468.31 0H2292.51C2268.38 0 2248.82 19.5615 2248.82 43.6919V212.908C2248.82 237.038 2268.38 256.6 2292.51 256.6H2468.31C2492.44 256.6 2512 237.038 2512 212.908V43.6919C2512 19.5615 2492.44 0 2468.31 0Z" fill="#001E36"/>
<path d="M2308.08 179.944V67.1283C2308.08 66.3051 2308.43 65.8932 2309.14 65.8926L2310.26 65.8895L2312.17 65.8689L2314.82 65.8165L2323.72 65.6283L2333.25 65.4515C2336.6 65.3933 2339.93 65.3638 2343.23 65.3631C2352.17 65.3631 2359.7 66.4813 2365.82 68.7176C2371.35 70.5843 2376.38 73.6603 2380.57 77.7212C2384.11 81.2406 2386.85 85.4875 2388.6 90.1688C2390.25 94.7245 2391.09 99.5349 2391.07 104.38C2391.07 113.798 2388.89 121.566 2384.54 127.685C2380.28 133.655 2374.34 138.22 2367.47 140.799L2366.88 141.015C2359.71 143.689 2351.78 144.655 2343.07 144.716L2341.72 144.72L2339.71 144.71L2338.7 144.695L2337.57 144.669L2336.89 144.642L2336.47 144.62L2335.46 144.583L2334.21 144.558L2332.34 144.544L2331.93 144.543V179.767C2331.96 179.983 2331.94 180.203 2331.87 180.41C2331.8 180.617 2331.68 180.805 2331.53 180.959C2331.38 181.114 2331.19 181.23 2330.98 181.299C2330.77 181.368 2330.55 181.387 2330.34 181.356H2309.32C2308.49 181.357 2308.08 180.886 2308.08 179.944ZM2331.93 87.0785V123.874C2333.46 123.993 2334.87 124.052 2336.16 124.051H2341.99C2346.01 124.037 2350 123.439 2353.85 122.276L2354.61 122.036C2358.11 120.998 2361.24 118.975 2363.62 116.209C2365.83 113.6 2366.98 110.005 2367.06 105.423L2367.06 104.91C2367.15 101.495 2366.27 98.1248 2364.5 95.2001C2362.65 92.3707 2359.96 90.182 2356.82 88.9321C2352.72 87.3362 2348.33 86.5858 2343.93 86.7259L2341.69 86.732L2340.28 86.7444L2338.93 86.7619L2337.03 86.7989L2335.64 86.8379L2334.92 86.8647L2333.96 86.9099L2333.14 86.9603L2332.67 86.9973L2332.27 87.0364L2332.09 87.0569L2331.93 87.0785ZM2459.33 117.184C2456.25 115.602 2452.99 114.413 2449.61 113.645L2448.83 113.477C2445.11 112.624 2441.32 112.155 2437.51 112.075L2436.56 112.064C2434.33 112.003 2432.09 112.271 2429.94 112.859C2428.57 113.165 2427.35 113.947 2426.49 115.065C2425.92 115.96 2425.61 117.002 2425.61 118.067C2425.64 119.099 2426.02 120.092 2426.67 120.891C2427.61 121.987 2428.74 122.905 2430 123.602L2430.38 123.804C2432.9 125.16 2435.49 126.368 2438.15 127.423C2444.07 129.408 2449.73 132.105 2455.01 135.456C2458.6 137.724 2461.57 140.848 2463.66 144.549C2465.41 148.053 2466.29 151.93 2466.22 155.847C2466.32 161.021 2464.85 166.104 2461.98 170.414C2458.92 174.789 2454.66 178.189 2449.71 180.211C2444.53 182.487 2438.17 183.663 2430.63 183.739L2429.85 183.744C2425.18 183.79 2420.51 183.381 2415.91 182.522L2414.93 182.331C2411.06 181.622 2407.3 180.435 2403.72 178.8C2403.36 178.614 2403.06 178.337 2402.84 177.995C2402.62 177.654 2402.5 177.261 2402.48 176.857V157.614C2402.46 157.427 2402.49 157.238 2402.57 157.067C2402.65 156.896 2402.77 156.749 2402.93 156.642C2403.08 156.556 2403.25 156.518 2403.43 156.534C2403.6 156.55 2403.76 156.619 2403.9 156.731C2408.12 159.221 2412.71 161.038 2417.49 162.115C2421.71 163.173 2426.03 163.736 2430.38 163.793C2434.5 163.793 2437.53 163.263 2439.47 162.204C2440.35 161.802 2441.09 161.154 2441.61 160.34C2442.12 159.525 2442.39 158.578 2442.39 157.614C2442.39 156.085 2441.5 154.614 2439.74 153.2C2439 152.608 2437.94 151.964 2436.55 151.268L2435.89 150.943L2435.19 150.611L2434.82 150.442L2434.04 150.099L2433.64 149.924L2432.79 149.57L2432.36 149.39L2431.44 149.025L2430.97 148.84L2429.99 148.463L2428.97 148.08C2423.42 146.152 2418.17 143.479 2413.34 140.135C2409.89 137.735 2407.05 134.561 2405.04 130.866C2403.31 127.387 2402.43 123.543 2402.48 119.655C2402.47 114.984 2403.76 110.401 2406.19 106.414C2408.97 102.024 2412.95 98.5289 2417.67 96.3515C2422.85 93.7635 2429.32 92.4685 2437.09 92.4665C2441.64 92.4299 2446.18 92.7548 2450.68 93.438C2453.94 93.8516 2457.12 94.713 2460.15 95.9978C2460.63 96.1376 2461.02 96.4964 2461.21 96.9693C2461.33 97.4001 2461.38 97.8452 2461.38 98.2934V116.125C2461.41 116.546 2461.21 116.95 2460.85 117.184C2460.62 117.301 2460.36 117.362 2460.09 117.362C2459.83 117.362 2459.57 117.301 2459.33 117.184Z" fill="#31A8FF"/>
<path d="M2127.83 0H1951.76C1927.59 0 1908 19.592 1908 43.76V213.24C1908 237.408 1927.59 257 1951.76 257H2127.83C2152 257 2171.59 237.408 2171.59 213.24V43.76C2171.59 19.592 2152 0 2127.83 0Z" fill="#330000"/>
<path d="M2035.73 154.231H1994.89L1986.57 180.047C1986.46 180.518 1986.19 180.935 1985.8 181.225C1985.41 181.516 1984.94 181.662 1984.45 181.639H1963.76C1962.58 181.639 1962.17 180.99 1962.53 179.693L1997.89 77.8424C1998.24 76.7818 1998.6 75.5737 1998.95 74.218C1999.42 71.8581 1999.65 69.4611 1999.66 67.0568C1999.64 66.8886 1999.65 66.7172 1999.7 66.556C1999.76 66.3948 1999.85 66.2483 1999.97 66.1281C2000.09 66.008 2000.23 65.9174 2000.4 65.8636C2000.56 65.8098 2000.73 65.7942 2000.9 65.8182H2029.01C2029.84 65.8182 2030.31 66.1133 2030.43 66.7037L2070.57 179.87C2070.92 181.051 2070.57 181.64 2069.51 181.639H2046.52C2046.12 181.682 2045.73 181.58 2045.4 181.353C2045.08 181.125 2044.84 180.787 2044.75 180.401L2035.73 154.231ZM2001.25 131.951H2029.19L2028.79 130.637L2028.15 128.555L2027.7 127.092L2026.97 124.79L2025.42 119.944L2024.06 115.647L2020.52 104.455C2019.64 101.672 2018.8 98.8791 2017.99 96.0754L2017.34 93.7999L2016.59 91.1094L2015.44 86.9393L2015.22 86.1537H2015.04C2014.16 90.398 2013.08 94.5998 2011.81 98.7463L2009.19 107.185L2007.75 111.848L2006.29 116.567C2006.03 117.42 2005.76 118.263 2005.5 119.096L2004.72 121.565L2003.94 123.977L2003.17 126.328L2002.4 128.621C2002.14 129.377 2001.89 130.121 2001.63 130.856L2001.25 131.951ZM2094.44 84.5619C2092.63 84.634 2090.83 84.3248 2089.16 83.6545C2087.48 82.9842 2085.97 81.9678 2084.71 80.6719C2083.46 79.3189 2082.49 77.7321 2081.85 76.0025C2081.21 74.2729 2080.92 72.4344 2081 70.5926C2080.93 68.7692 2081.25 66.9528 2081.94 65.262C2082.62 63.5712 2083.66 62.044 2084.97 60.7801C2087.51 58.3436 2090.89 56.98 2094.41 56.9735L2094.79 56.9776C2099.03 56.9776 2102.36 58.2448 2104.78 60.7791C2106 62.0962 2106.95 63.641 2107.57 65.3249C2108.19 67.0089 2108.48 68.7989 2108.4 70.5926C2108.48 72.4419 2108.18 74.2874 2107.53 76.0191C2106.88 77.7509 2105.88 79.3335 2104.6 80.6729C2103.31 81.9433 2101.78 82.943 2100.1 83.6132C2098.42 84.2834 2096.62 84.6105 2094.81 84.5752L2094.44 84.5619ZM2082.23 179.87V95.3484C2082.23 94.2872 2082.7 93.7566 2083.65 93.7566H2105.4C2106.34 93.7566 2106.81 94.2872 2106.81 95.3484V179.87C2106.81 181.051 2106.34 181.64 2105.4 181.639H2083.83C2082.82 181.639 2082.29 181.11 2082.24 180.051L2082.23 179.87Z" fill="#FF9A00"/>
<g clip-path="url(#clip0_11_6)">
<path d="M1529.67 257C1553.22 257 1572.33 237.885 1572.33 214.333V171.667H1529.67C1506.11 171.667 1487 190.781 1487 214.333C1487 237.885 1506.11 257 1529.67 257Z" fill="#0ACF83"/>
<path d="M1487 129C1487 105.448 1506.11 86.3333 1529.67 86.3333H1572.33V171.667H1529.67C1506.11 171.667 1487 152.552 1487 129Z" fill="#A259FF"/>
<path d="M1487 43.6667C1487 20.1147 1506.11 1 1529.67 1H1572.33V86.3333H1529.67C1506.11 86.3333 1487 67.2187 1487 43.6667Z" fill="#F24E1E"/>
<path d="M1572.33 1H1615C1638.55 1 1657.67 20.1147 1657.67 43.6667C1657.67 67.2187 1638.55 86.3333 1615 86.3333H1572.33V1Z" fill="#FF7262"/>
<path d="M1657.67 129C1657.67 152.552 1638.55 171.667 1615 171.667C1591.45 171.667 1572.33 152.552 1572.33 129C1572.33 105.448 1591.45 86.3333 1615 86.3333C1638.55 86.3333 1657.67 105.448 1657.67 129Z" fill="#1ABCFE"/>
</g>
<path d="M1042 0H906C872.863 0 846 26.8629 846 60V196C846 229.137 872.863 256 906 256H1042C1075.14 256 1102 229.137 1102 196V60C1102 26.8629 1075.14 0 1042 0Z" fill="#E14E1D"/>
<path d="M894 38L902.61 134.593H1013.32L1009.6 176.023L973.959 185.661L938.38 176.037L936.001 149.435H903.94L908.525 200.716L973.952 218.888L1039.46 200.716L1048.24 102.655H931.824L928.901 69.945H1051.14L1054 38H894Z" fill="white"/>
<path d="M974 38H894L902.61 134.593H974V102.655H931.824L928.901 69.945H974V38ZM974 185.647L973.959 185.661L938.38 176.037L936.001 149.435H903.94L908.525 200.716L973.952 218.888L974.001 218.874L974 185.647Z" fill="#EBEBEB"/>
<path d="M1343 1H1207C1173.86 1 1147 27.8629 1147 61V197C1147 230.137 1173.86 257 1207 257H1343C1376.14 257 1403 230.137 1403 197V61C1403 27.8629 1376.14 1 1343 1Z" fill="#0277BD"/>
<path d="M1200.75 103.651L1203.62 135.593H1275.1V103.651H1200.75ZM1275.1 39H1195L1197.9 70.942H1275.1V39ZM1275.1 219.841V186.608L1274.96 186.645L1239.38 177.04L1237.11 151.564H1205.04L1209.52 201.718L1274.95 219.882L1275.1 219.841Z" fill="#EBEBEB"/>
<path d="M1314.32 135.593L1310.61 177.019L1274.99 186.635V219.866L1340.47 201.718L1340.95 196.321L1348.45 112.229L1349.23 103.651L1355 39H1274.99V70.942H1319.99L1317.09 103.651H1274.99V135.593H1314.32Z" fill="white"/>
<g clip-path="url(#clip1_11_6)">
<path d="M466.916 1.072C402.084 1.072 406.132 29.187 406.132 29.187L406.204 58.315H468.072V67.06H381.631C381.631 67.06 340.145 62.355 340.145 127.77C340.145 193.187 376.355 190.867 376.355 190.867H397.965V160.511C397.965 160.511 396.8 124.301 433.597 124.301H494.959C494.959 124.301 529.434 124.858 529.434 90.982V34.97C529.434 34.97 534.67 1.072 466.916 1.072ZM432.802 20.66C434.264 20.6587 435.712 20.9457 437.063 21.5045C438.414 22.0634 439.641 22.8832 440.675 23.917C441.709 24.9507 442.529 26.1782 443.087 27.5292C443.646 28.8801 443.933 30.328 443.932 31.79C443.933 33.252 443.646 34.6999 443.087 36.0508C442.529 37.4018 441.709 38.6293 440.675 39.663C439.641 40.6968 438.414 41.5166 437.063 42.0755C435.712 42.6343 434.264 42.9213 432.802 42.92C431.34 42.9213 429.892 42.6343 428.541 42.0755C427.19 41.5166 425.963 40.6968 424.929 39.663C423.895 38.6293 423.075 37.4018 422.517 36.0508C421.958 34.6999 421.671 33.252 421.672 31.79C421.671 30.328 421.958 28.8801 422.517 27.5292C423.075 26.1782 423.895 24.9507 424.929 23.917C425.963 22.8832 427.19 22.0634 428.541 21.5045C429.892 20.9457 431.34 20.6587 432.802 20.66Z" fill="url(#paint0_linear_11_6)"/>
<path d="M468.757 255.126C533.589 255.126 529.541 227.011 529.541 227.011L529.469 197.884H467.6V189.139H554.041C554.041 189.139 595.527 193.844 595.527 128.427C595.527 63.011 559.317 65.331 559.317 65.331H537.707V95.686C537.707 95.686 538.872 131.896 502.075 131.896H440.713C440.713 131.896 406.238 131.339 406.238 165.216V221.229C406.238 221.229 401.003 255.126 468.756 255.126M502.87 235.54C501.408 235.541 499.96 235.254 498.609 234.695C497.258 234.137 496.031 233.317 494.997 232.283C493.963 231.249 493.143 230.022 492.585 228.671C492.026 227.32 491.739 225.872 491.74 224.41C491.739 222.948 492.025 221.5 492.584 220.149C493.143 218.798 493.963 217.57 494.997 216.536C496.03 215.502 497.258 214.683 498.609 214.124C499.96 213.565 501.408 213.278 502.87 213.279C504.332 213.278 505.78 213.565 507.131 214.124C508.482 214.682 509.709 215.502 510.743 216.536C511.777 217.57 512.597 218.797 513.155 220.148C513.714 221.499 514.001 222.947 514 224.409C514.001 225.871 513.714 227.319 513.155 228.67C512.597 230.021 511.777 231.248 510.743 232.282C509.709 233.316 508.482 234.136 507.131 234.694C505.78 235.253 504.332 235.541 502.87 235.54Z" fill="url(#paint1_linear_11_6)"/>
</g>
<path d="M196 0H60C26.8629 0 0 26.8629 0 60V196C0 229.137 26.8629 256 60 256H196C229.137 256 256 229.137 256 196V60C256 26.8629 229.137 0 196 0Z" fill="#F0DB4F"/>
<path d="M67.312 213.932L86.902 202.076C90.682 208.777 94.12 214.447 102.367 214.447C110.272 214.447 115.256 211.355 115.256 199.327V117.529H139.314V199.667C139.314 224.584 124.708 235.926 103.398 235.926C84.153 235.926 72.982 225.959 67.311 213.93M152.381 211.354L171.969 200.013C177.126 208.434 183.828 214.62 195.684 214.62C205.653 214.62 212.009 209.636 212.009 202.762C212.009 194.514 205.479 191.592 194.481 186.782L188.468 184.203C171.111 176.815 159.597 167.535 159.597 147.945C159.597 129.901 173.345 116.153 194.826 116.153C210.12 116.153 221.118 121.481 229.022 135.4L210.291 147.429C206.166 140.04 201.7 137.119 194.826 137.119C187.78 137.119 183.312 141.587 183.312 147.429C183.312 154.646 187.78 157.568 198.09 162.037L204.104 164.614C224.553 173.379 236.067 182.313 236.067 202.418C236.067 224.072 219.055 235.928 196.2 235.928C173.861 235.928 159.426 225.274 152.381 211.354Z" fill="#323330"/>
<defs>
<linearGradient id="paint0_linear_11_6" x1="2794.36" y1="2286.14" x2="15450.3" y2="14815.8" gradientUnits="userSpaceOnUse">
<stop stop-color="#387EB8"/>
<stop offset="1" stop-color="#366994"/>
</linearGradient>
<linearGradient id="paint1_linear_11_6" x1="4028.66" y1="3971.32" x2="17619.7" y2="16819.4" gradientUnits="userSpaceOnUse">
<stop stop-color="#FFE052"/>
<stop offset="1" stop-color="#FFC331"/>
</linearGradient>
<clipPath id="clip0_11_6">
<rect width="170.667" height="256" fill="white" transform="translate(1487 1)"/>
</clipPath>
<clipPath id="clip1_11_6">
<rect width="256" height="255" fill="white" transform="translate(340 1)"/>
</clipPath>
</defs>
</svg>
