<svg width="298" height="47" viewBox="0 0 298 47" fill="none" xmlns="http://www.w3.org/2000/svg">
<path d="M35.888 2.672C36.3573 3.22666 36.592 3.80266 36.592 4.4C36.592 4.656 36.5707 4.93333 36.528 5.232C36.528 5.488 36.5067 5.72266 36.464 5.936C36.336 6.40533 36.0587 6.85333 35.632 7.28C35.2907 7.536 34.8213 7.728 34.224 7.856C33.9253 7.94133 33.6267 8.00533 33.328 8.048C33.0293 8.09067 32.7093 8.15467 32.368 8.24C32.0693 8.28266 31.7707 8.304 31.472 8.304C31.1733 8.304 30.8533 8.304 30.512 8.304H27.248C26.48 8.34667 25.712 8.368 24.944 8.368C24.2187 8.368 23.4933 8.368 22.768 8.368C22.8107 9.69066 22.832 11.12 22.832 12.656C22.832 14.1493 22.8107 15.8987 22.768 17.904C22.768 19.9093 22.7467 22.2347 22.704 24.88C22.704 27.5253 22.704 30.5973 22.704 34.096V38.96C22.704 39.3867 22.7253 39.7067 22.768 39.92C22.768 40.0907 22.768 40.2613 22.768 40.432C22.768 40.56 22.7467 40.7307 22.704 40.944C22.6187 41.328 22.5547 41.776 22.512 42.288C22.512 42.5013 22.4907 42.7147 22.448 42.928C22.4053 43.0987 22.3413 43.2907 22.256 43.504C22.0853 43.6747 22 43.8027 22 43.888L21.808 44.272C21.5947 44.6987 21.1893 45.104 20.592 45.488C19.6533 45.9573 18.608 46.064 17.456 45.808C16.7307 45.7227 16.176 45.5307 15.792 45.232C15.408 44.848 15.1307 44.464 14.96 44.08C14.704 43.6107 14.5547 43.1627 14.512 42.736C14.384 42.352 14.32 41.9467 14.32 41.52V8.624C14.064 8.624 13.5307 8.624 12.72 8.624C11.9093 8.624 11.0347 8.624 10.096 8.624C9.2 8.58133 8.34667 8.53866 7.536 8.496C6.72533 8.45333 6.17067 8.41067 5.872 8.368C5.616 8.32533 5.21067 8.26133 4.656 8.176C4.144 8.09066 3.71733 8.00533 3.376 7.92C2.48 7.664 1.776 7.25867 1.264 6.704C0.794667 6.14933 0.56 5.53067 0.56 4.848C0.56 4.592 0.56 4.336 0.56 4.08C0.56 3.824 0.602667 3.58933 0.688 3.376C0.816 2.864 1.15733 2.43733 1.712 2.096C1.88267 1.968 2.13867 1.81867 2.48 1.648C2.864 1.43467 3.22667 1.28533 3.568 1.2C4.08 1.02933 4.72 0.90133 5.488 0.815998C5.82933 0.773332 6.17067 0.751999 6.512 0.751999C6.85333 0.751999 7.216 0.751999 7.6 0.751999C9.09333 0.751999 10.5013 0.751999 11.824 0.751999C13.1893 0.751999 14.6187 0.730666 16.112 0.688C18.5867 0.645331 21.04 0.645331 23.472 0.688C25.9467 0.688 28.4 0.730666 30.832 0.815998C31.3867 0.858664 31.92 0.922665 32.432 1.008C32.944 1.09333 33.456 1.24266 33.968 1.456C34.352 1.584 34.7147 1.75467 35.056 1.968C35.3973 2.13867 35.6747 2.37333 35.888 2.672ZM49.749 21.744C49.749 22.9387 49.749 24.2827 49.749 25.776C49.7917 27.2693 49.813 28.8267 49.813 30.448C49.813 32.0267 49.813 33.6053 49.813 35.184C49.813 36.72 49.7917 38.1493 49.749 39.472C49.7063 40.112 49.6423 40.816 49.557 41.584C49.4717 42.3093 49.301 42.992 49.045 43.632C48.789 44.272 48.3837 44.8053 47.829 45.232C47.317 45.616 46.613 45.7867 45.717 45.744C44.3943 45.6587 43.4343 45.0827 42.837 44.016C42.2823 42.9493 41.9623 41.456 41.877 39.536C41.877 38.5547 41.8557 37.424 41.813 36.144C41.813 34.864 41.7917 33.5627 41.749 32.24C41.749 30.9173 41.749 29.6373 41.749 28.4C41.749 27.12 41.749 25.968 41.749 24.944C41.749 24.3467 41.7277 23.6213 41.685 22.768C41.685 21.9147 41.7063 21.04 41.749 20.144C41.7917 19.248 41.8983 18.3947 42.069 17.584C42.2397 16.7307 42.517 16.0267 42.901 15.472C43.1997 15.1307 43.6263 14.8747 44.181 14.704C44.7357 14.4907 45.3117 14.384 45.909 14.384C46.549 14.384 47.1463 14.4907 47.701 14.704C48.2983 14.9173 48.725 15.216 48.981 15.6C49.1517 15.856 49.2797 16.2187 49.365 16.688C49.4503 17.1573 49.5143 17.6907 49.557 18.288C49.6423 18.8427 49.685 19.44 49.685 20.08C49.7277 20.6773 49.749 21.232 49.749 21.744ZM47.317 8.816C45.9943 9.15733 44.885 9.02933 43.989 8.432C43.1357 7.792 42.6023 6.85333 42.389 5.616C42.2183 4.72 42.2823 3.93067 42.581 3.248C42.8797 2.56533 43.3277 2.05333 43.925 1.712C44.5223 1.328 45.205 1.15733 45.973 1.2C46.741 1.24266 47.509 1.54133 48.277 2.096C49.0023 2.608 49.5143 3.20533 49.813 3.888C50.1543 4.57066 50.261 5.232 50.133 5.872C50.0477 6.512 49.7703 7.10933 49.301 7.664C48.8317 8.176 48.1703 8.56 47.317 8.816ZM82.7005 17.776C83.0418 18.5867 83.0632 19.4827 82.7645 20.464C82.5085 21.4453 82.0178 22.0853 81.2925 22.384C80.9085 22.5547 80.3965 22.704 79.7565 22.832C79.1165 22.9173 78.4125 23.0027 77.6445 23.088C76.9192 23.1733 76.1938 23.2373 75.4685 23.28C74.7432 23.3227 74.1245 23.344 73.6125 23.344C73.6552 24.624 73.6978 25.9467 73.7405 27.312C73.7832 28.6347 73.8258 29.936 73.8685 31.216C73.9112 32.496 73.9325 33.7333 73.9325 34.928C73.9325 36.08 73.9112 37.1253 73.8685 38.064C73.8685 38.704 73.8685 39.4507 73.8685 40.304C73.8685 41.1147 73.8045 41.904 73.6765 42.672C73.5912 43.44 73.4418 44.1227 73.2285 44.72C73.0152 45.2747 72.6952 45.6373 72.2685 45.808C70.9458 46.3627 69.7298 46.512 68.6205 46.256C67.5538 46.0427 66.7858 45.5947 66.3165 44.912C65.9752 44.3573 65.7192 43.7173 65.5485 42.992C65.3778 42.224 65.2498 41.456 65.1645 40.688C65.1218 39.8773 65.1005 39.1093 65.1005 38.384C65.1432 37.616 65.1645 36.9547 65.1645 36.4C65.2072 34.608 65.2285 32.5813 65.2285 30.32C65.2712 28.016 65.2925 25.712 65.2925 23.408H64.3325C63.8205 23.408 63.1592 23.408 62.3485 23.408C61.5805 23.3653 60.7912 23.3013 59.9805 23.216C59.2125 23.088 58.4872 22.9387 57.8045 22.768C57.1218 22.5547 56.6312 22.256 56.3325 21.872C55.8632 21.3173 55.5645 20.72 55.4365 20.08C55.3512 19.44 55.3938 18.8427 55.5645 18.288C55.7778 17.6907 56.0978 17.1787 56.5245 16.752C56.9512 16.2827 57.4418 15.984 57.9965 15.856C58.7645 15.6427 59.8525 15.536 61.2605 15.536C62.6685 15.4933 63.9912 15.4933 65.2285 15.536C65.1858 15.1093 65.1645 14.704 65.1645 14.32C65.1645 13.8933 65.1432 13.488 65.1005 13.104C65.0578 12.592 65.0365 11.952 65.0365 11.184C65.0365 10.3733 65.0792 9.584 65.1645 8.816C65.2925 8.00533 65.4845 7.25866 65.7405 6.576C65.9965 5.85066 66.3592 5.296 66.8285 4.912C67.4685 4.4 68.1085 4.12266 68.7485 4.08C69.4312 3.99467 70.0498 4.08 70.6045 4.336C71.2018 4.592 71.6925 4.976 72.0765 5.488C72.5032 5.95733 72.8018 6.49066 72.9725 7.088C73.1005 7.6 73.2072 8.21866 73.2925 8.944C73.3778 9.62666 73.4205 10.352 73.4205 11.12C73.4632 11.888 73.4845 12.656 73.4845 13.424C73.4845 14.192 73.4845 14.896 73.4845 15.536H74.1245C74.7645 15.536 75.5112 15.5147 76.3645 15.472C77.2178 15.4293 78.0498 15.4507 78.8605 15.536C79.7138 15.6213 80.4818 15.8347 81.1645 16.176C81.8472 16.4747 82.3592 17.008 82.7005 17.776ZM96.6345 40.88C96.5918 41.0933 96.5492 41.3067 96.5065 41.52C96.5065 41.6907 96.5065 41.8827 96.5065 42.096L96.1225 43.44C96.0372 43.6107 95.9732 43.7173 95.9305 43.76L95.7385 44.144C95.5252 44.6133 95.1412 44.9973 94.5865 45.296C93.5625 45.808 92.4745 45.936 91.3225 45.68C90.5972 45.5947 90.0212 45.3813 89.5945 45.04C89.1678 44.7413 88.8692 44.3787 88.6985 43.952C88.5278 43.5253 88.3998 43.0987 88.3145 42.672C88.1865 42.2453 88.1225 41.8613 88.1225 41.52V5.68C88.1225 5.38133 88.1225 5.12533 88.1225 4.912C88.1652 4.656 88.2078 4.42133 88.2505 4.208C88.2932 3.90933 88.3358 3.65333 88.3785 3.44C88.4638 3.22667 88.5492 2.992 88.6345 2.736C88.7625 2.30933 88.9972 1.968 89.3385 1.712C89.8505 1.328 90.3412 1.11466 90.8105 1.072C91.1092 0.986664 91.3865 0.943996 91.6425 0.943996C91.8985 0.90133 92.1972 0.879997 92.5385 0.879997C93.1358 0.879997 93.8185 1.05066 94.5865 1.392C95.1838 1.73333 95.6105 2.20267 95.8665 2.8C96.2932 3.65333 96.5065 4.44267 96.5065 5.168C96.5492 5.59467 96.5705 6.23466 96.5705 7.088C96.6132 7.94133 96.6345 8.58133 96.6345 9.008V9.264C96.7198 10.6293 96.7625 11.952 96.7625 13.232C96.7625 14.4693 96.7412 15.8347 96.6985 17.328C96.6985 18.7787 96.6772 20.1867 96.6345 21.552C96.6345 22.8747 96.6345 24.1973 96.6345 25.52V38.96C96.6345 39.1307 96.6345 39.3013 96.6345 39.472C96.6772 39.6 96.6985 39.7493 96.6985 39.92C96.6985 40.3467 96.6772 40.6667 96.6345 40.88ZM124.017 37.232C124.529 37.104 125.041 37.0187 125.553 36.976C126.107 36.9333 126.598 36.9973 127.025 37.168C127.494 37.3387 127.878 37.6373 128.177 38.064C128.475 38.448 128.625 39.0027 128.625 39.728C128.625 40.24 128.497 40.7307 128.241 41.2C127.985 41.6693 127.665 42.096 127.281 42.48C126.897 42.864 126.47 43.2053 126.001 43.504C125.531 43.76 125.083 43.9733 124.657 44.144C123.419 44.6987 121.99 45.1253 120.369 45.424C118.79 45.7227 117.147 45.8293 115.441 45.744C113.137 45.6587 110.918 45.2107 108.785 44.4C106.694 43.5467 105.051 42.16 103.857 40.24C102.747 38.3627 102.086 36.272 101.873 33.968C101.659 31.664 101.766 29.488 102.193 27.44C102.662 24.9653 103.451 22.96 104.561 21.424C105.713 19.8453 107.078 18.5867 108.657 17.648C110.577 16.5387 112.731 15.9627 115.121 15.92C117.51 15.8773 119.793 16.3467 121.969 17.328C123.419 17.968 124.721 18.8427 125.873 19.952C127.025 21.0187 127.899 22.32 128.497 23.856C128.667 24.24 128.795 24.7093 128.881 25.264C129.009 25.8187 129.094 26.416 129.137 27.056C129.179 27.6533 129.179 28.2507 129.137 28.848C129.094 29.4453 128.987 29.9787 128.817 30.448C128.561 31.216 128.241 31.8133 127.857 32.24C127.473 32.6667 126.982 32.9867 126.385 33.2C125.787 33.4133 125.062 33.5627 124.209 33.648C123.398 33.6907 122.417 33.7333 121.265 33.776C120.241 33.8187 119.281 33.84 118.385 33.84C117.489 33.84 116.571 33.84 115.633 33.84C114.694 33.7973 113.713 33.776 112.689 33.776C111.707 33.7333 110.598 33.6907 109.361 33.648C109.233 34.5013 109.339 35.248 109.681 35.888C110.065 36.4853 110.577 36.9973 111.217 37.424C111.857 37.808 112.582 38.1067 113.393 38.32C114.203 38.5333 114.993 38.6613 115.76 38.704C117.211 38.7893 118.598 38.6827 119.921 38.384C121.243 38.0427 122.609 37.6587 124.017 37.232ZM121.265 24.816C120.454 23.8773 119.601 23.1947 118.705 22.768C118.022 22.4693 117.297 22.3413 116.529 22.384C115.803 22.384 115.099 22.4907 114.417 22.704C113.179 23.0027 112.134 23.6427 111.281 24.624C111.195 24.7093 111.046 24.9227 110.833 25.264C110.619 25.5627 110.406 25.8827 110.193 26.224C110.022 26.5653 109.894 26.8853 109.809 27.184C109.723 27.4827 109.766 27.632 109.937 27.632H122.481C122.438 27.0347 122.331 26.544 122.161 26.16C121.99 25.7333 121.691 25.2853 121.265 24.816ZM171.287 16.112C172.012 15.9413 172.738 15.984 173.463 16.24C174.231 16.496 174.935 16.9227 175.575 17.52C175.874 17.8187 176.087 18.1813 176.215 18.608C176.386 19.0347 176.471 19.4827 176.471 19.952C176.471 20.464 176.386 21.0187 176.215 21.616C176.087 22.1707 175.895 22.5973 175.639 22.896C175.298 23.28 174.85 23.5787 174.295 23.792C173.74 24.0053 173.207 24.1547 172.695 24.24C172.183 24.2827 171.735 24.304 171.351 24.304C171.01 24.304 170.818 24.304 170.775 24.304L158.231 24.368C157.719 24.4107 157.186 24.4533 156.631 24.496C156.119 24.496 155.607 24.4747 155.095 24.432C154.583 24.3467 154.092 24.2187 153.623 24.048C153.196 23.8347 152.791 23.5573 152.407 23.216C151.938 22.7467 151.575 22.2987 151.319 21.872C151.063 21.4027 150.935 20.8693 150.935 20.272C150.935 19.5467 151.127 18.8427 151.511 18.16C151.938 17.4347 152.514 16.944 153.239 16.688C154.135 16.304 155.052 16.1333 155.991 16.176C156.972 16.176 157.954 16.1547 158.935 16.112H171.287ZM232.369 2.288C232.795 2.84267 233.009 3.39733 233.009 3.952C233.051 4.208 233.051 4.528 233.009 4.912C233.009 5.296 232.987 5.59467 232.944 5.808C232.817 6.23466 232.518 6.66133 232.049 7.088C231.921 7.216 231.771 7.344 231.601 7.472C231.43 7.55733 231.217 7.64266 230.961 7.728C230.705 7.81333 230.449 7.87733 230.193 7.92C229.937 7.92 229.659 7.94133 229.361 7.984C229.062 8.02666 228.785 8.06933 228.529 8.112C228.273 8.112 227.995 8.112 227.697 8.112H224.049V9.2C224.006 13.04 224.07 16.88 224.241 20.72C224.454 24.56 224.433 28.4 224.177 32.24C224.049 33.52 223.857 34.8427 223.601 36.208C223.345 37.5307 222.918 38.7893 222.321 39.984C221.766 41.136 221.019 42.2027 220.081 43.184C219.142 44.1653 217.947 44.9333 216.497 45.488C215.131 46 213.638 46.3627 212.017 46.576C210.395 46.7893 208.753 46.8107 207.089 46.64C205.467 46.4693 203.91 46.1067 202.417 45.552C200.923 44.9973 199.665 44.2293 198.641 43.248C198.086 42.736 197.574 42.1173 197.105 41.392C196.635 40.624 196.315 39.8347 196.145 39.024C195.974 38.1707 196.017 37.36 196.273 36.592C196.529 35.7813 197.126 35.12 198.065 34.608C198.875 34.1387 199.601 34.032 200.241 34.288C200.923 34.544 201.563 34.9493 202.161 35.504C202.801 36.0587 203.441 36.6347 204.081 37.232C204.763 37.8293 205.51 38.2133 206.321 38.384C208.07 38.8107 209.499 38.832 210.609 38.448C211.718 38.0213 212.593 37.36 213.233 36.464C213.873 35.568 214.321 34.48 214.577 33.2C214.875 31.92 215.046 30.6187 215.089 29.296C215.174 27.9733 215.195 26.6933 215.153 25.456C215.11 24.2187 215.11 23.1733 215.153 22.32C215.195 20.0587 215.195 17.84 215.153 15.664C215.11 13.488 215.089 11.2693 215.089 9.008V8.752C215.131 8.66666 215.153 8.53866 215.153 8.368H214.961C214.705 8.32533 214.171 8.304 213.361 8.304C212.55 8.26133 211.675 8.24 210.737 8.24C209.798 8.24 208.902 8.24 208.049 8.24C207.238 8.19733 206.705 8.176 206.449 8.176H205.553V8.112C205.211 8.06933 204.87 8.00533 204.529 7.92C204.187 7.83467 203.846 7.74933 203.505 7.664C202.694 7.408 202.075 7.00267 201.649 6.448C201.435 6.23466 201.265 5.89333 201.137 5.424C201.051 4.95466 201.009 4.54933 201.009 4.208C201.009 3.99466 201.009 3.76 201.009 3.504C201.009 3.248 201.051 3.01333 201.137 2.8C201.222 2.33066 201.521 1.904 202.033 1.52C202.374 1.264 202.779 1.072 203.249 0.943996C203.547 0.858664 203.846 0.794665 204.145 0.751999C204.443 0.709333 204.763 0.666665 205.105 0.623997C205.403 0.581331 205.702 0.559998 206.001 0.559998C206.299 0.559998 206.619 0.559998 206.961 0.559998H213.105C213.361 0.559998 213.659 0.559998 214.001 0.559998C214.342 0.559998 214.726 0.538664 215.153 0.495998C216.817 0.495998 218.459 0.495998 220.081 0.495998C221.702 0.495998 223.281 0.517331 224.817 0.559998H225.201C225.67 0.559998 226.118 0.581331 226.545 0.623997C227.014 0.623997 227.483 0.623997 227.953 0.623997C228.934 0.666665 229.851 0.858665 230.705 1.2C231.387 1.37066 231.942 1.73333 232.369 2.288ZM259.989 30.768C259.904 32.176 259.818 33.6053 259.733 35.056C259.648 36.464 259.413 37.8293 259.029 39.152C258.688 40.4747 258.133 41.6693 257.365 42.736C256.64 43.8027 255.594 44.656 254.229 45.296C253.034 45.8933 251.754 46.2987 250.389 46.512C249.024 46.768 247.658 46.8747 246.293 46.832C244.928 46.7893 243.605 46.576 242.325 46.192C241.045 45.8507 239.893 45.36 238.869 44.72C237.845 44.08 237.013 43.248 236.373 42.224C235.733 41.2 235.221 40.0907 234.837 38.896C234.496 37.7013 234.261 36.464 234.133 35.184C234.005 33.904 233.92 32.7093 233.877 31.6C233.706 28.656 233.706 25.7547 233.877 22.896C233.877 22.3413 233.877 21.7227 233.877 21.04C233.877 20.3147 233.92 19.6107 234.005 18.928C234.133 18.2453 234.325 17.6267 234.581 17.072C234.837 16.4747 235.264 16.0267 235.861 15.728C237.141 15.0453 238.314 15.0027 239.381 15.6C240.49 16.1973 241.152 17.4347 241.365 19.312C241.493 20.2933 241.536 21.3813 241.493 22.576C241.493 23.7707 241.536 24.8587 241.621 25.84C241.664 27.2907 241.706 28.8693 241.749 30.576C241.792 32.24 242.026 33.7333 242.453 35.056C242.922 36.3787 243.669 37.3813 244.693 38.064C245.76 38.704 247.338 38.7253 249.429 38.128C250.41 37.8293 251.05 37.0827 251.349 35.888C251.69 34.6933 251.861 32.9227 251.861 30.576C251.861 29.552 251.84 28.4213 251.797 27.184C251.754 25.9467 251.733 24.7307 251.733 23.536C251.733 22.2987 251.754 21.168 251.797 20.144C251.882 19.0773 252.01 18.2667 252.181 17.712C252.394 16.944 252.842 16.368 253.525 15.984C254.208 15.6 254.933 15.408 255.701 15.408C256.469 15.3653 257.194 15.5147 257.877 15.856C258.56 16.1973 259.029 16.752 259.285 17.52C259.541 18.2027 259.712 19.0773 259.797 20.144C259.925 21.168 260.01 22.2987 260.053 23.536C260.096 24.7307 260.096 25.968 260.053 27.248C260.053 28.4853 260.032 29.6587 259.989 30.768ZM272.736 19.056C274.016 18.416 275.36 17.968 276.768 17.712C278.176 17.4133 279.562 17.3493 280.928 17.52C282.336 17.648 283.68 18.0107 284.96 18.608C286.24 19.1627 287.434 19.9733 288.544 21.04C289.653 22.1493 290.506 23.3653 291.104 24.688C291.701 26.0107 292.128 27.4827 292.384 29.104C292.554 30.2133 292.832 31.2373 293.216 32.176C293.6 33.1147 294.005 34.0533 294.432 34.992C294.901 35.9307 295.328 36.8693 295.712 37.808C296.138 38.7467 296.48 39.728 296.736 40.752C296.949 41.7333 296.863 42.6933 296.479 43.632C296.138 44.528 295.413 45.0827 294.304 45.296C293.664 45.424 293.045 45.3813 292.448 45.168C291.893 44.912 291.381 44.5707 290.912 44.144C290.442 43.6747 290.016 43.184 289.632 42.672C289.29 42.1173 288.97 41.6053 288.672 41.136C287.69 42.416 286.624 43.4187 285.472 44.144C284.32 44.8267 282.933 45.2747 281.312 45.488C279.946 45.6587 278.645 45.7013 277.408 45.616C276.17 45.5307 274.848 45.296 273.44 44.912C271.605 44.4427 270.09 43.632 268.896 42.48C267.744 41.2853 266.848 39.92 266.208 38.384C265.61 36.8053 265.29 35.12 265.248 33.328C265.205 31.536 265.418 29.7653 265.888 28.016C266.485 25.712 267.381 23.8347 268.576 22.384C269.77 20.9333 271.157 19.824 272.736 19.056ZM274.336 26.544C273.738 27.1413 273.269 27.8453 272.928 28.656C272.586 29.4667 272.373 30.32 272.288 31.216C272.245 32.112 272.33 33.008 272.544 33.904C272.757 34.8 273.098 35.5893 273.568 36.272C273.994 36.8693 274.72 37.3813 275.744 37.808C276.768 38.192 277.834 38.4267 278.944 38.512C280.224 38.5973 281.333 38.256 282.272 37.488C283.253 36.72 283.978 35.76 284.448 34.608C284.96 33.4133 285.194 32.1547 285.152 30.832C285.109 29.4667 284.746 28.2293 284.064 27.12C283.552 26.3093 282.869 25.712 282.016 25.328C281.205 24.944 280.33 24.752 279.392 24.752C278.453 24.7093 277.514 24.8587 276.576 25.2C275.68 25.4987 274.933 25.9467 274.336 26.544Z" fill="#BA5C67"/>
</svg>
