<svg width="1045" height="344" viewBox="0 0 1045 344" fill="none" xmlns="http://www.w3.org/2000/svg">
<rect x="1.5" y="0.5" width="486" height="340" fill="white" stroke="#DEDEDE"/>
<rect x="559.5" y="3.5" width="485" height="339" fill="white" stroke="#DEDEDE"/>
<rect x="581" y="60" width="436" height="26" fill="#BCBBBB"/>
<rect x="802" y="95" width="104" height="9" fill="#BCBBBB"/>
<rect x="581" y="130" width="109" height="104" fill="#D9D9D9"/>
<rect x="581" y="130" width="109" height="104" fill="#BCBBBB"/>
<rect x="745" y="262" width="109" height="81" fill="#BCBBBB"/>
<rect x="909" y="262" width="108" height="81" fill="#BCBBBB"/>
<rect x="581" y="262" width="109" height="81" fill="#BCBBBB"/>
<rect x="909" y="130" width="108" height="104" fill="#BCBBBB"/>
<rect x="745" y="130" width="109" height="104" fill="#BCBBBB"/>
<rect x="914" y="95" width="103" height="9" fill="#BCBBBB"/>
<rect x="25" y="58" width="437" height="174" fill="#BCBBBB"/>
<rect x="25" y="240" width="437" height="32" fill="#BCBBBB"/>
<rect y="304" width="487" height="37" fill="#BCBBBB"/>
<line x1="580.674" y1="231.598" x2="689.648" y2="129.488" stroke="black"/>
<line x1="581.361" y1="129.49" x2="690.335" y2="233.316" stroke="black"/>
<line x1="744.564" y1="231.598" x2="853.539" y2="129.488" stroke="black"/>
<line x1="745.253" y1="129.491" x2="853.369" y2="233.317" stroke="black"/>
<line x1="910.001" y1="130.349" x2="1018.12" y2="233.317" stroke="black"/>
<line x1="908.458" y1="231.597" x2="1017.43" y2="130.344" stroke="black"/>
<line x1="582.202" y1="261.619" x2="675.731" y2="343.136" stroke="black"/>
<line x1="909.983" y1="262.473" x2="1003.51" y2="343.131" stroke="black"/>
<line x1="745.235" y1="261.619" x2="838.764" y2="343.136" stroke="black"/>
<line x1="594.424" y1="343.128" x2="689.67" y2="263.328" stroke="black"/>
<line x1="922.206" y1="342.269" x2="1017.45" y2="262.469" stroke="black"/>
<line x1="758.315" y1="343.128" x2="853.56" y2="263.328" stroke="black"/>
<line x1="24.7033" y1="227.78" x2="461.46" y2="58.7402" stroke="black"/>
<line x1="25.0677" y1="58.7421" x2="460.967" y2="231.214" stroke="black"/>
</svg>
