<svg width="1645" height="367" viewBox="0 0 1645 367" fill="none" xmlns="http://www.w3.org/2000/svg">
<path d="M0 0H367V367H0V0Z" fill="#B1D8E9"/>
<rect x="425.5" y="0.5" width="366" height="366" fill="#AAB954" stroke="#AAB954"/>
<path d="M100.515 201L105.915 169.5H109.965L104.565 201H100.515ZM85.395 193.215V189.48H111.45V193.215H85.395ZM88.545 201L93.945 169.5H97.995L92.595 201H88.545ZM87.105 180.615V176.88H113.115V180.615H87.105ZM118.908 201V169.5H132.048C134.058 169.5 135.753 169.8 137.133 170.4C138.513 171 139.548 171.9 140.238 173.1C140.958 174.27 141.318 175.71 141.318 177.42C141.318 179.13 140.838 180.585 139.878 181.785C138.948 182.985 137.643 183.81 135.963 184.26V183.36C137.373 183.66 138.603 184.2 139.653 184.98C140.703 185.73 141.513 186.675 142.083 187.815C142.683 188.955 142.983 190.26 142.983 191.73C142.983 193.23 142.743 194.565 142.263 195.735C141.813 196.875 141.123 197.835 140.193 198.615C139.293 199.395 138.198 199.995 136.908 200.415C135.618 200.805 134.148 201 132.498 201H118.908ZM123.768 196.32H132.228C134.058 196.32 135.483 195.915 136.503 195.105C137.523 194.295 138.033 193.14 138.033 191.64C138.033 190.71 137.778 189.915 137.268 189.255C136.788 188.595 136.098 188.1 135.198 187.77C134.298 187.41 133.233 187.23 132.003 187.23H123.768V196.32ZM123.768 182.55H131.778C132.678 182.55 133.473 182.37 134.163 182.01C134.883 181.65 135.438 181.155 135.828 180.525C136.248 179.895 136.458 179.175 136.458 178.365C136.458 177.015 136.008 175.98 135.108 175.26C134.208 174.54 132.918 174.18 131.238 174.18H123.768V182.55ZM154.893 198.795V173.235L156.558 174.495L150.348 177.78L149.043 173.55L157.458 169.05H159.798V198.795H154.893ZM149.898 201V196.32H164.928V201H149.898ZM172.038 201V169.5H184.368C186.618 169.5 188.643 169.875 190.443 170.625C192.273 171.375 193.833 172.455 195.123 173.865C196.413 175.275 197.403 176.94 198.093 178.86C198.783 180.78 199.128 182.91 199.128 185.25C199.128 187.59 198.783 189.735 198.093 191.685C197.403 193.605 196.413 195.27 195.123 196.68C193.863 198.06 192.318 199.125 190.488 199.875C188.658 200.625 186.618 201 184.368 201H172.038ZM176.898 196.815L176.763 196.32H184.143C185.733 196.32 187.143 196.065 188.373 195.555C189.633 195.045 190.683 194.325 191.523 193.395C192.393 192.435 193.053 191.265 193.503 189.885C193.953 188.505 194.178 186.96 194.178 185.25C194.178 183.54 193.953 182.01 193.503 180.66C193.053 179.28 192.393 178.11 191.523 177.15C190.653 176.19 189.603 175.455 188.373 174.945C187.143 174.435 185.733 174.18 184.143 174.18H176.628L176.898 173.775V196.815ZM214.295 201.135C212.345 201.135 210.56 200.73 208.94 199.92C207.35 199.08 206.075 197.97 205.115 196.59C204.155 195.21 203.675 193.68 203.675 192C203.675 191.07 203.795 190.2 204.035 189.39C204.305 188.55 204.695 187.785 205.205 187.095C205.745 186.405 206.39 185.775 207.14 185.205C207.89 184.635 208.76 184.125 209.75 183.675L209.48 184.62C208.43 184.23 207.53 183.72 206.78 183.09C206.03 182.43 205.445 181.68 205.025 180.84C204.635 180 204.44 179.085 204.44 178.095C204.44 176.505 204.875 175.065 205.745 173.775C206.645 172.485 207.83 171.45 209.3 170.67C210.8 169.89 212.465 169.5 214.295 169.5C216.125 169.5 217.775 169.89 219.245 170.67C220.745 171.45 221.93 172.485 222.8 173.775C223.7 175.065 224.15 176.505 224.15 178.095C224.15 179.085 223.955 179.985 223.565 180.795C223.175 181.605 222.605 182.34 221.855 183C221.105 183.63 220.175 184.17 219.065 184.62L218.93 183.855C220.13 184.335 221.18 184.995 222.08 185.835C222.98 186.675 223.685 187.635 224.195 188.715C224.705 189.765 224.96 190.86 224.96 192C224.96 193.71 224.48 195.255 223.52 196.635C222.56 198.015 221.27 199.11 219.65 199.92C218.06 200.73 216.275 201.135 214.295 201.135ZM214.295 196.635C215.405 196.635 216.395 196.425 217.265 196.005C218.165 195.585 218.87 195.015 219.38 194.295C219.89 193.575 220.145 192.75 220.145 191.82C220.145 190.83 219.89 189.96 219.38 189.21C218.87 188.43 218.165 187.815 217.265 187.365C216.395 186.915 215.405 186.69 214.295 186.69C213.185 186.69 212.195 186.915 211.325 187.365C210.455 187.815 209.765 188.43 209.255 189.21C208.745 189.96 208.49 190.83 208.49 191.82C208.49 192.72 208.745 193.53 209.255 194.25C209.765 194.97 210.455 195.555 211.325 196.005C212.195 196.425 213.185 196.635 214.295 196.635ZM214.295 182.37C215.255 182.37 216.11 182.19 216.86 181.83C217.64 181.47 218.24 180.99 218.66 180.39C219.11 179.76 219.335 179.04 219.335 178.23C219.335 177.42 219.11 176.7 218.66 176.07C218.24 175.44 217.64 174.945 216.86 174.585C216.11 174.195 215.255 174 214.295 174C213.335 174 212.465 174.195 211.685 174.585C210.935 174.945 210.335 175.44 209.885 176.07C209.465 176.7 209.255 177.42 209.255 178.23C209.255 179.04 209.465 179.76 209.885 180.39C210.335 180.99 210.935 181.47 211.685 181.83C212.465 182.19 213.335 182.37 214.295 182.37ZM231.76 201V169.5H251.605V174.18H236.62V196.32H251.605V201H231.76ZM233.965 187.185V182.505H249.13V187.185H233.965ZM265.251 201L265.071 200.55L274.431 180.66L274.566 184.395C273.876 185.565 273.066 186.585 272.136 187.455C271.206 188.295 270.201 188.94 269.121 189.39C268.041 189.84 266.946 190.065 265.836 190.065C264.126 190.065 262.551 189.615 261.111 188.715C259.671 187.815 258.516 186.615 257.646 185.115C256.776 183.615 256.341 181.98 256.341 180.21C256.341 178.08 256.821 176.175 257.781 174.495C258.741 172.785 260.046 171.435 261.696 170.445C263.376 169.455 265.251 168.96 267.321 168.96C268.821 168.96 270.231 169.23 271.551 169.77C272.871 170.31 274.026 171.075 275.016 172.065C276.006 173.025 276.786 174.15 277.356 175.44C277.926 176.7 278.211 178.05 278.211 179.49C278.211 180.24 278.136 181.05 277.986 181.92C277.836 182.76 277.581 183.72 277.221 184.8C276.891 185.85 276.441 187.065 275.871 188.445C275.301 189.795 274.596 191.37 273.756 193.17L270.021 201H265.251ZM266.871 185.565C268.041 185.565 269.091 185.31 270.021 184.8C270.951 184.26 271.671 183.555 272.181 182.685C272.721 181.785 272.991 180.78 272.991 179.67C272.991 178.5 272.736 177.45 272.226 176.52C271.716 175.56 270.996 174.81 270.066 174.27C269.166 173.73 268.131 173.46 266.961 173.46C265.881 173.46 264.921 173.73 264.081 174.27C263.241 174.78 262.566 175.5 262.056 176.43C261.576 177.33 261.336 178.395 261.336 179.625C261.336 180.675 261.576 181.65 262.056 182.55C262.566 183.45 263.241 184.185 264.081 184.755C264.921 185.295 265.851 185.565 266.871 185.565Z" fill="black"/>
<path d="M525.515 201L530.915 169.5H534.965L529.565 201H525.515ZM510.395 193.215V189.48H536.45V193.215H510.395ZM513.545 201L518.945 169.5H522.995L517.595 201H513.545ZM512.105 180.615V176.88H538.115V180.615H512.105ZM540.623 201L552.818 169.5H557.768L569.873 201H564.698L557.498 182.01C557.408 181.8 557.228 181.29 556.958 180.48C556.718 179.67 556.433 178.77 556.103 177.78C555.773 176.79 555.473 175.89 555.203 175.08C554.933 174.24 554.753 173.7 554.663 173.46L555.698 173.415C555.518 173.925 555.293 174.57 555.023 175.35C554.783 176.13 554.513 176.955 554.213 177.825C553.943 178.695 553.673 179.52 553.403 180.3C553.133 181.05 552.908 181.68 552.728 182.19L545.573 201H540.623ZM546.023 193.17L547.823 188.49H562.133L564.203 193.17H546.023ZM572.132 201L584.327 169.5H589.277L601.382 201H596.207L589.007 182.01C588.917 181.8 588.737 181.29 588.467 180.48C588.227 179.67 587.942 178.77 587.612 177.78C587.282 176.79 586.982 175.89 586.712 175.08C586.442 174.24 586.262 173.7 586.172 173.46L587.207 173.415C587.027 173.925 586.802 174.57 586.532 175.35C586.292 176.13 586.022 176.955 585.722 177.825C585.452 178.695 585.182 179.52 584.912 180.3C584.642 181.05 584.417 181.68 584.237 182.19L577.082 201H572.132ZM577.532 193.17L579.332 188.49H593.642L595.712 193.17H577.532ZM606.926 201V169.5H620.066C622.076 169.5 623.771 169.8 625.151 170.4C626.531 171 627.566 171.9 628.256 173.1C628.976 174.27 629.336 175.71 629.336 177.42C629.336 179.13 628.856 180.585 627.896 181.785C626.966 182.985 625.661 183.81 623.981 184.26V183.36C625.391 183.66 626.621 184.2 627.671 184.98C628.721 185.73 629.531 186.675 630.101 187.815C630.701 188.955 631.001 190.26 631.001 191.73C631.001 193.23 630.761 194.565 630.281 195.735C629.831 196.875 629.141 197.835 628.211 198.615C627.311 199.395 626.216 199.995 624.926 200.415C623.636 200.805 622.166 201 620.516 201H606.926ZM611.786 196.32H620.246C622.076 196.32 623.501 195.915 624.521 195.105C625.541 194.295 626.051 193.14 626.051 191.64C626.051 190.71 625.796 189.915 625.286 189.255C624.806 188.595 624.116 188.1 623.216 187.77C622.316 187.41 621.251 187.23 620.021 187.23H611.786V196.32ZM611.786 182.55H619.796C620.696 182.55 621.491 182.37 622.181 182.01C622.901 181.65 623.456 181.155 623.846 180.525C624.266 179.895 624.476 179.175 624.476 178.365C624.476 177.015 624.026 175.98 623.126 175.26C622.226 174.54 620.936 174.18 619.256 174.18H611.786V182.55ZM643.406 201L643.226 200.55L652.586 180.66L652.721 184.395C652.031 185.565 651.221 186.585 650.291 187.455C649.361 188.295 648.356 188.94 647.276 189.39C646.196 189.84 645.101 190.065 643.991 190.065C642.281 190.065 640.706 189.615 639.266 188.715C637.826 187.815 636.671 186.615 635.801 185.115C634.931 183.615 634.496 181.98 634.496 180.21C634.496 178.08 634.976 176.175 635.936 174.495C636.896 172.785 638.201 171.435 639.851 170.445C641.531 169.455 643.406 168.96 645.476 168.96C646.976 168.96 648.386 169.23 649.706 169.77C651.026 170.31 652.181 171.075 653.171 172.065C654.161 173.025 654.941 174.15 655.511 175.44C656.081 176.7 656.366 178.05 656.366 179.49C656.366 180.24 656.291 181.05 656.141 181.92C655.991 182.76 655.736 183.72 655.376 184.8C655.046 185.85 654.596 187.065 654.026 188.445C653.456 189.795 652.751 191.37 651.911 193.17L648.176 201H643.406ZM645.026 185.565C646.196 185.565 647.246 185.31 648.176 184.8C649.106 184.26 649.826 183.555 650.336 182.685C650.876 181.785 651.146 180.78 651.146 179.67C651.146 178.5 650.891 177.45 650.381 176.52C649.871 175.56 649.151 174.81 648.221 174.27C647.321 173.73 646.286 173.46 645.116 173.46C644.036 173.46 643.076 173.73 642.236 174.27C641.396 174.78 640.721 175.5 640.211 176.43C639.731 177.33 639.491 178.395 639.491 179.625C639.491 180.675 639.731 181.65 640.211 182.55C640.721 183.45 641.396 184.185 642.236 184.755C643.076 185.295 644.006 185.565 645.026 185.565ZM669.496 201.315C667.426 201.315 665.551 200.85 663.871 199.92C662.191 198.96 660.796 197.595 659.686 195.825L662.386 192.81C663.796 194.37 665.026 195.435 666.076 196.005C667.126 196.575 668.266 196.86 669.496 196.86C670.726 196.86 671.836 196.59 672.826 196.05C673.816 195.51 674.596 194.775 675.166 193.845C675.766 192.915 676.066 191.88 676.066 190.74C676.066 189.54 675.781 188.475 675.211 187.545C674.671 186.585 673.936 185.835 673.006 185.295C672.076 184.725 671.026 184.44 669.856 184.44C669.286 184.44 668.746 184.485 668.236 184.575C667.726 184.635 667.111 184.8 666.391 185.07C665.671 185.34 664.726 185.76 663.556 186.33L660.991 182.865L662.836 169.5H679.846V174H665.896L666.841 173.145L665.356 183.135L664.231 181.83C664.531 181.53 665.041 181.245 665.761 180.975C666.481 180.675 667.276 180.435 668.146 180.255C669.046 180.045 669.901 179.94 670.711 179.94C672.631 179.94 674.341 180.39 675.841 181.29C677.371 182.16 678.571 183.375 679.441 184.935C680.341 186.495 680.791 188.28 680.791 190.29C680.791 192.36 680.296 194.235 679.306 195.915C678.316 197.565 676.966 198.885 675.256 199.875C673.546 200.835 671.626 201.315 669.496 201.315ZM699.347 201V175.62L700.472 175.89L690.122 188.535L689.942 187.995H709.517V192.45H686.927L684.857 188.4L700.292 169.5H704.027V201H699.347Z" fill="black"/>
<path d="M897.468 144V120.375H902.148V127.8L901.698 126C902.028 124.86 902.583 123.825 903.363 122.895C904.173 121.965 905.088 121.23 906.108 120.69C907.158 120.15 908.238 119.88 909.348 119.88C909.858 119.88 910.338 119.925 910.788 120.015C911.268 120.105 911.643 120.21 911.913 120.33L910.698 125.37C910.338 125.22 909.933 125.1 909.483 125.01C909.063 124.89 908.643 124.83 908.223 124.83C907.413 124.83 906.633 124.995 905.883 125.325C905.163 125.625 904.518 126.06 903.948 126.63C903.408 127.17 902.973 127.815 902.643 128.565C902.313 129.285 902.148 130.08 902.148 130.95V144H897.468ZM928.602 144V128.61C928.602 127.29 928.122 126.225 927.162 125.415C926.232 124.575 925.047 124.155 923.607 124.155C922.287 124.155 921.087 124.425 920.007 124.965C918.957 125.505 917.997 126.33 917.127 127.44L914.112 124.425C915.522 122.895 917.037 121.755 918.657 121.005C920.307 120.255 922.077 119.88 923.967 119.88C925.767 119.88 927.327 120.18 928.647 120.78C929.967 121.38 930.987 122.265 931.707 123.435C932.427 124.575 932.787 125.97 932.787 127.62V144H928.602ZM921.537 144.45C920.007 144.45 918.642 144.15 917.442 143.55C916.242 142.95 915.282 142.125 914.562 141.075C913.872 139.995 913.527 138.735 913.527 137.295C913.527 136.035 913.752 134.925 914.202 133.965C914.652 133.005 915.312 132.21 916.182 131.58C917.082 130.95 918.192 130.47 919.512 130.14C920.862 129.81 922.407 129.645 924.147 129.645H930.717L930.312 133.335H923.562C922.662 133.335 921.852 133.425 921.132 133.605C920.442 133.755 919.842 134.01 919.332 134.37C918.852 134.7 918.492 135.105 918.252 135.585C918.012 136.035 917.892 136.575 917.892 137.205C917.892 137.865 918.057 138.45 918.387 138.96C918.717 139.44 919.167 139.815 919.737 140.085C920.307 140.355 920.967 140.49 921.717 140.49C922.797 140.49 923.817 140.31 924.777 139.95C925.767 139.56 926.637 139.035 927.387 138.375C928.167 137.715 928.767 136.98 929.187 136.17L930.267 139.185C929.637 140.235 928.857 141.15 927.927 141.93C926.997 142.71 925.992 143.325 924.912 143.775C923.832 144.225 922.707 144.45 921.537 144.45ZM941.57 144V114.345H946.205V144H941.57ZM936.665 124.875V120.375H951.695V124.875H936.665ZM956.68 144V120.375H961.315V144H956.68ZM958.93 115.155C957.94 115.155 957.175 114.9 956.635 114.39C956.095 113.88 955.825 113.16 955.825 112.23C955.825 111.36 956.095 110.655 956.635 110.115C957.205 109.575 957.97 109.305 958.93 109.305C959.92 109.305 960.685 109.56 961.225 110.07C961.765 110.58 962.035 111.3 962.035 112.23C962.035 113.1 961.75 113.805 961.18 114.345C960.64 114.885 959.89 115.155 958.93 115.155ZM979.06 144.45C976.75 144.45 974.68 143.925 972.85 142.875C971.05 141.795 969.625 140.34 968.575 138.51C967.525 136.65 967 134.535 967 132.165C967 129.795 967.525 127.695 968.575 125.865C969.625 124.005 971.05 122.55 972.85 121.5C974.68 120.42 976.75 119.88 979.06 119.88C981.34 119.88 983.38 120.42 985.18 121.5C987.01 122.55 988.45 124.005 989.5 125.865C990.55 127.695 991.075 129.795 991.075 132.165C991.075 134.535 990.55 136.65 989.5 138.51C988.45 140.34 987.01 141.795 985.18 142.875C983.38 143.925 981.34 144.45 979.06 144.45ZM979.06 140.22C980.47 140.22 981.73 139.875 982.84 139.185C983.95 138.465 984.82 137.505 985.45 136.305C986.08 135.075 986.38 133.695 986.35 132.165C986.38 130.605 986.08 129.225 985.45 128.025C984.82 126.795 983.95 125.835 982.84 125.145C981.73 124.455 980.47 124.11 979.06 124.11C977.65 124.11 976.375 124.47 975.235 125.19C974.125 125.88 973.255 126.84 972.625 128.07C971.995 129.27 971.695 130.635 971.725 132.165C971.695 133.695 971.995 135.075 972.625 136.305C973.255 137.505 974.125 138.465 975.235 139.185C976.375 139.875 977.65 140.22 979.06 140.22ZM1018.77 144.45C1016.58 144.45 1014.62 143.91 1012.88 142.83C1011.17 141.75 1009.8 140.28 1008.78 138.42C1007.79 136.56 1007.3 134.475 1007.3 132.165C1007.3 129.855 1007.79 127.77 1008.78 125.91C1009.8 124.05 1011.17 122.58 1012.88 121.5C1014.62 120.42 1016.58 119.88 1018.77 119.88C1020.87 119.88 1022.78 120.315 1024.49 121.185C1026.23 122.025 1027.55 123.18 1028.45 124.65L1025.88 127.8C1025.4 127.11 1024.79 126.48 1024.04 125.91C1023.29 125.34 1022.49 124.89 1021.65 124.56C1020.81 124.23 1020 124.065 1019.22 124.065C1017.78 124.065 1016.49 124.425 1015.35 125.145C1014.24 125.835 1013.36 126.795 1012.7 128.025C1012.04 129.255 1011.71 130.635 1011.71 132.165C1011.71 133.695 1012.05 135.075 1012.74 136.305C1013.43 137.505 1014.35 138.465 1015.49 139.185C1016.63 139.905 1017.89 140.265 1019.27 140.265C1020.08 140.265 1020.86 140.13 1021.61 139.86C1022.39 139.59 1023.14 139.185 1023.86 138.645C1024.58 138.105 1025.25 137.445 1025.88 136.665L1028.45 139.815C1027.49 141.165 1026.11 142.275 1024.31 143.145C1022.54 144.015 1020.69 144.45 1018.77 144.45ZM1043.44 144.45C1041.13 144.45 1039.06 143.925 1037.23 142.875C1035.43 141.795 1034 140.34 1032.95 138.51C1031.9 136.65 1031.38 134.535 1031.38 132.165C1031.38 129.795 1031.9 127.695 1032.95 125.865C1034 124.005 1035.43 122.55 1037.23 121.5C1039.06 120.42 1041.13 119.88 1043.44 119.88C1045.72 119.88 1047.76 120.42 1049.56 121.5C1051.39 122.55 1052.83 124.005 1053.88 125.865C1054.93 127.695 1055.45 129.795 1055.45 132.165C1055.45 134.535 1054.93 136.65 1053.88 138.51C1052.83 140.34 1051.39 141.795 1049.56 142.875C1047.76 143.925 1045.72 144.45 1043.44 144.45ZM1043.44 140.22C1044.85 140.22 1046.11 139.875 1047.22 139.185C1048.33 138.465 1049.2 137.505 1049.83 136.305C1050.46 135.075 1050.76 133.695 1050.73 132.165C1050.76 130.605 1050.46 129.225 1049.83 128.025C1049.2 126.795 1048.33 125.835 1047.22 125.145C1046.11 124.455 1044.85 124.11 1043.44 124.11C1042.03 124.11 1040.75 124.47 1039.61 125.19C1038.5 125.88 1037.63 126.84 1037 128.07C1036.37 129.27 1036.07 130.635 1036.1 132.165C1036.07 133.695 1036.37 135.075 1037 136.305C1037.63 137.505 1038.5 138.465 1039.61 139.185C1040.75 139.875 1042.03 140.22 1043.44 140.22ZM1060.51 144V120.375H1065.14V125.235L1064.33 125.775C1064.63 124.725 1065.22 123.765 1066.09 122.895C1066.96 121.995 1067.99 121.275 1069.19 120.735C1070.39 120.165 1071.62 119.88 1072.88 119.88C1074.68 119.88 1076.18 120.24 1077.38 120.96C1078.58 121.65 1079.48 122.715 1080.08 124.155C1080.68 125.595 1080.98 127.41 1080.98 129.6V144H1076.35V129.915C1076.35 128.565 1076.17 127.455 1075.81 126.585C1075.45 125.685 1074.89 125.04 1074.14 124.65C1073.39 124.23 1072.46 124.05 1071.35 124.11C1070.45 124.11 1069.63 124.26 1068.88 124.56C1068.13 124.83 1067.47 125.22 1066.9 125.73C1066.36 126.24 1065.92 126.84 1065.59 127.53C1065.29 128.19 1065.14 128.91 1065.14 129.69V144H1062.85C1062.46 144 1062.07 144 1061.68 144C1061.29 144 1060.9 144 1060.51 144ZM1090.19 144V114.345H1094.83V144H1090.19ZM1085.29 124.875V120.375H1100.32V124.875H1085.29ZM1118.31 144V128.61C1118.31 127.29 1117.83 126.225 1116.87 125.415C1115.94 124.575 1114.76 124.155 1113.32 124.155C1112 124.155 1110.8 124.425 1109.72 124.965C1108.67 125.505 1107.71 126.33 1106.84 127.44L1103.82 124.425C1105.23 122.895 1106.75 121.755 1108.37 121.005C1110.02 120.255 1111.79 119.88 1113.68 119.88C1115.48 119.88 1117.04 120.18 1118.36 120.78C1119.68 121.38 1120.7 122.265 1121.42 123.435C1122.14 124.575 1122.5 125.97 1122.5 127.62V144H1118.31ZM1111.25 144.45C1109.72 144.45 1108.35 144.15 1107.15 143.55C1105.95 142.95 1104.99 142.125 1104.27 141.075C1103.58 139.995 1103.24 138.735 1103.24 137.295C1103.24 136.035 1103.46 134.925 1103.91 133.965C1104.36 133.005 1105.02 132.21 1105.89 131.58C1106.79 130.95 1107.9 130.47 1109.22 130.14C1110.57 129.81 1112.12 129.645 1113.86 129.645H1120.43L1120.02 133.335H1113.27C1112.37 133.335 1111.56 133.425 1110.84 133.605C1110.15 133.755 1109.55 134.01 1109.04 134.37C1108.56 134.7 1108.2 135.105 1107.96 135.585C1107.72 136.035 1107.6 136.575 1107.6 137.205C1107.6 137.865 1107.77 138.45 1108.1 138.96C1108.43 139.44 1108.88 139.815 1109.45 140.085C1110.02 140.355 1110.68 140.49 1111.43 140.49C1112.51 140.49 1113.53 140.31 1114.49 139.95C1115.48 139.56 1116.35 139.035 1117.1 138.375C1117.88 137.715 1118.48 136.98 1118.9 136.17L1119.98 139.185C1119.35 140.235 1118.57 141.15 1117.64 141.93C1116.71 142.71 1115.7 143.325 1114.62 143.775C1113.54 144.225 1112.42 144.45 1111.25 144.45ZM1136.23 144.45C1134.25 144.45 1132.47 144.105 1130.88 143.415C1129.29 142.725 1127.97 141.705 1126.92 140.355L1130.07 137.655C1130.97 138.705 1131.94 139.47 1132.99 139.95C1134.07 140.4 1135.29 140.625 1136.64 140.625C1137.18 140.625 1137.67 140.565 1138.12 140.445C1138.6 140.295 1139.01 140.085 1139.34 139.815C1139.7 139.545 1139.97 139.23 1140.15 138.87C1140.33 138.48 1140.42 138.06 1140.42 137.61C1140.42 136.83 1140.13 136.2 1139.56 135.72C1139.26 135.51 1138.78 135.285 1138.12 135.045C1137.49 134.775 1136.67 134.505 1135.65 134.235C1133.91 133.785 1132.48 133.275 1131.37 132.705C1130.26 132.135 1129.41 131.49 1128.81 130.77C1128.36 130.2 1128.03 129.585 1127.82 128.925C1127.61 128.235 1127.5 127.485 1127.5 126.675C1127.5 125.355 1127.88 124.185 1128.63 123.165C1129.38 122.145 1130.38 121.35 1131.64 120.78C1132.93 120.18 1134.37 119.88 1135.96 119.88C1137.07 119.88 1138.17 120.03 1139.25 120.33C1140.36 120.63 1141.38 121.065 1142.31 121.635C1143.24 122.205 1144.02 122.88 1144.65 123.66L1141.99 126.585C1141.42 126.015 1140.79 125.52 1140.1 125.1C1139.44 124.65 1138.77 124.305 1138.08 124.065C1137.39 123.825 1136.76 123.705 1136.19 123.705C1135.56 123.705 1134.99 123.765 1134.48 123.885C1133.97 124.005 1133.53 124.185 1133.17 124.425C1132.84 124.665 1132.59 124.965 1132.41 125.325C1132.23 125.685 1132.14 126.09 1132.14 126.54C1132.17 126.93 1132.26 127.305 1132.41 127.665C1132.59 127.995 1132.83 128.28 1133.13 128.52C1133.46 128.76 1133.95 129.015 1134.61 129.285C1135.27 129.555 1136.11 129.81 1137.13 130.05C1138.63 130.44 1139.86 130.875 1140.82 131.355C1141.81 131.805 1142.59 132.33 1143.16 132.93C1143.76 133.5 1144.18 134.16 1144.42 134.91C1144.66 135.66 1144.78 136.5 1144.78 137.43C1144.78 138.78 1144.39 139.995 1143.61 141.075C1142.86 142.125 1141.84 142.95 1140.55 143.55C1139.26 144.15 1137.82 144.45 1136.23 144.45ZM1152.81 144V114.345H1157.45V144H1152.81ZM1147.91 124.875V120.375H1162.94V124.875H1147.91ZM1169.05 144.45C1168.06 144.45 1167.3 144.165 1166.76 143.595C1166.22 142.995 1165.95 142.155 1165.95 141.075C1165.95 140.085 1166.23 139.275 1166.8 138.645C1167.37 138.015 1168.12 137.7 1169.05 137.7C1170.04 137.7 1170.81 138 1171.35 138.6C1171.89 139.17 1172.16 139.995 1172.16 141.075C1172.16 142.065 1171.87 142.875 1171.3 143.505C1170.73 144.135 1169.98 144.45 1169.05 144.45ZM1169.05 126.675C1168.06 126.675 1167.3 126.39 1166.76 125.82C1166.22 125.22 1165.95 124.38 1165.95 123.3C1165.95 122.31 1166.23 121.5 1166.8 120.87C1167.37 120.24 1168.12 119.925 1169.05 119.925C1170.04 119.925 1170.81 120.225 1171.35 120.825C1171.89 121.395 1172.16 122.22 1172.16 123.3C1172.16 124.29 1171.87 125.1 1171.3 125.73C1170.73 126.36 1169.98 126.675 1169.05 126.675ZM991.728 200.315C989.658 200.315 987.783 199.85 986.103 198.92C984.423 197.96 983.028 196.595 981.918 194.825L984.618 191.81C986.028 193.37 987.258 194.435 988.308 195.005C989.358 195.575 990.498 195.86 991.728 195.86C992.958 195.86 994.068 195.59 995.058 195.05C996.048 194.51 996.828 193.775 997.398 192.845C997.998 191.915 998.298 190.88 998.298 189.74C998.298 188.54 998.013 187.475 997.443 186.545C996.903 185.585 996.168 184.835 995.238 184.295C994.308 183.725 993.258 183.44 992.088 183.44C991.518 183.44 990.978 183.485 990.468 183.575C989.958 183.635 989.343 183.8 988.623 184.07C987.903 184.34 986.958 184.76 985.788 185.33L983.223 181.865L985.068 168.5H1002.08V173H988.128L989.073 172.145L987.588 182.135L986.463 180.83C986.763 180.53 987.273 180.245 987.993 179.975C988.713 179.675 989.508 179.435 990.378 179.255C991.278 179.045 992.133 178.94 992.943 178.94C994.863 178.94 996.573 179.39 998.073 180.29C999.603 181.16 1000.8 182.375 1001.67 183.935C1002.57 185.495 1003.02 187.28 1003.02 189.29C1003.02 191.36 1002.53 193.235 1001.54 194.915C1000.55 196.565 999.198 197.885 997.488 198.875C995.778 199.835 993.858 200.315 991.728 200.315ZM1010.87 200.495C1009.88 200.495 1009.11 200.21 1008.57 199.64C1008.03 199.04 1007.76 198.2 1007.76 197.12C1007.76 196.13 1008.05 195.32 1008.62 194.69C1009.19 194.06 1009.94 193.745 1010.87 193.745C1011.86 193.745 1012.62 194.045 1013.16 194.645C1013.7 195.215 1013.97 196.04 1013.97 197.12C1013.97 198.11 1013.69 198.92 1013.12 199.55C1012.55 200.18 1011.8 200.495 1010.87 200.495ZM1028.98 200.135C1027.03 200.135 1025.25 199.73 1023.63 198.92C1022.04 198.08 1020.76 196.97 1019.8 195.59C1018.84 194.21 1018.36 192.68 1018.36 191C1018.36 190.07 1018.48 189.2 1018.72 188.39C1018.99 187.55 1019.38 186.785 1019.89 186.095C1020.43 185.405 1021.08 184.775 1021.83 184.205C1022.58 183.635 1023.45 183.125 1024.44 182.675L1024.17 183.62C1023.12 183.23 1022.22 182.72 1021.47 182.09C1020.72 181.43 1020.13 180.68 1019.71 179.84C1019.32 179 1019.13 178.085 1019.13 177.095C1019.13 175.505 1019.56 174.065 1020.43 172.775C1021.33 171.485 1022.52 170.45 1023.99 169.67C1025.49 168.89 1027.15 168.5 1028.98 168.5C1030.81 168.5 1032.46 168.89 1033.93 169.67C1035.43 170.45 1036.62 171.485 1037.49 172.775C1038.39 174.065 1038.84 175.505 1038.84 177.095C1038.84 178.085 1038.64 178.985 1038.25 179.795C1037.86 180.605 1037.29 181.34 1036.54 182C1035.79 182.63 1034.86 183.17 1033.75 183.62L1033.62 182.855C1034.82 183.335 1035.87 183.995 1036.77 184.835C1037.67 185.675 1038.37 186.635 1038.88 187.715C1039.39 188.765 1039.65 189.86 1039.65 191C1039.65 192.71 1039.17 194.255 1038.21 195.635C1037.25 197.015 1035.96 198.11 1034.34 198.92C1032.75 199.73 1030.96 200.135 1028.98 200.135ZM1028.98 195.635C1030.09 195.635 1031.08 195.425 1031.95 195.005C1032.85 194.585 1033.56 194.015 1034.07 193.295C1034.58 192.575 1034.83 191.75 1034.83 190.82C1034.83 189.83 1034.58 188.96 1034.07 188.21C1033.56 187.43 1032.85 186.815 1031.95 186.365C1031.08 185.915 1030.09 185.69 1028.98 185.69C1027.87 185.69 1026.88 185.915 1026.01 186.365C1025.14 186.815 1024.45 187.43 1023.94 188.21C1023.43 188.96 1023.18 189.83 1023.18 190.82C1023.18 191.72 1023.43 192.53 1023.94 193.25C1024.45 193.97 1025.14 194.555 1026.01 195.005C1026.88 195.425 1027.87 195.635 1028.98 195.635ZM1028.98 181.37C1029.94 181.37 1030.8 181.19 1031.55 180.83C1032.33 180.47 1032.93 179.99 1033.35 179.39C1033.8 178.76 1034.02 178.04 1034.02 177.23C1034.02 176.42 1033.8 175.7 1033.35 175.07C1032.93 174.44 1032.33 173.945 1031.55 173.585C1030.8 173.195 1029.94 173 1028.98 173C1028.02 173 1027.15 173.195 1026.37 173.585C1025.62 173.945 1025.02 174.44 1024.57 175.07C1024.15 175.7 1023.94 176.42 1023.94 177.23C1023.94 178.04 1024.15 178.76 1024.57 179.39C1025.02 179.99 1025.62 180.47 1026.37 180.83C1027.15 181.19 1028.02 181.37 1028.98 181.37ZM1055.04 200.135C1053.09 200.135 1051.31 199.73 1049.69 198.92C1048.1 198.08 1046.82 196.97 1045.86 195.59C1044.9 194.21 1044.42 192.68 1044.42 191C1044.42 190.07 1044.54 189.2 1044.78 188.39C1045.05 187.55 1045.44 186.785 1045.95 186.095C1046.49 185.405 1047.14 184.775 1047.89 184.205C1048.64 183.635 1049.51 183.125 1050.5 182.675L1050.23 183.62C1049.18 183.23 1048.28 182.72 1047.53 182.09C1046.78 181.43 1046.19 180.68 1045.77 179.84C1045.38 179 1045.19 178.085 1045.19 177.095C1045.19 175.505 1045.62 174.065 1046.49 172.775C1047.39 171.485 1048.58 170.45 1050.05 169.67C1051.55 168.89 1053.21 168.5 1055.04 168.5C1056.87 168.5 1058.52 168.89 1059.99 169.67C1061.49 170.45 1062.68 171.485 1063.55 172.775C1064.45 174.065 1064.9 175.505 1064.9 177.095C1064.9 178.085 1064.7 178.985 1064.31 179.795C1063.92 180.605 1063.35 181.34 1062.6 182C1061.85 182.63 1060.92 183.17 1059.81 183.62L1059.68 182.855C1060.88 183.335 1061.93 183.995 1062.83 184.835C1063.73 185.675 1064.43 186.635 1064.94 187.715C1065.45 188.765 1065.71 189.86 1065.71 191C1065.71 192.71 1065.23 194.255 1064.27 195.635C1063.31 197.015 1062.02 198.11 1060.4 198.92C1058.81 199.73 1057.02 200.135 1055.04 200.135ZM1055.04 195.635C1056.15 195.635 1057.14 195.425 1058.01 195.005C1058.91 194.585 1059.62 194.015 1060.13 193.295C1060.64 192.575 1060.89 191.75 1060.89 190.82C1060.89 189.83 1060.64 188.96 1060.13 188.21C1059.62 187.43 1058.91 186.815 1058.01 186.365C1057.14 185.915 1056.15 185.69 1055.04 185.69C1053.93 185.69 1052.94 185.915 1052.07 186.365C1051.2 186.815 1050.51 187.43 1050 188.21C1049.49 188.96 1049.24 189.83 1049.24 190.82C1049.24 191.72 1049.49 192.53 1050 193.25C1050.51 193.97 1051.2 194.555 1052.07 195.005C1052.94 195.425 1053.93 195.635 1055.04 195.635ZM1055.04 181.37C1056 181.37 1056.86 181.19 1057.61 180.83C1058.39 180.47 1058.99 179.99 1059.41 179.39C1059.86 178.76 1060.08 178.04 1060.08 177.23C1060.08 176.42 1059.86 175.7 1059.41 175.07C1058.99 174.44 1058.39 173.945 1057.61 173.585C1056.86 173.195 1056 173 1055.04 173C1054.08 173 1053.21 173.195 1052.43 173.585C1051.68 173.945 1051.08 174.44 1050.63 175.07C1050.21 175.7 1050 176.42 1050 177.23C1050 178.04 1050.21 178.76 1050.63 179.39C1051.08 179.99 1051.68 180.47 1052.43 180.83C1053.21 181.19 1054.08 181.37 1055.04 181.37ZM1073.23 200.45C1072.24 200.45 1071.47 200.165 1070.93 199.595C1070.39 198.995 1070.12 198.155 1070.12 197.075C1070.12 196.085 1070.41 195.275 1070.98 194.645C1071.55 194.015 1072.3 193.7 1073.23 193.7C1074.22 193.7 1074.98 194 1075.52 194.6C1076.06 195.17 1076.33 195.995 1076.33 197.075C1076.33 198.065 1076.05 198.875 1075.48 199.505C1074.91 200.135 1074.16 200.45 1073.23 200.45ZM1073.23 182.675C1072.24 182.675 1071.47 182.39 1070.93 181.82C1070.39 181.22 1070.12 180.38 1070.12 179.3C1070.12 178.31 1070.41 177.5 1070.98 176.87C1071.55 176.24 1072.3 175.925 1073.23 175.925C1074.22 175.925 1074.98 176.225 1075.52 176.825C1076.06 177.395 1076.33 178.22 1076.33 179.3C1076.33 180.29 1076.05 181.1 1075.48 181.73C1074.91 182.36 1074.16 182.675 1073.23 182.675ZM1088.1 197.795V172.235L1089.77 173.495L1083.56 176.78L1082.25 172.55L1090.67 168.05H1093.01V197.795H1088.1ZM1083.11 200V195.32H1098.14V200H1083.11ZM988.286 256V224.5H1001.11C1002.82 224.5 1004.37 224.935 1005.75 225.805C1007.16 226.645 1008.28 227.8 1009.12 229.27C1009.96 230.74 1010.38 232.375 1010.38 234.175C1010.38 235.975 1009.96 237.61 1009.12 239.08C1008.28 240.55 1007.16 241.735 1005.75 242.635C1004.37 243.505 1002.82 243.94 1001.11 243.94H993.146V256H988.286ZM993.146 239.26H1001.02C1001.83 239.26 1002.57 239.035 1003.23 238.585C1003.89 238.105 1004.41 237.49 1004.8 236.74C1005.22 235.96 1005.43 235.105 1005.43 234.175C1005.43 233.245 1005.22 232.405 1004.8 231.655C1004.41 230.905 1003.89 230.305 1003.23 229.855C1002.57 229.405 1001.83 229.18 1001.02 229.18H993.146V239.26ZM1010.58 256L1022.77 224.5H1027.72L1039.83 256H1034.65L1027.45 237.01C1027.36 236.8 1027.18 236.29 1026.91 235.48C1026.67 234.67 1026.39 233.77 1026.06 232.78C1025.73 231.79 1025.43 230.89 1025.16 230.08C1024.89 229.24 1024.71 228.7 1024.62 228.46L1025.65 228.415C1025.47 228.925 1025.25 229.57 1024.98 230.35C1024.74 231.13 1024.47 231.955 1024.17 232.825C1023.9 233.695 1023.63 234.52 1023.36 235.3C1023.09 236.05 1022.86 236.68 1022.68 237.19L1015.53 256H1010.58ZM1015.98 248.17L1017.78 243.49H1032.09L1034.16 248.17H1015.98ZM1055.09 256.45C1052.51 256.45 1050.23 255.94 1048.25 254.92C1046.3 253.9 1044.62 252.37 1043.21 250.33L1046.54 246.505C1048.01 248.605 1049.42 250.06 1050.77 250.87C1052.12 251.68 1053.73 252.085 1055.59 252.085C1056.73 252.085 1057.76 251.905 1058.69 251.545C1059.62 251.185 1060.36 250.69 1060.9 250.06C1061.44 249.43 1061.71 248.71 1061.71 247.9C1061.71 247.36 1061.62 246.85 1061.44 246.37C1061.26 245.89 1060.97 245.455 1060.58 245.065C1060.22 244.675 1059.74 244.315 1059.14 243.985C1058.57 243.655 1057.9 243.37 1057.12 243.13C1056.34 242.86 1055.44 242.635 1054.42 242.455C1052.8 242.125 1051.39 241.69 1050.19 241.15C1048.99 240.61 1047.98 239.935 1047.17 239.125C1046.36 238.315 1045.76 237.4 1045.37 236.38C1044.98 235.33 1044.79 234.16 1044.79 232.87C1044.79 231.16 1045.27 229.645 1046.23 228.325C1047.19 227.005 1048.48 225.97 1050.1 225.22C1051.75 224.44 1053.59 224.05 1055.63 224.05C1058.06 224.05 1060.18 224.53 1061.98 225.49C1063.81 226.42 1065.25 227.785 1066.3 229.585L1062.88 232.96C1061.98 231.49 1060.9 230.365 1059.64 229.585C1058.41 228.805 1057.03 228.415 1055.5 228.415C1054.33 228.415 1053.31 228.595 1052.44 228.955C1051.57 229.315 1050.88 229.825 1050.37 230.485C1049.89 231.115 1049.65 231.865 1049.65 232.735C1049.65 233.365 1049.77 233.95 1050.01 234.49C1050.25 235 1050.61 235.465 1051.09 235.885C1051.6 236.275 1052.27 236.635 1053.11 236.965C1053.95 237.265 1054.96 237.535 1056.13 237.775C1057.78 238.135 1059.25 238.6 1060.54 239.17C1061.83 239.71 1062.92 240.355 1063.82 241.105C1064.72 241.855 1065.4 242.695 1065.85 243.625C1066.33 244.555 1066.57 245.56 1066.57 246.64C1066.57 248.65 1066.1 250.39 1065.17 251.86C1064.24 253.33 1062.92 254.47 1061.21 255.28C1059.5 256.06 1057.46 256.45 1055.09 256.45ZM1083.17 256.45C1080.59 256.45 1078.31 255.94 1076.33 254.92C1074.38 253.9 1072.7 252.37 1071.29 250.33L1074.62 246.505C1076.09 248.605 1077.5 250.06 1078.85 250.87C1080.2 251.68 1081.81 252.085 1083.67 252.085C1084.81 252.085 1085.84 251.905 1086.77 251.545C1087.7 251.185 1088.44 250.69 1088.98 250.06C1089.52 249.43 1089.79 248.71 1089.79 247.9C1089.79 247.36 1089.7 246.85 1089.52 246.37C1089.34 245.89 1089.05 245.455 1088.66 245.065C1088.3 244.675 1087.82 244.315 1087.22 243.985C1086.65 243.655 1085.98 243.37 1085.2 243.13C1084.42 242.86 1083.52 242.635 1082.5 242.455C1080.88 242.125 1079.47 241.69 1078.27 241.15C1077.07 240.61 1076.06 239.935 1075.25 239.125C1074.44 238.315 1073.84 237.4 1073.45 236.38C1073.06 235.33 1072.87 234.16 1072.87 232.87C1072.87 231.16 1073.35 229.645 1074.31 228.325C1075.27 227.005 1076.56 225.97 1078.18 225.22C1079.83 224.44 1081.67 224.05 1083.71 224.05C1086.14 224.05 1088.26 224.53 1090.06 225.49C1091.89 226.42 1093.33 227.785 1094.38 229.585L1090.96 232.96C1090.06 231.49 1088.98 230.365 1087.72 229.585C1086.49 228.805 1085.11 228.415 1083.58 228.415C1082.41 228.415 1081.39 228.595 1080.52 228.955C1079.65 229.315 1078.96 229.825 1078.45 230.485C1077.97 231.115 1077.73 231.865 1077.73 232.735C1077.73 233.365 1077.85 233.95 1078.09 234.49C1078.33 235 1078.69 235.465 1079.17 235.885C1079.68 236.275 1080.35 236.635 1081.19 236.965C1082.03 237.265 1083.04 237.535 1084.21 237.775C1085.86 238.135 1087.33 238.6 1088.62 239.17C1089.91 239.71 1091 240.355 1091.9 241.105C1092.8 241.855 1093.48 242.695 1093.93 243.625C1094.41 244.555 1094.65 245.56 1094.65 246.64C1094.65 248.65 1094.18 250.39 1093.25 251.86C1092.32 253.33 1091 254.47 1089.29 255.28C1087.58 256.06 1085.54 256.45 1083.17 256.45Z" fill="#333333"/>
<path d="M857 0H1224V367H857V0Z" fill="#FDDCA7"/>
<path d="M857 0H1224V367H857V0Z" fill="#FDDCA7"/>
<rect x="1278" width="367" height="367" fill="#F19464"/>
<path d="M957.515 201L962.915 169.5H966.965L961.565 201H957.515ZM942.395 193.215V189.48H968.45V193.215H942.395ZM945.545 201L950.945 169.5H954.995L949.595 201H945.545ZM944.105 180.615V176.88H970.115V180.615H944.105ZM975.908 201V169.5H980.768V201H975.908ZM978.068 187.59V182.91H994.313V187.59H978.068ZM978.068 174.18V169.5H996.338V174.18H978.068ZM1002.98 201V169.5H1015.31C1017.56 169.5 1019.58 169.875 1021.38 170.625C1023.21 171.375 1024.77 172.455 1026.06 173.865C1027.35 175.275 1028.34 176.94 1029.03 178.86C1029.72 180.78 1030.07 182.91 1030.07 185.25C1030.07 187.59 1029.72 189.735 1029.03 191.685C1028.34 193.605 1027.35 195.27 1026.06 196.68C1024.8 198.06 1023.26 199.125 1021.43 199.875C1019.6 200.625 1017.56 201 1015.31 201H1002.98ZM1007.84 196.815L1007.7 196.32H1015.08C1016.67 196.32 1018.08 196.065 1019.31 195.555C1020.57 195.045 1021.62 194.325 1022.46 193.395C1023.33 192.435 1023.99 191.265 1024.44 189.885C1024.89 188.505 1025.12 186.96 1025.12 185.25C1025.12 183.54 1024.89 182.01 1024.44 180.66C1023.99 179.28 1023.33 178.11 1022.46 177.15C1021.59 176.19 1020.54 175.455 1019.31 174.945C1018.08 174.435 1016.67 174.18 1015.08 174.18H1007.57L1007.84 173.775V196.815ZM1036.64 201V169.5H1048.97C1051.22 169.5 1053.25 169.875 1055.05 170.625C1056.88 171.375 1058.44 172.455 1059.73 173.865C1061.02 175.275 1062.01 176.94 1062.7 178.86C1063.39 180.78 1063.73 182.91 1063.73 185.25C1063.73 187.59 1063.39 189.735 1062.7 191.685C1062.01 193.605 1061.02 195.27 1059.73 196.68C1058.47 198.06 1056.92 199.125 1055.09 199.875C1053.26 200.625 1051.22 201 1048.97 201H1036.64ZM1041.5 196.815L1041.37 196.32H1048.75C1050.34 196.32 1051.75 196.065 1052.98 195.555C1054.24 195.045 1055.29 194.325 1056.13 193.395C1057 192.435 1057.66 191.265 1058.11 189.885C1058.56 188.505 1058.78 186.96 1058.78 185.25C1058.78 183.54 1058.56 182.01 1058.11 180.66C1057.66 179.28 1057 178.11 1056.13 177.15C1055.26 176.19 1054.21 175.455 1052.98 174.945C1051.75 174.435 1050.34 174.18 1048.75 174.18H1041.23L1041.5 173.775V196.815ZM1083.08 201.45C1080.89 201.45 1078.88 201.06 1077.05 200.28C1075.22 199.5 1073.63 198.39 1072.28 196.95C1070.93 195.48 1069.88 193.755 1069.13 191.775C1068.41 189.795 1068.05 187.62 1068.05 185.25C1068.05 183 1068.44 180.915 1069.22 178.995C1070.03 177.045 1071.14 175.335 1072.55 173.865C1073.96 172.395 1075.6 171.255 1077.46 170.445C1079.32 169.635 1081.33 169.23 1083.49 169.23C1085.02 169.23 1086.5 169.47 1087.94 169.95C1089.41 170.4 1090.73 171.045 1091.9 171.885C1093.1 172.695 1094.08 173.625 1094.83 174.675L1091.59 178.05C1090.3 176.73 1088.98 175.74 1087.63 175.08C1086.28 174.42 1084.9 174.09 1083.49 174.09C1082.02 174.09 1080.64 174.375 1079.35 174.945C1078.09 175.485 1076.98 176.25 1076.02 177.24C1075.09 178.23 1074.35 179.415 1073.81 180.795C1073.27 182.145 1073 183.63 1073 185.25C1073 186.96 1073.26 188.52 1073.77 189.93C1074.31 191.31 1075.06 192.495 1076.02 193.485C1076.98 194.475 1078.12 195.24 1079.44 195.78C1080.79 196.29 1082.27 196.545 1083.89 196.545C1084.88 196.545 1085.86 196.41 1086.82 196.14C1087.78 195.87 1088.68 195.48 1089.52 194.97C1090.36 194.46 1091.12 193.86 1091.81 193.17L1094.24 197.13C1093.55 197.94 1092.61 198.675 1091.41 199.335C1090.24 199.995 1088.92 200.52 1087.45 200.91C1086.01 201.27 1084.55 201.45 1083.08 201.45ZM1097.56 201L1109.75 169.5H1114.7L1126.81 201H1121.63L1114.43 182.01C1114.34 181.8 1114.16 181.29 1113.89 180.48C1113.65 179.67 1113.37 178.77 1113.04 177.78C1112.71 176.79 1112.41 175.89 1112.14 175.08C1111.87 174.24 1111.69 173.7 1111.6 173.46L1112.63 173.415C1112.45 173.925 1112.23 174.57 1111.96 175.35C1111.72 176.13 1111.45 176.955 1111.15 177.825C1110.88 178.695 1110.61 179.52 1110.34 180.3C1110.07 181.05 1109.84 181.68 1109.66 182.19L1102.51 201H1097.56ZM1102.96 193.17L1104.76 188.49H1119.07L1121.14 193.17H1102.96ZM1132.98 201L1146.03 172.56L1146.57 174H1130.64V169.5H1150.13L1150.76 172.605L1138.2 201H1132.98Z" fill="black"/>
<path d="M1378.52 201L1383.92 169.5H1387.97L1382.57 201H1378.52ZM1363.4 193.215V189.48H1389.45V193.215H1363.4ZM1366.55 201L1371.95 169.5H1376L1370.6 201H1366.55ZM1365.11 180.615V176.88H1391.12V180.615H1365.11ZM1396.91 201V169.5H1401.77V201H1396.91ZM1399.07 187.59V182.91H1415.31V187.59H1399.07ZM1399.07 174.18V169.5H1417.34V174.18H1399.07ZM1429.33 198.795V173.235L1431 174.495L1424.79 177.78L1423.48 173.55L1431.9 169.05H1434.24V198.795H1429.33ZM1424.34 201V196.32H1439.37V201H1424.34ZM1452.33 201L1452.15 200.55L1461.51 180.66L1461.64 184.395C1460.95 185.565 1460.14 186.585 1459.21 187.455C1458.28 188.295 1457.28 188.94 1456.2 189.39C1455.12 189.84 1454.02 190.065 1452.91 190.065C1451.2 190.065 1449.63 189.615 1448.19 188.715C1446.75 187.815 1445.59 186.615 1444.72 185.115C1443.85 183.615 1443.42 181.98 1443.42 180.21C1443.42 178.08 1443.9 176.175 1444.86 174.495C1445.82 172.785 1447.12 171.435 1448.77 170.445C1450.45 169.455 1452.33 168.96 1454.4 168.96C1455.9 168.96 1457.31 169.23 1458.63 169.77C1459.95 170.31 1461.1 171.075 1462.09 172.065C1463.08 173.025 1463.86 174.15 1464.43 175.44C1465 176.7 1465.29 178.05 1465.29 179.49C1465.29 180.24 1465.21 181.05 1465.06 181.92C1464.91 182.76 1464.66 183.72 1464.3 184.8C1463.97 185.85 1463.52 187.065 1462.95 188.445C1462.38 189.795 1461.67 191.37 1460.83 193.17L1457.1 201H1452.33ZM1453.95 185.565C1455.12 185.565 1456.17 185.31 1457.1 184.8C1458.03 184.26 1458.75 183.555 1459.26 182.685C1459.8 181.785 1460.07 180.78 1460.07 179.67C1460.07 178.5 1459.81 177.45 1459.3 176.52C1458.79 175.56 1458.07 174.81 1457.14 174.27C1456.24 173.73 1455.21 173.46 1454.04 173.46C1452.96 173.46 1452 173.73 1451.16 174.27C1450.32 174.78 1449.64 175.5 1449.13 176.43C1448.65 177.33 1448.41 178.395 1448.41 179.625C1448.41 180.675 1448.65 181.65 1449.13 182.55C1449.64 183.45 1450.32 184.185 1451.16 184.755C1452 185.295 1452.93 185.565 1453.95 185.565ZM1482.69 201V175.62L1483.82 175.89L1473.47 188.535L1473.29 187.995H1492.86V192.45H1470.27L1468.2 188.4L1483.64 169.5H1487.37V201H1482.69ZM1507.49 201C1505.93 201 1504.48 200.73 1503.13 200.19C1501.81 199.62 1500.65 198.84 1499.66 197.85C1498.7 196.86 1497.94 195.69 1497.37 194.34C1496.83 192.99 1496.56 191.505 1496.56 189.885C1496.56 188.805 1496.75 187.545 1497.14 186.105C1497.56 184.665 1498.16 183.09 1498.94 181.38C1499.75 179.67 1500.74 177.84 1501.91 175.89L1506.01 168.96H1510.73L1510.91 169.41L1505.96 177.735C1505.06 179.265 1504.25 180.72 1503.53 182.1C1502.84 183.48 1502.26 184.785 1501.78 186.015C1501.3 187.215 1500.94 188.31 1500.7 189.3L1499.62 184.665C1500.37 183.435 1501.21 182.4 1502.14 181.56C1503.07 180.72 1504.07 180.09 1505.15 179.67C1506.23 179.22 1507.39 178.995 1508.62 178.995C1510.36 178.995 1511.95 179.475 1513.39 180.435C1514.86 181.365 1516.03 182.61 1516.9 184.17C1517.8 185.73 1518.25 187.44 1518.25 189.3C1518.25 191.55 1517.78 193.56 1516.85 195.33C1515.95 197.07 1514.69 198.45 1513.07 199.47C1511.45 200.49 1509.59 201 1507.49 201ZM1507.49 196.5C1508.66 196.5 1509.7 196.23 1510.6 195.69C1511.53 195.12 1512.25 194.34 1512.76 193.35C1513.3 192.33 1513.57 191.175 1513.57 189.885C1513.57 188.775 1513.3 187.74 1512.76 186.78C1512.22 185.79 1511.5 184.995 1510.6 184.395C1509.7 183.795 1508.69 183.495 1507.58 183.495C1506.35 183.495 1505.26 183.78 1504.3 184.35C1503.34 184.92 1502.59 185.685 1502.05 186.645C1501.51 187.605 1501.24 188.67 1501.24 189.84C1501.24 191.1 1501.51 192.24 1502.05 193.26C1502.59 194.25 1503.32 195.045 1504.25 195.645C1505.18 196.215 1506.26 196.5 1507.49 196.5ZM1535.65 201V175.62L1536.77 175.89L1526.42 188.535L1526.24 187.995H1545.82V192.45H1523.23L1521.16 188.4L1536.59 169.5H1540.33V201H1535.65Z" fill="black"/>
</svg>
