<svg width="126" height="101" viewBox="0 0 126 101" fill="none" xmlns="http://www.w3.org/2000/svg">
<path fill-rule="evenodd" clip-rule="evenodd" d="M123.923 25.7714C123.827 25.7016 123.599 25.6769 123.493 25.656C123.053 25.5693 122.6 25.5315 122.151 25.5315C120.768 25.5336 119.362 25.6693 118.002 25.9044C117.139 26.0535 116.094 26.5556 115.235 26.2829C113.739 25.8079 112.226 25.8312 110.806 26.5094C109.508 27.1296 108.522 28.3074 107.947 29.5801C107.86 29.7722 107.508 30.4793 107.408 30.956C107.366 31.0534 107.325 31.1516 107.288 31.2512C107.183 31.5339 107.089 31.8217 107.002 32.11C106.965 32.233 106.871 32.5045 106.982 32.5571C106.804 32.8854 106.647 33.2239 106.515 33.5733C106.133 34.5895 105.715 35.7041 105.581 36.7812C105.531 37.18 105.53 37.5811 105.576 37.9807C105.599 38.1782 105.589 38.5753 105.723 38.7255C106.007 39.0441 106.153 38.5981 106.121 38.3856C105.876 36.7662 106.349 35.2456 106.909 33.7234C107.271 32.7391 107.865 31.8386 108.532 31.023C109.071 30.3629 109.649 29.8431 110.389 29.4054C111.293 28.8702 112.259 28.4375 113.217 28.0035C113.846 27.718 114.477 27.4401 115.124 27.194C115.268 27.1393 115.495 26.9989 115.654 26.9984C115.992 26.9972 116.47 27.2462 116.796 27.3389C117.868 27.6438 118.955 28.0341 120.063 28.1898C120.774 28.2898 121.44 28.1772 122.104 27.9404C122.172 27.9163 122.286 27.8541 122.426 27.7653C122.919 27.5754 123.386 27.3364 123.793 26.9917C124.027 26.7931 124.24 26.5364 124.433 26.3015C124.491 26.2312 124.517 26.1507 124.518 26.0742C124.562 26.0512 124.591 26.0244 124.598 25.9931C124.646 25.7619 124.205 25.7576 123.923 25.7714Z" fill="#89C5CC"/>
<path fill-rule="evenodd" clip-rule="evenodd" d="M11.5563 45.0473C11.2849 45.267 11.0187 45.4915 10.7591 45.725C10.5612 45.9031 10.211 46.1161 10.1399 46.3858C10.0661 46.666 10.2992 46.9284 10.4834 47.0978C11.4574 47.9939 12.5541 48.5997 13.9037 48.7004C15.9818 48.8556 17.7903 48.3249 19.5934 47.2807C20.8599 46.5472 21.6988 45.4623 21.8821 43.9972C23.3904 44.6241 24.8492 45.4881 26.0889 46.5486C26.7005 47.0719 27.2274 47.6516 27.7147 48.2942C28.0267 48.7058 28.3286 49.1241 28.6088 49.5585C28.7306 49.7472 28.8544 50.0819 29.0554 50.1905C29.2915 50.3182 29.5767 50.1181 29.565 49.8557C29.5553 49.6373 29.3194 49.3839 29.2092 49.2054C29.026 48.9089 28.8401 48.6143 28.6443 48.3259C28.3276 47.8591 28.0001 47.3989 27.643 46.9619C26.8405 45.9804 25.8194 45.1695 24.7609 44.4781C22.7303 43.1515 20.5017 42.3158 18.0308 42.245C16.5115 42.2014 15.2334 42.7205 13.9342 43.4957C13.1253 43.9783 12.2903 44.4529 11.5563 45.0473Z" fill="#DDE3E9"/>
<path fill-rule="evenodd" clip-rule="evenodd" d="M31.2642 38.631C29.6809 37.0005 28.0922 35.3903 26.3233 33.9545C25.2808 33.1085 24.1822 32.3392 23.1062 31.537C23.2304 31.6458 23.3521 31.7577 23.471 31.8723C23.1351 31.6443 22.6954 31.5155 22.3393 31.3044C21.9422 31.069 21.5625 30.7998 21.1901 30.5283C20.4632 29.9987 19.7472 29.4589 19 28.9569C18.1675 28.3976 17.3048 27.8808 16.4581 27.3426C15.7395 26.8858 15.0122 26.3858 14.2435 26.0124C13.8245 25.8089 13.4046 25.5676 12.9839 25.3553C12.8431 25.2843 11.4144 24.3822 11.418 24.3795C11.497 24.32 12.2159 24.6578 12.3271 24.7032C12.6519 24.8359 12.9624 24.9945 13.2747 25.1527C13.1033 24.8147 12.9676 24.4595 12.8938 24.0856C12.871 23.9702 12.6882 23.1302 12.7817 23.0597C12.8284 23.0245 13.2842 24.5275 13.3076 24.672C13.3266 24.7894 13.3238 24.9584 13.3622 25.0695C13.4242 25.249 13.4211 25.1948 13.5577 25.296C13.8082 25.4813 14.1407 25.5971 14.4118 25.7521C14.5579 25.8337 15.0105 26.1573 15.2831 26.2495C16.108 26.6501 16.944 27.2665 17.7277 27.7782C17.5221 27.3916 17.3655 26.9874 17.2514 26.5638C17.2242 26.4633 16.9313 25.5611 17.0024 25.5076C17.0823 25.4473 17.6405 26.8251 17.6735 26.9556C17.7349 27.1978 17.7477 27.4675 17.8246 27.7033C17.909 27.962 18.1723 28.0537 18.4097 28.2046C19.2831 28.7595 20.1264 29.3491 20.9557 29.9657C21.8606 28.3564 20.8173 26.413 19.9379 25.0628C19.3041 24.0896 18.4508 23.2553 17.5499 22.5269C16.3475 21.5548 14.9718 20.7782 13.5977 20.0678C11.9967 19.2401 10.2663 18.7273 8.46737 18.4903C7.52648 18.3664 6.5639 18.3699 5.6135 18.4096C5.14923 18.429 4.7036 18.4905 4.25868 18.6419C4.05815 18.7102 3.86435 18.7963 3.67549 18.8927C3.53199 18.966 3.18486 19.0433 3.10236 19.1525C2.4232 20.0364 2.07575 20.9173 2.1288 22.0281C2.17898 23.0796 2.51107 24.1317 2.96175 25.0696C3.46366 26.114 4.10919 27.0619 4.95343 27.8575C5.59754 28.4645 6.31766 28.9927 7.03304 29.5141C9.57741 31.3684 12.8032 32.9811 16.0986 32.5668C17.1653 32.4327 18.1799 32.0597 19.1281 31.5527C19.3515 31.4333 19.5736 31.3125 19.7844 31.1714C19.9267 31.0764 20.3068 30.6479 20.4498 30.6324C20.6458 30.611 21.0681 31.0098 21.252 31.1311C22.6497 32.0538 24.0108 33.0264 25.3434 34.0384C26.7612 35.1151 28.1094 36.265 29.4179 37.469C29.9744 37.9812 30.5275 38.4944 31.0679 39.0237C31.1937 39.1469 31.5013 39.6004 31.7294 39.6209C31.8737 39.6339 31.9709 39.5107 31.9504 39.3772C31.9146 39.1452 31.4263 38.7979 31.2642 38.631Z" fill="#C1DEE2"/>
<path fill-rule="evenodd" clip-rule="evenodd" d="M122.26 32.3027C121.647 32.1687 120.97 32.179 120.345 32.19C116.995 32.2356 113.705 33.8218 111.564 36.3563C109.741 38.5139 109.24 41.1965 108.88 43.9083C108.844 44.1775 108.829 44.4451 108.808 44.7148C108.804 44.7728 108.798 44.8244 108.791 44.873C108.649 44.9996 108.575 45.1472 108.659 45.3094C108.347 45.9921 108.083 46.6922 107.856 47.4142C107.19 49.5394 106.512 51.7051 106.929 53.9399C107.027 52.71 107.232 51.4525 107.478 50.2429C107.492 50.1734 107.507 50.1045 107.523 50.0359C107.525 50.0286 107.526 50.0214 107.528 50.0142C107.615 49.6438 107.728 49.2844 107.865 48.9308C107.866 48.9269 107.868 48.9231 107.869 48.9193C107.887 48.8727 107.907 48.8264 107.926 48.7801C107.965 48.6843 108.005 48.5886 108.048 48.4935C108.063 48.461 108.077 48.4283 108.09 48.3953C108.29 47.9052 108.375 47.353 108.554 46.8459C108.597 46.7306 108.641 46.6157 108.688 46.5014C108.691 46.4947 108.694 46.488 108.697 46.4813C108.824 46.1738 108.964 45.8701 109.112 45.5695C109.193 45.509 109.236 45.3588 109.305 45.2223C109.319 45.1954 109.432 45.016 109.465 44.9127C109.552 44.7438 109.639 44.5749 109.727 44.4064C109.725 44.4073 109.722 44.4083 109.719 44.4093C109.807 44.2475 109.896 44.0863 109.983 43.9258C110.002 43.8905 110.022 43.8552 110.041 43.8199C110.073 43.7636 110.104 43.7073 110.135 43.6512C110.429 43.126 110.74 42.6113 111.063 42.1031C111.179 41.9217 111.454 41.6616 111.507 41.4579C111.509 41.4503 111.509 41.4433 111.511 41.436C112.212 40.4512 113.019 39.5428 113.987 38.823C113.87 38.9495 113.621 39.3788 113.555 39.4638C113.354 39.724 113.136 39.9662 112.916 40.2114C112.524 40.6506 112.14 41.1037 111.8 41.5829C111.177 42.4593 110.639 43.3815 110.131 44.3223C110.126 44.3278 110.121 44.3331 110.116 44.3387C109.861 44.6535 109.7 45.1293 109.516 45.4894C110.244 45.1525 111.048 44.9329 111.795 44.6337C112.539 44.3354 113.264 44.0033 113.963 43.6132C114.893 43.0948 115.857 42.5094 116.735 41.847C117.741 41.2227 118.587 40.3635 119.334 39.4618C120.217 38.3949 121.026 37.3188 121.527 36.0234C121.773 35.3868 121.966 34.723 122.081 34.0516C122.086 34.0223 122.092 33.9905 122.099 33.9575C122.217 33.7256 122.322 33.4885 122.41 33.2459C122.549 32.8612 122.88 32.4379 122.26 32.3027Z" fill="#69A1AC"/>
<path fill-rule="evenodd" clip-rule="evenodd" d="M18.3412 36.8102C18.1491 36.6022 17.9333 36.4145 17.6799 36.2807C17.6159 36.2468 17.1388 36.0202 17.1077 36.0699C17.0353 36.1857 18.2835 36.7438 18.3412 36.8102ZM20.6033 35.4206C20.6017 35.4294 20.7672 35.7101 20.8122 35.7964C20.9081 35.9799 20.9966 36.167 21.0799 36.3544C20.9566 36.0234 20.8299 35.7163 20.6033 35.4206ZM9.03414 37.7057C8.8748 37.757 8.68324 37.5547 8.88991 37.5049C9.05713 37.4649 9.04893 37.4555 9.12402 37.3208C9.18499 37.2114 9.22256 37.078 9.27606 36.9632C9.38955 36.7198 9.51829 36.4876 9.67631 36.27C10.015 35.8036 10.4276 35.4017 10.8904 35.0631C11.6981 34.4721 12.6037 33.932 13.5643 33.6606C15.0917 33.2291 16.8302 33.2024 18.36 33.5016C19.3074 33.6869 20.1733 34.0089 20.8024 34.7718C21.1169 35.153 21.3637 35.5997 21.4716 36.0915C21.4998 36.2201 21.4945 36.363 21.5298 36.4889C21.5839 36.6824 21.56 36.6309 21.7864 36.6685C22.0335 36.7096 22.2804 36.7516 22.5273 36.7942C23.1736 36.906 23.8238 37.0247 24.4535 37.2062C24.6608 37.2659 24.8636 37.3388 25.0616 37.4236C25.2114 37.4876 25.8078 37.6888 25.8802 37.8833C26.0009 38.2071 25.5967 38.0603 25.4711 37.9898C25.3611 37.9281 25.2481 37.8704 25.1335 37.8174C24.845 37.6839 24.5443 37.5806 24.2369 37.4984C23.9047 37.4095 23.5657 37.3432 23.228 37.2767C22.913 37.2148 22.5969 37.1585 22.2804 37.1047C22.1045 37.0748 21.9286 37.0457 21.7526 37.0166C21.6925 37.0067 21.5864 36.9546 21.5944 37.0328C21.2245 36.9615 20.8243 36.9718 20.4475 36.9521C19.9858 36.928 19.5225 36.9083 19.0594 36.9227C18.7253 36.9332 18.391 36.9551 18.0587 37C17.8645 37.0262 17.6734 37.0646 17.4828 37.1131C17.3782 37.1399 16.9655 37.1965 16.9084 37.2877C16.9329 37.2485 17.3884 37.2865 17.4464 37.2843C17.6783 37.2756 17.9084 37.2526 18.1394 37.2268C18.5681 37.1789 18.9971 37.1539 19.4271 37.1576C19.4255 37.233 19.1317 37.3675 19.06 37.4175C18.8992 37.5298 18.7452 37.6522 18.6015 37.7864C18.3484 38.0229 18.0454 38.3158 17.8703 38.596C17.9219 38.5134 18.1764 38.406 18.2667 38.3429C18.4115 38.2418 18.5532 38.134 18.6873 38.0187C18.8112 37.9122 18.9267 37.7972 19.0403 37.6798C19.1539 37.5623 19.3081 37.318 19.4574 37.2397C19.4664 37.235 19.5315 37.2864 19.5685 37.2689C19.6057 37.2514 19.6522 37.1633 19.6616 37.1597C19.8006 37.1061 20.0646 37.1728 20.2107 37.1795C20.5895 37.197 20.9681 37.2198 21.3467 37.2407C21.464 37.2471 21.5637 37.2204 21.608 37.307C21.6552 37.3992 21.5687 37.6418 21.5441 37.7423C21.4528 38.1156 21.2906 38.4503 21.0354 38.7395C20.5574 39.2812 19.968 39.6423 19.3022 39.8839C16.7518 40.8092 14.0386 41.1797 11.489 40.2172C10.4334 39.8187 8.8438 39.1067 9.03414 37.7057Z" fill="#89C5CC"/>
<path opacity="0.6" fill-rule="evenodd" clip-rule="evenodd" d="M125.808 81.297C127.543 93.0422 85.4655 100.703 49.2485 95.3568C13.0315 90.0103 -3.5832 69.1319 13.699 58.0071C30.9811 46.8822 124.073 69.5517 125.808 81.297Z" fill="#DDE3E9"/>
<path d="M51.7823 4.31519H26.071C25.2766 4.31519 24.6326 4.95918 24.6326 5.75358V57.1763C24.6326 57.9708 25.2766 58.6147 26.071 58.6147H51.7823C52.5768 58.6147 53.2207 57.9708 53.2207 57.1763V5.75358C53.2207 4.95918 52.5768 4.31519 51.7823 4.31519Z" fill="#F2F2F2"/>
<path d="M38.8369 55.1987C40.3264 55.1987 41.5339 53.9912 41.5339 52.5017C41.5339 51.0122 40.3264 49.8047 38.8369 49.8047C37.3474 49.8047 36.1399 51.0122 36.1399 52.5017C36.1399 53.9912 37.3474 55.1987 38.8369 55.1987Z" fill="white"/>
<path d="M36.4995 7.91109C36.6981 7.91109 36.8591 7.7501 36.8591 7.55149C36.8591 7.35289 36.6981 7.19189 36.4995 7.19189C36.3009 7.19189 36.1399 7.35289 36.1399 7.55149C36.1399 7.7501 36.3009 7.91109 36.4995 7.91109Z" fill="white"/>
<path d="M41.1745 7.19189H38.1179C37.9193 7.19189 37.7583 7.35289 37.7583 7.55149C37.7583 7.7501 37.9193 7.91109 38.1179 7.91109H41.1745C41.3731 7.91109 41.5341 7.7501 41.5341 7.55149C41.5341 7.35289 41.3731 7.19189 41.1745 7.19189Z" fill="white"/>
<path d="M49.9845 9.34961H27.8691C27.4719 9.34961 27.1499 9.67161 27.1499 10.0688V18.3396C27.1499 18.7368 27.4719 19.0588 27.8691 19.0588H49.9845C50.3817 19.0588 50.7037 18.7368 50.7037 18.3396V10.0688C50.7037 9.67161 50.3817 9.34961 49.9845 9.34961Z" fill="white"/>
<path d="M46.7479 12.2625H34.7013C34.4034 12.2625 34.1619 12.5039 34.1619 12.8019V13.1794C34.1619 13.4773 34.4034 13.7188 34.7013 13.7188H46.7479C47.0458 13.7188 47.2873 13.4773 47.2873 13.1794V12.8019C47.2873 12.5039 47.0458 12.2625 46.7479 12.2625Z" fill="#DDE3E9"/>
<path d="M42.4324 14.6897H34.701C34.4031 14.6897 34.1616 14.9312 34.1616 15.2291V15.6067C34.1616 15.9046 34.4031 16.1461 34.701 16.1461H42.4324C42.7303 16.1461 42.9718 15.9046 42.9718 15.6067V15.2291C42.9718 14.9312 42.7303 14.6897 42.4324 14.6897Z" fill="#DDE3E9"/>
<path d="M30.9257 16.3618C32.1173 16.3618 33.0833 15.3958 33.0833 14.2042C33.0833 13.0126 32.1173 12.0466 30.9257 12.0466C29.7341 12.0466 28.7681 13.0126 28.7681 14.2042C28.7681 15.3958 29.7341 16.3618 30.9257 16.3618Z" fill="#C5CFD6"/>
<path d="M49.9845 20.4971H27.8691C27.4719 20.4971 27.1499 20.8191 27.1499 21.2163V27.3295C27.1499 27.7267 27.4719 28.0487 27.8691 28.0487H49.9845C50.3817 28.0487 50.7037 27.7267 50.7037 27.3295V21.2163C50.7037 20.8191 50.3817 20.4971 49.9845 20.4971Z" fill="white"/>
<path d="M46.7479 22.7627H34.7013C34.4034 22.7627 34.1619 23.0042 34.1619 23.3021V23.356C34.1619 23.6539 34.4034 23.8954 34.7013 23.8954H46.7479C47.0458 23.8954 47.2873 23.6539 47.2873 23.356V23.3021C47.2873 23.0042 47.0458 22.7627 46.7479 22.7627Z" fill="#DDE3E9"/>
<path d="M42.4324 24.6506H34.701C34.4031 24.6506 34.1616 24.8921 34.1616 25.19V25.244C34.1616 25.5419 34.4031 25.7834 34.701 25.7834H42.4324C42.7303 25.7834 42.9718 25.5419 42.9718 25.244V25.19C42.9718 24.8921 42.7303 24.6506 42.4324 24.6506Z" fill="#DDE3E9"/>
<path d="M30.9257 26.4307C32.1173 26.4307 33.0833 25.4647 33.0833 24.2731C33.0833 23.0815 32.1173 22.1155 30.9257 22.1155C29.7341 22.1155 28.7681 23.0815 28.7681 24.2731C28.7681 25.4647 29.7341 26.4307 30.9257 26.4307Z" fill="#C5CFD6"/>
<path d="M49.9845 29.4871H27.8691C27.4719 29.4871 27.1499 29.8091 27.1499 30.2063V36.3195C27.1499 36.7167 27.4719 37.0387 27.8691 37.0387H49.9845C50.3817 37.0387 50.7037 36.7167 50.7037 36.3195V30.2063C50.7037 29.8091 50.3817 29.4871 49.9845 29.4871Z" fill="white"/>
<path d="M46.7479 31.7527H34.7013C34.4034 31.7527 34.1619 31.9942 34.1619 32.2921V32.346C34.1619 32.6439 34.4034 32.8854 34.7013 32.8854H46.7479C47.0458 32.8854 47.2873 32.6439 47.2873 32.346V32.2921C47.2873 31.9942 47.0458 31.7527 46.7479 31.7527Z" fill="#DDE3E9"/>
<path d="M42.4324 33.6406H34.701C34.4031 33.6406 34.1616 33.8821 34.1616 34.18V34.234C34.1616 34.5319 34.4031 34.7734 34.701 34.7734H42.4324C42.7303 34.7734 42.9718 34.5319 42.9718 34.234V34.18C42.9718 33.8821 42.7303 33.6406 42.4324 33.6406Z" fill="#DDE3E9"/>
<path d="M30.9257 35.4207C32.1173 35.4207 33.0833 34.4547 33.0833 33.2631C33.0833 32.0715 32.1173 31.1055 30.9257 31.1055C29.7341 31.1055 28.7681 32.0715 28.7681 33.2631C28.7681 34.4547 29.7341 35.4207 30.9257 35.4207Z" fill="#AFB9C5"/>
<path d="M49.9845 38.4771H27.8691C27.4719 38.4771 27.1499 38.799 27.1499 39.1963V45.3094C27.1499 45.7066 27.4719 46.0286 27.8691 46.0286H49.9845C50.3817 46.0286 50.7037 45.7066 50.7037 45.3094V39.1963C50.7037 38.799 50.3817 38.4771 49.9845 38.4771Z" fill="white"/>
<path d="M46.7479 40.7427H34.7013C34.4034 40.7427 34.1619 40.9842 34.1619 41.2821V41.336C34.1619 41.6339 34.4034 41.8754 34.7013 41.8754H46.7479C47.0458 41.8754 47.2873 41.6339 47.2873 41.336V41.2821C47.2873 40.9842 47.0458 40.7427 46.7479 40.7427Z" fill="#DDE3E9"/>
<path d="M42.4324 42.6306H34.701C34.4031 42.6306 34.1616 42.8721 34.1616 43.17V43.224C34.1616 43.5219 34.4031 43.7634 34.701 43.7634H42.4324C42.7303 43.7634 42.9718 43.5219 42.9718 43.224V43.17C42.9718 42.8721 42.7303 42.6306 42.4324 42.6306Z" fill="#DDE3E9"/>
<path d="M30.9257 44.4107C32.1173 44.4107 33.0833 43.4447 33.0833 42.2531C33.0833 41.0614 32.1173 40.0955 30.9257 40.0955C29.7341 40.0955 28.7681 41.0614 28.7681 42.2531C28.7681 43.4447 29.7341 44.4107 30.9257 44.4107Z" fill="#C5CFD6"/>
<path fill-rule="evenodd" clip-rule="evenodd" d="M30.0514 48.1863C29.8132 48.1863 29.5758 48.1911 29.3379 48.2034C29.1565 48.2129 28.8794 48.1753 28.7259 48.2884C28.5665 48.4058 28.5775 48.6461 28.6024 48.8158C28.7341 49.7133 29.0554 50.5091 29.7276 51.145C30.7627 52.1241 31.9492 52.6216 33.3533 52.8431C34.3397 52.9987 35.2502 52.7827 35.9762 52.0813C36.5067 53.0659 36.9092 54.1554 37.1111 55.2551C37.2107 55.7978 37.2412 56.3338 37.2236 56.8864C37.2124 57.2403 37.1928 57.5933 37.1549 57.9456C37.1385 58.0986 37.0604 58.3303 37.1203 58.4749C37.1907 58.6448 37.4278 58.6612 37.5343 58.5164C37.6229 58.3959 37.6066 58.1591 37.6248 58.0165C37.6549 57.7795 37.6829 57.5424 37.7029 57.3043C37.7353 56.919 37.7593 56.5325 37.7576 56.1457C37.7535 55.2767 37.5603 54.4042 37.296 53.5793C36.789 51.9966 35.9663 50.5901 34.6868 49.4865C33.9001 48.8079 32.9997 48.5331 31.9781 48.3855C31.3421 48.2937 30.6957 48.1863 30.0514 48.1863Z" fill="#89C5CC"/>
<path fill-rule="evenodd" clip-rule="evenodd" d="M33.725 54.4792C31.154 54.4792 29.4225 56.5513 28.6038 58.7048C28.2952 59.5166 28.2228 60.4079 28.1039 61.2603C28.0657 61.5338 28.0799 61.9506 27.9688 62.1943C27.9285 62.2827 27.8362 62.3145 27.8803 62.4348C27.9071 62.5078 27.9595 62.5524 28.0383 62.5669C28.2 62.5967 28.4287 62.4205 28.5673 62.351C29.7173 61.7743 30.4729 60.8825 31.0893 59.7914C31.4714 59.1151 31.8591 58.4131 32.0861 57.6707C32.2247 57.2171 32.3054 56.7395 32.3528 56.269C32.3715 56.0837 32.3895 55.894 32.3884 55.7076C32.3873 55.5226 32.3013 55.4248 32.2394 55.2638C33.0973 54.9391 34.0656 54.8506 34.9345 55.1871C35.7382 55.4984 36.4059 56.0998 36.7797 56.8554C36.8768 57.0518 36.9517 57.259 37.0063 57.4703C37.042 57.6088 37.0437 57.7884 37.1099 57.9135C37.2704 58.2169 37.6081 58.014 37.5757 57.7316C37.4853 56.9439 37.0346 56.153 36.4586 55.6053C35.7321 54.9145 34.7474 54.4792 33.725 54.4792Z" fill="#89C5CC"/>
<path d="M63.649 8.98999H37.9377C37.1433 8.98999 36.4993 9.63398 36.4993 10.4284V61.8512C36.4993 62.6456 37.1433 63.2896 37.9377 63.2896H63.649C64.4435 63.2896 65.0874 62.6456 65.0874 61.8512V10.4284C65.0874 9.63398 64.4435 8.98999 63.649 8.98999Z" fill="#DDE3E9"/>
<path d="M50.7036 59.8732C52.1931 59.8732 53.4006 58.6658 53.4006 57.1762C53.4006 55.6867 52.1931 54.4792 50.7036 54.4792C49.2141 54.4792 48.0066 55.6867 48.0066 57.1762C48.0066 58.6658 49.2141 59.8732 50.7036 59.8732Z" fill="white"/>
<path d="M48.3662 12.5859C48.5648 12.5859 48.7258 12.4249 48.7258 12.2263C48.7258 12.0277 48.5648 11.8667 48.3662 11.8667C48.1676 11.8667 48.0066 12.0277 48.0066 12.2263C48.0066 12.4249 48.1676 12.5859 48.3662 12.5859Z" fill="white"/>
<path d="M53.0412 11.8667H49.9846C49.786 11.8667 49.625 12.0277 49.625 12.2263C49.625 12.4249 49.786 12.5859 49.9846 12.5859H53.0412C53.2398 12.5859 53.4008 12.4249 53.4008 12.2263C53.4008 12.0277 53.2398 11.8667 53.0412 11.8667Z" fill="white"/>
<path d="M61.8512 14.0244H39.7358C39.3386 14.0244 39.0166 14.3464 39.0166 14.7436V23.0144C39.0166 23.4116 39.3386 23.7336 39.7358 23.7336H61.8512C62.2484 23.7336 62.5704 23.4116 62.5704 23.0144V14.7436C62.5704 14.3464 62.2484 14.0244 61.8512 14.0244Z" fill="white"/>
<path d="M53.2208 16.9373H41.1742C40.8763 16.9373 40.6348 17.1788 40.6348 17.4767V17.8542C40.6348 18.1521 40.8763 18.3936 41.1742 18.3936H53.2208C53.5187 18.3936 53.7602 18.1521 53.7602 17.8542V17.4767C53.7602 17.1788 53.5187 16.9373 53.2208 16.9373Z" fill="#DDE3E9"/>
<path d="M48.9056 19.3645H41.1742C40.8763 19.3645 40.6348 19.606 40.6348 19.9039V20.2815C40.6348 20.5794 40.8763 20.8209 41.1742 20.8209H48.9056C49.2035 20.8209 49.445 20.5794 49.445 20.2815V19.9039C49.445 19.606 49.2035 19.3645 48.9056 19.3645Z" fill="#DDE3E9"/>
<path d="M60.0533 20.1376C60.7484 20.1376 61.3119 19.5741 61.3119 18.879C61.3119 18.1839 60.7484 17.6204 60.0533 17.6204C59.3582 17.6204 58.7947 18.1839 58.7947 18.879C58.7947 19.5741 59.3582 20.1376 60.0533 20.1376Z" fill="#DDE3E9"/>
<path d="M60.0531 19.4184C60.351 19.4184 60.5925 19.1769 60.5925 18.879C60.5925 18.5811 60.351 18.3396 60.0531 18.3396C59.7552 18.3396 59.5137 18.5811 59.5137 18.879C59.5137 19.1769 59.7552 19.4184 60.0531 19.4184Z" fill="#F2F2F2"/>
<path d="M61.8512 25.1719H39.7358C39.3386 25.1719 39.0166 25.4939 39.0166 25.8911V32.0043C39.0166 32.4015 39.3386 32.7235 39.7358 32.7235H61.8512C62.2484 32.7235 62.5704 32.4015 62.5704 32.0043V25.8911C62.5704 25.4939 62.2484 25.1719 61.8512 25.1719Z" fill="white"/>
<path d="M58.6148 27.4375H46.5682C46.2703 27.4375 46.0288 27.679 46.0288 27.9769V28.0308C46.0288 28.3287 46.2703 28.5702 46.5682 28.5702H58.6148C58.9127 28.5702 59.1542 28.3287 59.1542 28.0308V27.9769C59.1542 27.679 58.9127 27.4375 58.6148 27.4375Z" fill="#DDE3E9"/>
<path d="M54.2996 29.3254H46.5682C46.2703 29.3254 46.0288 29.5669 46.0288 29.8648V29.9188C46.0288 30.2167 46.2703 30.4582 46.5682 30.4582H54.2996C54.5975 30.4582 54.839 30.2167 54.839 29.9188V29.8648C54.839 29.5669 54.5975 29.3254 54.2996 29.3254Z" fill="#DDE3E9"/>
<path d="M42.7924 31.1055C43.984 31.1055 44.95 30.1395 44.95 28.9479C44.95 27.7563 43.984 26.7903 42.7924 26.7903C41.6008 26.7903 40.6348 27.7563 40.6348 28.9479C40.6348 30.1395 41.6008 31.1055 42.7924 31.1055Z" fill="#C5CFD6"/>
<path d="M61.8512 34.1619H39.7358C39.3386 34.1619 39.0166 34.4839 39.0166 34.8811V40.9943C39.0166 41.3915 39.3386 41.7135 39.7358 41.7135H61.8512C62.2484 41.7135 62.5704 41.3915 62.5704 40.9943V34.8811C62.5704 34.4839 62.2484 34.1619 61.8512 34.1619Z" fill="white"/>
<path d="M53.2208 36.4275H41.1742C40.8763 36.4275 40.6348 36.669 40.6348 36.9669V37.0208C40.6348 37.3187 40.8763 37.5602 41.1742 37.5602H53.2208C53.5187 37.5602 53.7602 37.3187 53.7602 37.0208V36.9669C53.7602 36.669 53.5187 36.4275 53.2208 36.4275Z" fill="#DDE3E9"/>
<path d="M48.9056 38.3154H41.1742C40.8763 38.3154 40.6348 38.5569 40.6348 38.8548V38.9088C40.6348 39.2067 40.8763 39.4482 41.1742 39.4482H48.9056C49.2035 39.4482 49.445 39.2067 49.445 38.9088V38.8548C49.445 38.5569 49.2035 38.3154 48.9056 38.3154Z" fill="#AFB9C5"/>
<path d="M60.0533 39.1964C60.7484 39.1964 61.3119 38.6329 61.3119 37.9378C61.3119 37.2427 60.7484 36.6792 60.0533 36.6792C59.3582 36.6792 58.7947 37.2427 58.7947 37.9378C58.7947 38.6329 59.3582 39.1964 60.0533 39.1964Z" fill="#DDE3E9"/>
<path d="M60.0531 38.4772C60.351 38.4772 60.5925 38.2357 60.5925 37.9378C60.5925 37.6399 60.351 37.3984 60.0531 37.3984C59.7552 37.3984 59.5137 37.6399 59.5137 37.9378C59.5137 38.2357 59.7552 38.4772 60.0531 38.4772Z" fill="#F2F2F2"/>
<path d="M61.8512 43.1519H39.7358C39.3386 43.1519 39.0166 43.4739 39.0166 43.8711V49.9843C39.0166 50.3815 39.3386 50.7035 39.7358 50.7035H61.8512C62.2484 50.7035 62.5704 50.3815 62.5704 49.9843V43.8711C62.5704 43.4739 62.2484 43.1519 61.8512 43.1519Z" fill="white"/>
<path d="M58.6148 45.4175H46.5682C46.2703 45.4175 46.0288 45.659 46.0288 45.9569V46.0108C46.0288 46.3087 46.2703 46.5502 46.5682 46.5502H58.6148C58.9127 46.5502 59.1542 46.3087 59.1542 46.0108V45.9569C59.1542 45.659 58.9127 45.4175 58.6148 45.4175Z" fill="#DDE3E9"/>
<path d="M54.2996 47.3054H46.5682C46.2703 47.3054 46.0288 47.5469 46.0288 47.8448V47.8988C46.0288 48.1967 46.2703 48.4382 46.5682 48.4382H54.2996C54.5975 48.4382 54.839 48.1967 54.839 47.8988V47.8448C54.839 47.5469 54.5975 47.3054 54.2996 47.3054Z" fill="#DDE3E9"/>
<path d="M42.7924 49.0855C43.984 49.0855 44.95 48.1195 44.95 46.9279C44.95 45.7363 43.984 44.7703 42.7924 44.7703C41.6008 44.7703 40.6348 45.7363 40.6348 46.9279C40.6348 48.1195 41.6008 49.0855 42.7924 49.0855Z" fill="#C5CFD6"/>
<path d="M107.161 13.4851H49.8046C49.0102 13.4851 48.3662 14.1291 48.3662 14.9235V74.2575C48.3662 75.0519 49.0102 75.6959 49.8046 75.6959H107.161C107.955 75.6959 108.599 75.0519 108.599 74.2575V14.9235C108.599 14.1291 107.955 13.4851 107.161 13.4851Z" fill="#F2F2F2"/>
<path d="M104.284 21.2163H94.5746C93.7802 21.2163 93.1362 21.8603 93.1362 22.6547V34.3417C93.1362 35.1361 93.7802 35.7801 94.5746 35.7801H104.284C105.078 35.7801 105.722 35.1361 105.722 34.3417V22.6547C105.722 21.8603 105.078 21.2163 104.284 21.2163Z" fill="white"/>
<path d="M99.429 29.6669C101.018 29.6669 102.306 28.3789 102.306 26.7901C102.306 25.2013 101.018 23.9133 99.429 23.9133C97.8402 23.9133 96.5522 25.2013 96.5522 26.7901C96.5522 28.3789 97.8402 29.6669 99.429 29.6669Z" fill="#DDE3E9"/>
<path d="M103.385 30.3862H95.4735C95.1756 30.3862 94.9341 30.6277 94.9341 30.9256C94.9341 31.2235 95.1756 31.465 95.4735 31.465H103.385C103.683 31.465 103.924 31.2235 103.924 30.9256C103.924 30.6277 103.683 30.3862 103.385 30.3862Z" fill="#DDE3E9"/>
<path d="M101.946 32.1841H96.912C96.6141 32.1841 96.3726 32.4256 96.3726 32.7235C96.3726 33.0214 96.6141 33.2629 96.912 33.2629H101.946C102.244 33.2629 102.486 33.0214 102.486 32.7235C102.486 32.4256 102.244 32.1841 101.946 32.1841Z" fill="#DDE3E9"/>
<path fill-rule="evenodd" clip-rule="evenodd" d="M49.8046 13.4851H107.161C107.955 13.4851 108.599 14.1291 108.599 14.9235V18.3397H48.3662V14.9235C48.3662 14.1291 49.0102 13.4851 49.8046 13.4851Z" fill="#C5CFD6"/>
<path d="M50.7036 16.7214C51.1008 16.7214 51.4228 16.3994 51.4228 16.0022C51.4228 15.605 51.1008 15.283 50.7036 15.283C50.3064 15.283 49.9844 15.605 49.9844 16.0022C49.9844 16.3994 50.3064 16.7214 50.7036 16.7214Z" fill="#F2F2F2"/>
<path d="M52.861 16.7214C53.2582 16.7214 53.5802 16.3994 53.5802 16.0022C53.5802 15.605 53.2582 15.283 52.861 15.283C52.4638 15.283 52.1418 15.605 52.1418 16.0022C52.1418 16.3994 52.4638 16.7214 52.861 16.7214Z" fill="#F2F2F2"/>
<path d="M55.0188 16.7214C55.416 16.7214 55.738 16.3994 55.738 16.0022C55.738 15.605 55.416 15.283 55.0188 15.283C54.6216 15.283 54.2996 15.605 54.2996 16.0022C54.2996 16.3994 54.6216 16.7214 55.0188 16.7214Z" fill="#F2F2F2"/>
<path d="M104.284 37.2185H94.5746C93.7802 37.2185 93.1362 37.8625 93.1362 38.6569V70.6613C93.1362 71.4557 93.7802 72.0997 94.5746 72.0997H104.284C105.078 72.0997 105.722 71.4557 105.722 70.6613V38.6569C105.722 37.8625 105.078 37.2185 104.284 37.2185Z" fill="white"/>
<path d="M101.767 40.4551H97.092C96.6948 40.4551 96.3728 40.7771 96.3728 41.1743V44.4107C96.3728 44.8079 96.6948 45.1299 97.092 45.1299H101.767C102.164 45.1299 102.486 44.8079 102.486 44.4107V41.1743C102.486 40.7771 102.164 40.4551 101.767 40.4551Z" fill="#DDE3E9"/>
<path d="M101.767 46.5681H97.092C96.6948 46.5681 96.3728 46.8901 96.3728 47.2873V50.3439C96.3728 50.7411 96.6948 51.0631 97.092 51.0631H101.767C102.164 51.0631 102.486 50.7411 102.486 50.3439V47.2873C102.486 46.8901 102.164 46.5681 101.767 46.5681Z" fill="#AFB9C5"/>
<path d="M101.767 52.5015H97.092C96.6948 52.5015 96.3728 52.8235 96.3728 53.2207V56.2773C96.3728 56.6745 96.6948 56.9965 97.092 56.9965H101.767C102.164 56.9965 102.486 56.6745 102.486 56.2773V53.2207C102.486 52.8235 102.164 52.5015 101.767 52.5015Z" fill="#DDE3E9"/>
<path d="M101.767 64.3684H97.092C96.6948 64.3684 96.3728 64.6904 96.3728 65.0876V68.1442C96.3728 68.5414 96.6948 68.8634 97.092 68.8634H101.767C102.164 68.8634 102.486 68.5414 102.486 68.1442V65.0876C102.486 64.6904 102.164 64.3684 101.767 64.3684Z" fill="#DDE3E9"/>
<path d="M101.767 58.4351H97.092C96.6948 58.4351 96.3728 58.7571 96.3728 59.1543V62.2109C96.3728 62.6081 96.6948 62.9301 97.092 62.9301H101.767C102.164 62.9301 102.486 62.6081 102.486 62.2109V59.1543C102.486 58.7571 102.164 58.4351 101.767 58.4351Z" fill="#C5CFD6"/>
<path d="M90.9787 21.3962H51.9621C51.5649 21.3962 51.2429 21.7182 51.2429 22.1154V29.1276C51.2429 29.5248 51.5649 29.8468 51.9621 29.8468H90.9787C91.3759 29.8468 91.6979 29.5248 91.6979 29.1276V22.1154C91.6979 21.7182 91.3759 21.3962 90.9787 21.3962Z" fill="white"/>
<path d="M82.3483 23.9314H53.4005C53.1026 23.9314 52.8611 24.1729 52.8611 24.4708V24.6596C52.8611 24.9575 53.1026 25.199 53.4005 25.199H82.3483C82.6462 25.199 82.8877 24.9575 82.8877 24.6596V24.4708C82.8877 24.1729 82.6462 23.9314 82.3483 23.9314Z" fill="#DDE3E9"/>
<path d="M72.4763 26.0439H53.4002C53.1023 26.0439 52.8608 26.2854 52.8608 26.5833V26.7721C52.8608 27.07 53.1023 27.3115 53.4002 27.3115H72.4763C72.7742 27.3115 73.0157 27.07 73.0157 26.7721V26.5833C73.0157 26.2854 72.7742 26.0439 72.4763 26.0439Z" fill="#DDE3E9"/>
<path d="M87.3746 26.88C88.0697 26.88 88.6332 26.3165 88.6332 25.6214C88.6332 24.9263 88.0697 24.3628 87.3746 24.3628C86.6795 24.3628 86.116 24.9263 86.116 25.6214C86.116 26.3165 86.6795 26.88 87.3746 26.88Z" fill="#DDE3E9"/>
<path d="M87.3746 26.1608C87.6725 26.1608 87.914 25.9193 87.914 25.6214C87.914 25.3235 87.6725 25.082 87.3746 25.082C87.0767 25.082 86.8352 25.3235 86.8352 25.6214C86.8352 25.9193 87.0767 26.1608 87.3746 26.1608Z" fill="#F2F2F2"/>
<path d="M90.9787 31.2852H51.9621C51.5649 31.2852 51.2429 31.6072 51.2429 32.0044V37.5782C51.2429 37.9754 51.5649 38.2974 51.9621 38.2974H90.9787C91.3759 38.2974 91.6979 37.9754 91.6979 37.5782V32.0044C91.6979 31.6072 91.3759 31.2852 90.9787 31.2852Z" fill="white"/>
<path d="M82.3617 33.3889H53.387C53.0965 33.3889 52.8611 33.6244 52.8611 33.9148C52.8611 34.2053 53.0965 34.4407 53.387 34.4407H82.3617C82.6522 34.4407 82.8877 34.2053 82.8877 33.9148C82.8877 33.6244 82.6522 33.3889 82.3617 33.3889Z" fill="#DDE3E9"/>
<path d="M72.4897 35.1418H53.3868C53.0963 35.1418 52.8608 35.3773 52.8608 35.6678C52.8608 35.9582 53.0963 36.1937 53.3868 36.1937H72.4897C72.7802 36.1937 73.0157 35.9582 73.0157 35.6678C73.0157 35.3773 72.7802 35.1418 72.4897 35.1418Z" fill="#DDE3E9"/>
<path d="M87.3746 36.0499C88.0697 36.0499 88.6332 35.4864 88.6332 34.7913C88.6332 34.0962 88.0697 33.5327 87.3746 33.5327C86.6795 33.5327 86.116 34.0962 86.116 34.7913C86.116 35.4864 86.6795 36.0499 87.3746 36.0499Z" fill="#DDE3E9"/>
<path d="M87.3746 35.3308C87.6725 35.3308 87.914 35.0893 87.914 34.7914C87.914 34.4935 87.6725 34.252 87.3746 34.252C87.0767 34.252 86.8352 34.4935 86.8352 34.7914C86.8352 35.0893 87.0767 35.3308 87.3746 35.3308Z" fill="#F2F2F2"/>
<path d="M90.9787 39.7358H51.9621C51.5649 39.7358 51.2429 40.0578 51.2429 40.455V46.0288C51.2429 46.426 51.5649 46.748 51.9621 46.748H90.9787C91.3759 46.748 91.6979 46.426 91.6979 46.0288V40.455C91.6979 40.0578 91.3759 39.7358 90.9787 39.7358Z" fill="white"/>
<path d="M82.3617 41.8394H53.387C53.0965 41.8394 52.8611 42.0748 52.8611 42.3653C52.8611 42.6557 53.0965 42.8912 53.387 42.8912H82.3617C82.6522 42.8912 82.8877 42.6557 82.8877 42.3653C82.8877 42.0748 82.6522 41.8394 82.3617 41.8394Z" fill="#DDE3E9"/>
<path d="M72.4897 43.5925H53.3868C53.0963 43.5925 52.8608 43.828 52.8608 44.1184C52.8608 44.4089 53.0963 44.6444 53.3868 44.6444H72.4897C72.7802 44.6444 73.0157 44.4089 73.0157 44.1184C73.0157 43.828 72.7802 43.5925 72.4897 43.5925Z" fill="#DDE3E9"/>
<path d="M87.3746 44.5004C88.0697 44.5004 88.6332 43.9369 88.6332 43.2418C88.6332 42.5466 88.0697 41.9832 87.3746 41.9832C86.6795 41.9832 86.116 42.5466 86.116 43.2418C86.116 43.9369 86.6795 44.5004 87.3746 44.5004Z" fill="#DDE3E9"/>
<path d="M87.3746 43.7812C87.6725 43.7812 87.914 43.5397 87.914 43.2418C87.914 42.9439 87.6725 42.7024 87.3746 42.7024C87.0767 42.7024 86.8352 42.9439 86.8352 43.2418C86.8352 43.5397 87.0767 43.7812 87.3746 43.7812Z" fill="#AFB9C5"/>
<path d="M90.9787 65.0876H51.9621C51.5649 65.0876 51.2429 65.4096 51.2429 65.8068V71.3806C51.2429 71.7778 51.5649 72.0998 51.9621 72.0998H90.9787C91.3759 72.0998 91.6979 71.7778 91.6979 71.3806V65.8068C91.6979 65.4096 91.3759 65.0876 90.9787 65.0876Z" fill="white"/>
<path d="M82.3617 67.1912H53.387C53.0965 67.1912 52.8611 67.4266 52.8611 67.7171C52.8611 68.0075 53.0965 68.243 53.387 68.243H82.3617C82.6522 68.243 82.8877 68.0075 82.8877 67.7171C82.8877 67.4266 82.6522 67.1912 82.3617 67.1912Z" fill="#DDE3E9"/>
<path d="M72.4897 68.9443H53.3868C53.0963 68.9443 52.8608 69.1798 52.8608 69.4702C52.8608 69.7607 53.0963 69.9962 53.3868 69.9962H72.4897C72.7802 69.9962 73.0157 69.7607 73.0157 69.4702C73.0157 69.1798 72.7802 68.9443 72.4897 68.9443Z" fill="#DDE3E9"/>
<path d="M87.3746 69.8522C88.0697 69.8522 88.6332 69.2887 88.6332 68.5936C88.6332 67.8985 88.0697 67.335 87.3746 67.335C86.6795 67.335 86.116 67.8985 86.116 68.5936C86.116 69.2887 86.6795 69.8522 87.3746 69.8522Z" fill="#DDE3E9"/>
<path d="M87.3746 69.133C87.6725 69.133 87.914 68.8915 87.914 68.5936C87.914 68.2957 87.6725 68.0542 87.3746 68.0542C87.0767 68.0542 86.8352 68.2957 86.8352 68.5936C86.8352 68.8915 87.0767 69.133 87.3746 69.133Z" fill="#F2F2F2"/>
<path d="M90.9787 56.637H51.9621C51.5649 56.637 51.2429 56.959 51.2429 57.3562V62.93C51.2429 63.3272 51.5649 63.6492 51.9621 63.6492H90.9787C91.3759 63.6492 91.6979 63.3272 91.6979 62.93V57.3562C91.6979 56.959 91.3759 56.637 90.9787 56.637Z" fill="white"/>
<path d="M82.3617 58.7407H53.387C53.0965 58.7407 52.8611 58.9762 52.8611 59.2666C52.8611 59.5571 53.0965 59.7926 53.387 59.7926H82.3617C82.6522 59.7926 82.8877 59.5571 82.8877 59.2666C82.8877 58.9762 82.6522 58.7407 82.3617 58.7407Z" fill="#DDE3E9"/>
<path d="M72.4897 60.4937H53.3868C53.0963 60.4937 52.8608 60.7291 52.8608 61.0196C52.8608 61.31 53.0963 61.5455 53.3868 61.5455H72.4897C72.7802 61.5455 73.0157 61.31 73.0157 61.0196C73.0157 60.7291 72.7802 60.4937 72.4897 60.4937Z" fill="#DDE3E9"/>
<path d="M87.3746 61.4017C88.0697 61.4017 88.6332 60.8382 88.6332 60.1431C88.6332 59.448 88.0697 58.8845 87.3746 58.8845C86.6795 58.8845 86.116 59.448 86.116 60.1431C86.116 60.8382 86.6795 61.4017 87.3746 61.4017Z" fill="#DDE3E9"/>
<path d="M87.3746 60.6826C87.6725 60.6826 87.914 60.4411 87.914 60.1432C87.914 59.8453 87.6725 59.6038 87.3746 59.6038C87.0767 59.6038 86.8352 59.8453 86.8352 60.1432C86.8352 60.4411 87.0767 60.6826 87.3746 60.6826Z" fill="#F2F2F2"/>
<path d="M90.9787 48.1863H51.9621C51.5649 48.1863 51.2429 48.5083 51.2429 48.9055V54.4793C51.2429 54.8765 51.5649 55.1985 51.9621 55.1985H90.9787C91.3759 55.1985 91.6979 54.8765 91.6979 54.4793V48.9055C91.6979 48.5083 91.3759 48.1863 90.9787 48.1863Z" fill="white"/>
<path d="M82.3617 50.29H53.387C53.0965 50.29 52.8611 50.5255 52.8611 50.816C52.8611 51.1064 53.0965 51.3419 53.387 51.3419H82.3617C82.6522 51.3419 82.8877 51.1064 82.8877 50.816C82.8877 50.5255 82.6522 50.29 82.3617 50.29Z" fill="#DDE3E9"/>
<path d="M72.4897 52.043H53.3868C53.0963 52.043 52.8608 52.2784 52.8608 52.5689C52.8608 52.8593 53.0963 53.0948 53.3868 53.0948H72.4897C72.7802 53.0948 73.0157 52.8593 73.0157 52.5689C73.0157 52.2784 72.7802 52.043 72.4897 52.043Z" fill="#DDE3E9"/>
<path d="M87.3746 52.951C88.0697 52.951 88.6332 52.3875 88.6332 51.6924C88.6332 50.9973 88.0697 50.4338 87.3746 50.4338C86.6795 50.4338 86.116 50.9973 86.116 51.6924C86.116 52.3875 86.6795 52.951 87.3746 52.951Z" fill="#DDE3E9"/>
<path d="M87.3746 52.2319C87.6725 52.2319 87.914 51.9904 87.914 51.6925C87.914 51.3946 87.6725 51.1531 87.3746 51.1531C87.0767 51.1531 86.8352 51.3946 86.8352 51.6925C86.8352 51.9904 87.0767 52.2319 87.3746 52.2319Z" fill="#F2F2F2"/>
<path fill-rule="evenodd" clip-rule="evenodd" d="M123.52 44.1184C122.811 43.6375 121.868 43.5115 121.019 43.5115C117.704 43.5115 114.588 44.7413 111.897 46.5738C110.422 47.5779 109.103 48.8566 107.938 50.1879C107.265 50.9564 106.666 51.7878 106.241 52.7124C105.955 53.3365 105.758 53.9867 105.625 54.6574C105.463 55.4748 105.334 56.3088 105.275 57.1398C105.252 57.467 105.062 59.2034 105.606 59.2328C105.603 59.2756 105.603 59.3164 105.606 59.353C104.424 61.2002 103.695 63.365 103.018 65.4175C102.429 67.2035 101.904 69.0047 101.563 70.8524C101.115 73.285 100.82 75.7542 100.68 78.2218C100.65 78.7521 100.63 79.2826 100.612 79.8137C100.597 80.2666 100.581 80.7195 100.567 81.1725C100.55 81.68 100.461 82.2644 100.541 82.769C100.612 83.2085 100.992 83.142 101.009 82.7047C101.029 82.1765 101.026 81.6474 101.049 81.1189C101.08 80.4175 101.111 79.7161 101.146 79.0149C101.385 74.1438 102.281 69.3443 103.935 64.743C104.605 62.881 105.372 61.1183 106.358 59.3958C107.225 57.8814 108.267 56.4152 109.333 55.0497C110.369 53.7228 111.446 52.4265 112.716 51.3022C113.746 50.3899 114.879 49.5951 116.043 48.8555C117.523 47.9163 118.999 46.9998 120.602 46.2788C121.435 45.904 122.283 45.5685 123.123 45.2089C123.274 45.1442 123.436 45.0814 123.581 45.0065C124.066 44.7566 123.906 44.3802 123.52 44.1184Z" fill="#C1DEE2"/>
<path fill-rule="evenodd" clip-rule="evenodd" d="M110.185 61.1318C111.529 61.1318 112.725 61.3065 113.964 61.8408C115.033 62.3019 116.008 62.9124 116.954 63.577C118.285 64.5117 119.333 65.5995 120.067 67.041C120.505 67.9021 120.827 69.1206 120.532 70.0598C120.185 71.166 119.233 72.0886 117.979 71.8937C117.204 71.7733 116.493 71.2599 115.903 70.7768C115.198 70.1988 114.634 69.5039 114.168 68.732C113.408 67.4729 112.961 66.0495 112.315 64.7338C112.009 64.1094 111.713 63.4805 111.346 62.8871C111.164 62.5932 110.971 62.3021 110.695 62.0837C110.547 61.9669 109.926 61.7647 110.163 61.5024C106.677 61.5481 103.588 64.2257 102.919 67.54C102.857 67.8489 102.808 68.1604 102.757 68.4712C102.724 68.6674 102.737 69.3912 102.562 69.5166C102.175 69.7932 102.338 68.953 102.354 68.832C102.397 68.5193 102.443 68.2069 102.491 67.8951C102.752 66.1989 103.507 64.622 104.767 63.4123C106.207 62.029 108.15 61.1318 110.185 61.1318Z" fill="#89C5CC"/>
<path fill-rule="evenodd" clip-rule="evenodd" d="M13.2939 56.9491C16.6501 62.5796 20.5591 68.0315 22.9065 74.1876C22.8119 73.462 22.7116 72.7371 22.5994 72.0133C22.0037 68.1762 21.2635 64.3672 20.4856 60.5628C20.0894 58.6258 19.6704 56.6958 19.2407 54.7659C19.0096 53.7294 18.7813 52.6923 18.5454 51.6567C18.4883 51.4058 18.4392 50.9677 18.3676 50.5237C20.649 58.01 22.849 65.5019 24.4582 73.1681C24.6693 74.1742 24.8491 75.1785 24.9964 76.1811C25.0467 75.9524 25.0963 75.7237 25.1505 75.4956C25.8016 72.7613 26.7783 70.0488 27.9413 67.4922C28.4972 66.2696 29.1358 65.0737 29.8877 63.9594C30.3565 63.2648 31.4623 62.4392 31.89 61.7278C29.5508 66.0181 28.7062 71.3862 27.3556 76.0505C27.0259 77.1887 26.6942 78.3251 26.3692 79.4635C28.406 75.3787 31.5661 72.0226 35.9599 70.5682C30.6414 74.0823 27.4514 80.2363 25.3017 86.5304C25.2946 86.605 25.2862 86.6796 25.2789 86.7544C25.9115 85.5539 26.7083 84.468 27.7882 83.7075C30.0996 82.0794 32.6636 82.5537 34.9057 83.9502C33.146 82.8317 29.9658 83.8502 28.4852 84.9871C27.4253 85.801 26.5194 86.8928 25.7328 87.9579C25.5443 88.2133 25.2872 88.5112 25.0155 88.8291C24.6346 91.3014 24.0139 93.7569 23.1352 96.1928C23.2802 95.4937 23.1753 94.3754 23.2156 93.8542C23.2199 93.7978 23.2235 93.7414 23.2278 93.6851C23.0943 94.2184 22.9652 94.7457 22.8409 95.2645C23.0879 94.2745 23.2222 93.2411 23.327 92.197C23.354 91.7483 23.3803 91.2996 23.4081 90.8509C23.3993 89.9994 23.3642 89.1444 23.3049 88.2882C23.0946 87.456 22.8591 86.671 22.6648 86.0182C21.964 83.6627 20.9365 81.406 19.6719 79.3008C18.5181 77.3797 17.137 75.6395 15.5426 74.0657C14.6831 73.2176 13.7836 72.4098 12.8967 71.5907C12.576 71.2947 12.0028 70.5667 11.5071 70.1872C15.1175 72.1777 18.8337 74.3311 21.4676 77.5382C21.1588 76.3524 20.8234 75.1834 20.4686 74.0378C18.6687 68.2258 16.3961 62.2021 13.2939 56.9491Z" fill="#DDE3E9"/>
<path fill-rule="evenodd" clip-rule="evenodd" d="M16.9009 88.821C16.9009 95.2756 17.412 100.508 24.2727 100.508C31.1333 100.508 31.6445 95.2756 31.6445 88.821" fill="#C5CFD6"/>
<path d="M94.3952 6.29306C94.3952 5.99516 94.1537 5.75366 93.8558 5.75366C93.5579 5.75366 93.3164 5.99516 93.3164 6.29306V9.70926C93.3164 10.0072 93.5579 10.2487 93.8558 10.2487C94.1537 10.2487 94.3952 10.0072 94.3952 9.70926V6.29306Z" fill="#DDE3E9"/>
<path d="M96.9123 3.41611C96.9123 3.11821 96.6708 2.87671 96.3729 2.87671C96.075 2.87671 95.8335 3.11821 95.8335 3.41611V9.7091C95.8335 10.007 96.075 10.2485 96.3729 10.2485C96.6708 10.2485 96.9123 10.007 96.9123 9.7091V3.41611Z" fill="#DDE3E9"/>
<path d="M99.4296 1.97788C99.4296 1.67997 99.1881 1.43848 98.8902 1.43848C98.5923 1.43848 98.3508 1.67997 98.3508 1.97788V9.70927C98.3508 10.0072 98.5923 10.2487 98.8902 10.2487C99.1881 10.2487 99.4296 10.0072 99.4296 9.70927V1.97788Z" fill="#DDE3E9"/>
<path d="M101.947 3.41611C101.947 3.11821 101.705 2.87671 101.407 2.87671C101.109 2.87671 100.868 3.11821 100.868 3.41611V9.7091C100.868 10.007 101.109 10.2485 101.407 10.2485C101.705 10.2485 101.947 10.007 101.947 9.7091V3.41611Z" fill="#DDE3E9"/>
<path d="M104.464 0.5394C104.464 0.241497 104.222 0 103.924 0C103.627 0 103.385 0.241497 103.385 0.5394V9.70919C103.385 10.0071 103.627 10.2486 103.924 10.2486C104.222 10.2486 104.464 10.0071 104.464 9.70919V0.5394Z" fill="#C5CFD6"/>
<path fill-rule="evenodd" clip-rule="evenodd" d="M4.85493 55.0649C4.85493 53.0622 6.47349 51.4229 8.45093 51.4229V55.0649L5.99342 57.7158C5.29436 57.0677 4.85493 56.117 4.85493 55.0649Z" fill="#F2F2F2"/>
<path fill-rule="evenodd" clip-rule="evenodd" d="M8.3556 55.0188H11.9871C11.9871 55.9575 11.6041 56.8371 10.9988 57.4763C10.3329 58.1754 9.38476 58.6148 8.3556 58.6148C7.40761 58.6148 6.53987 58.2356 5.87386 57.6361L8.3556 55.0188Z" fill="#AFB9C5"/>
<path fill-rule="evenodd" clip-rule="evenodd" d="M12.0466 55.0188C12.0466 53.0414 10.4281 51.4229 8.45063 51.4229V55.0188H12.0466ZM6.65263 51.4229L8.09103 54.6592L4.85464 53.2209C5.17468 52.3819 5.89334 51.7429 6.65263 51.4229Z" fill="#C5CFD6"/>
<path fill-rule="evenodd" clip-rule="evenodd" d="M121.862 56.6692C121.517 57.0359 121.027 57.2663 120.483 57.2663C119.437 57.2663 118.589 56.421 118.589 55.3784C118.589 54.3357 119.437 53.4905 120.483 53.4905V49.9844C117.508 49.9844 115.072 52.4122 115.072 55.3784C115.072 58.3445 117.508 60.7724 120.483 60.7724C122.046 60.7724 123.459 60.1132 124.422 59.0646L121.862 56.6692Z" fill="#F2F2F2"/>
<path fill-rule="evenodd" clip-rule="evenodd" d="M120.466 49.9844V53.4905C121.509 53.4905 122.354 54.3357 122.354 55.3784H125.86C125.86 52.4122 123.432 49.9844 120.466 49.9844Z" fill="#AFB9C5"/>
<path fill-rule="evenodd" clip-rule="evenodd" d="M122.282 55.3784C122.282 55.991 121.993 56.5355 121.545 56.8871L123.75 59.6936C125.033 58.6888 125.86 57.1313 125.86 55.3784H122.282Z" fill="#C5CFD6"/>
<path fill-rule="evenodd" clip-rule="evenodd" d="M87.5718 7.10278C87.306 7.38399 86.9295 7.56057 86.5108 7.56057C85.7062 7.56057 85.0539 6.91255 85.0539 6.11318C85.0539 5.31381 85.7062 4.66579 86.5108 4.66579V1.97778C84.2219 1.97778 82.3484 3.83913 82.3484 6.11318C82.3484 8.38724 84.2219 10.2486 86.5108 10.2486C87.7131 10.2486 88.7997 9.74323 89.5404 8.93931L87.5718 7.10278Z" fill="#F2F2F2"/>
<path fill-rule="evenodd" clip-rule="evenodd" d="M86.4839 1.97778V4.66579C87.2833 4.66579 87.9313 5.31381 87.9313 6.11318H90.6193C90.6193 3.83913 88.7579 1.97778 86.4839 1.97778Z" fill="#AFB9C5"/>
<path fill-rule="evenodd" clip-rule="evenodd" d="M87.9355 6.11328C87.9355 6.57271 87.7192 6.9811 87.3831 7.24478L89.0366 9.34968C89.9991 8.5961 90.6195 7.42797 90.6195 6.11328H87.9355Z" fill="#C5CFD6"/>
<path fill-rule="evenodd" clip-rule="evenodd" d="M22.117 10.2462C22.1163 10.248 22.1156 10.2498 22.1145 10.2519C22.1156 10.2501 22.117 10.243 22.117 10.2462Z" fill="#C5CFD6"/>
<path fill-rule="evenodd" clip-rule="evenodd" d="M22.1154 10.2489C22.1154 10.2493 22.115 10.25 22.115 10.2507C22.115 10.2489 22.1182 10.2435 22.1154 10.2489Z" fill="#C5CFD6"/>
<path fill-rule="evenodd" clip-rule="evenodd" d="M22.1277 10.2185C22.1251 10.2257 22.1219 10.2325 22.119 10.2397C22.1205 10.2361 22.1219 10.2332 22.1233 10.2297C22.0859 10.3231 22.1097 10.2624 22.1277 10.2185Z" fill="#C5CFD6"/>
<path fill-rule="evenodd" clip-rule="evenodd" d="M22.1199 10.24C22.1184 10.2432 22.117 10.2468 22.1155 10.2501C22.1051 10.2702 22.1199 10.24 22.1199 10.24Z" fill="#C5CFD6"/>
<path fill-rule="evenodd" clip-rule="evenodd" d="M22.114 10.2516C22.1241 10.2351 22.1119 10.2559 22.114 10.2516Z" fill="#C5CFD6"/>
<path fill-rule="evenodd" clip-rule="evenodd" d="M22.1155 10.249L22.1162 10.2483C22.1158 10.2487 22.1158 10.249 22.1155 10.249Z" fill="#C5CFD6"/>
<path d="M29.8469 0.898926H14.2043C13.8071 0.898926 13.4851 1.22092 13.4851 1.61813V11.5071C13.4851 11.9043 13.8071 12.2263 14.2043 12.2263H29.8469C30.2441 12.2263 30.5661 11.9043 30.5661 11.5071V1.61813C30.5661 1.22092 30.2441 0.898926 29.8469 0.898926Z" fill="#DDE3E9"/>
<path fill-rule="evenodd" clip-rule="evenodd" d="M19.958 4.1355L14.9236 12.2265H24.9924L19.958 4.1355Z" fill="#AFB9C5"/>
<path fill-rule="evenodd" clip-rule="evenodd" d="M24.9024 6.29297L20.4973 12.2264H29.3075L24.9024 6.29297Z" fill="#C5CFD6"/>
<path d="M26.7903 6.29304C27.684 6.29304 28.4085 5.56855 28.4085 4.67484C28.4085 3.78113 27.684 3.05664 26.7903 3.05664C25.8966 3.05664 25.1721 3.78113 25.1721 4.67484C25.1721 5.56855 25.8966 6.29304 26.7903 6.29304Z" fill="white"/>
<path fill-rule="evenodd" clip-rule="evenodd" d="M107.879 87.0206C107.879 87.0224 107.88 87.0242 107.881 87.0264C107.88 87.0246 107.879 87.0174 107.879 87.0206Z" fill="#C5CFD6"/>
<path fill-rule="evenodd" clip-rule="evenodd" d="M107.88 87.0233C107.88 87.0237 107.881 87.0244 107.881 87.0251C107.881 87.0233 107.877 87.0179 107.88 87.0233Z" fill="#C5CFD6"/>
<path fill-rule="evenodd" clip-rule="evenodd" d="M107.868 86.9929C107.87 87.0001 107.874 87.0069 107.877 87.0141C107.875 87.0105 107.874 87.0077 107.872 87.0041C107.91 87.0976 107.886 87.0368 107.868 86.9929Z" fill="#C5CFD6"/>
<path fill-rule="evenodd" clip-rule="evenodd" d="M107.876 87.0146C107.877 87.0179 107.879 87.0215 107.88 87.0247C107.89 87.0449 107.876 87.0146 107.876 87.0146Z" fill="#C5CFD6"/>
<path fill-rule="evenodd" clip-rule="evenodd" d="M107.882 87.026C107.872 87.0095 107.884 87.0303 107.882 87.026Z" fill="#C5CFD6"/>
<path fill-rule="evenodd" clip-rule="evenodd" d="M107.88 87.0234L107.88 87.0227C107.88 87.0231 107.88 87.0234 107.88 87.0234Z" fill="#C5CFD6"/>
<path d="M95.8334 73.1785H119.927C120.324 73.1785 120.646 73.5005 120.646 73.8977V89.3605C120.646 89.7577 120.324 90.0797 119.927 90.0797H95.8334C95.4362 90.0797 95.1142 89.7577 95.1142 89.3605V73.8977C95.1142 73.5005 95.4362 73.1785 95.8334 73.1785Z" fill="#DDE3E9"/>
<path fill-rule="evenodd" clip-rule="evenodd" d="M111.166 78.0332L118.548 90.0798H103.784L111.166 78.0332Z" fill="#AFB9C5"/>
<path fill-rule="evenodd" clip-rule="evenodd" d="M103.555 81.26L110.081 90.0798H97.0291L103.555 81.26Z" fill="#C5CFD6"/>
<path d="M100.778 81.2696C99.4375 81.2696 98.3507 80.1829 98.3507 78.8423C98.3507 77.5018 99.4375 76.415 100.778 76.415C102.119 76.415 103.205 77.5018 103.205 78.8423C103.205 80.1829 102.119 81.2696 100.778 81.2696Z" fill="white"/>
</svg>
