<svg width="394" height="353" viewBox="0 0 394 353" fill="none" xmlns="http://www.w3.org/2000/svg">
<path fill-rule="evenodd" clip-rule="evenodd" d="M186.222 18.077C170.629 18.077 157.501 28.6522 153.589 43.0365C152.279 47.8526 148.364 51.9714 143.383 51.9714C138.402 51.9714 134.282 47.8915 135.138 42.974C139.39 18.5593 160.644 0 186.222 0C194.62 0 202.576 2.00722 209.614 5.57706C226.729 14.0489 238.531 31.7334 238.531 52.1973C238.531 77.8318 220.012 99.1316 195.651 103.393C190.744 104.251 186.673 100.122 186.673 95.1302C186.673 90.1383 190.783 86.2143 195.589 84.9016C209.942 80.981 220.494 67.8241 220.494 52.1973C220.494 52.0729 220.393 51.9713 220.269 51.9713C220.144 51.9713 220.043 51.8693 220.042 51.7443C219.956 38.6642 212.48 27.3271 201.547 21.7458C197.1 19.5591 192.099 18.3203 186.785 18.3031C186.723 18.3029 186.673 18.2527 186.673 18.1907C186.673 18.1293 186.624 18.0793 186.563 18.0787C186.449 18.0775 186.336 18.077 186.222 18.077Z" fill="#B1D8E9"/>
<path d="M186.222 18.077C170.629 18.077 157.501 28.6522 153.589 43.0365C152.279 47.8526 148.364 51.9714 143.383 51.9714C138.402 51.9714 134.282 47.8915 135.138 42.974C139.39 18.5593 160.644 0 186.222 0C194.62 0 202.576 2.00722 209.614 5.57706C226.729 14.0489 238.531 31.7334 238.531 52.1973C238.531 74.0848 225.031 92.8122 205.92 100.472V137.421C207.611 137.866 209.238 138.501 210.801 139.329C216.433 142.309 220.242 147.523 222.23 154.973L244.59 236.671C246.578 243.79 248.648 249.004 250.801 252.315C253.12 255.626 256.764 256.702 261.733 255.543C266.371 254.385 268.855 251.819 269.186 247.845C269.518 243.872 268.689 238.244 266.702 230.96L250.801 170.617C248.648 162.34 248.896 155.221 251.547 149.262C254.362 143.136 259.828 139.163 267.944 137.342C276.226 135.356 282.851 136.432 287.82 140.57C292.954 144.544 296.433 150.172 298.255 157.456L318.379 236.671C320.532 244.783 322.851 250.246 325.335 253.06C327.985 255.875 331.381 256.702 335.522 255.543C340.159 254.219 342.395 251.653 342.23 247.845C342.064 243.872 341.484 238.161 340.491 230.711C339 219.123 337.675 209.604 336.515 202.154L334.031 183.53C333.534 178.564 333.286 174.011 333.286 169.872C333.286 160.602 336.019 152.738 341.484 146.282C346.95 139.66 354.404 136.349 363.845 136.349C373.451 136.349 380.739 139.329 385.708 145.288C390.677 151.083 393.161 159.112 393.161 169.376C393.161 175.998 392.168 182.951 390.18 190.235C388.358 197.519 386.536 204.389 384.714 210.845L370.801 258.772C367.654 269.698 364.507 279.548 361.36 288.322C358.379 296.93 354.321 303.801 349.186 308.933C344.052 313.899 336.764 316.382 327.323 316.382C315.894 316.382 306.95 312.823 300.491 305.704C294.031 298.586 289.062 286.915 285.584 270.691H283.845C280.532 286.915 276.143 298.586 270.677 305.704C265.211 312.823 256.93 316.382 245.832 316.382C235.729 316.382 227.778 313.899 221.981 308.933C216.184 303.966 211.547 297.179 208.068 288.57C204.756 279.796 201.609 269.863 198.627 258.772L198.03 256.555L197.387 258.772C194.24 269.698 191.093 279.548 187.946 288.322C184.964 296.93 180.906 303.801 175.772 308.933C170.637 313.899 163.349 316.382 153.908 316.382C142.48 316.382 133.536 312.823 127.076 305.704C120.616 298.586 115.647 286.915 112.169 270.691H110.43C107.117 286.915 102.728 298.586 97.2624 305.704C91.7965 312.823 83.515 316.382 72.4177 316.382C62.3142 316.382 54.3639 313.899 48.5668 308.933C42.7697 303.966 38.132 297.179 34.6537 288.57C31.3411 279.796 28.1941 269.863 25.2128 258.772L1.11341 169.376C-0.708534 162.423 -0.294456 155.966 2.35565 150.007C5.00575 143.881 10.2231 139.825 18.0078 137.839C25.2956 135.852 31.7552 136.349 37.3867 139.329C43.0181 142.309 46.8277 147.523 48.8152 154.973L71.1755 236.671C73.163 243.79 75.2334 249.004 77.3866 252.315C79.7055 255.626 83.3494 256.702 88.3183 255.543C92.956 254.385 95.4404 251.819 95.7717 247.845C96.103 243.872 95.2748 238.244 93.2872 230.96L77.3866 170.617C75.2334 162.34 75.4819 155.221 78.132 149.262C80.9477 143.136 86.4135 139.163 94.5295 137.342C102.811 135.356 109.436 136.432 114.405 140.57C119.54 144.544 123.018 150.172 124.84 157.456L144.964 236.671C147.117 244.783 149.436 250.246 151.921 253.06C154.571 255.875 157.966 256.702 162.107 255.543C166.745 254.219 168.981 251.653 168.815 247.845C168.649 243.872 168.07 238.161 167.076 230.711C165.585 219.123 164.26 209.604 163.101 202.154L160.616 183.53C160.119 178.564 159.871 174.011 159.871 169.872C159.871 160.602 162.604 152.738 168.07 146.282C172.063 141.444 177.118 138.373 183.233 137.07V96.1537C183.233 90.0343 188.312 85.0736 194.577 85.0736C194.714 85.0736 194.851 85.076 194.987 85.0807C195.186 85.0165 195.387 84.9568 195.589 84.9016C209.942 80.981 220.494 67.8241 220.494 52.1973C220.494 52.0729 220.393 51.9713 220.269 51.9713C220.144 51.9713 220.043 51.8693 220.042 51.7443C219.956 38.6642 212.48 27.3271 201.547 21.7458C197.1 19.5591 192.099 18.3203 186.785 18.3031C186.723 18.3029 186.673 18.2527 186.673 18.1907C186.673 18.1293 186.624 18.0793 186.563 18.0787C186.449 18.0775 186.336 18.077 186.222 18.077Z" fill="#B1D8E9"/>
<path d="M253.232 352.737V342.745H251.192V339.24H253.232V338.167C253.232 337.261 253.424 336.45 253.808 335.735C254.209 335.002 254.767 334.418 255.482 333.982C256.197 333.546 257.025 333.328 257.967 333.328C258.612 333.328 259.214 333.433 259.772 333.642C260.33 333.834 260.827 334.104 261.263 334.453L260.059 337.513C259.833 337.391 259.615 337.295 259.405 337.226C259.196 337.156 259.004 337.121 258.83 337.121C258.516 337.121 258.254 337.173 258.045 337.278C257.836 337.383 257.679 337.54 257.574 337.749C257.487 337.958 257.444 338.22 257.444 338.534V339.24H260.295V342.745H257.444V352.737H253.232Z" fill="#2C2C2C"/>
<path d="M359.505 352.738V348.486L360.61 347.452L364.684 352.738H369.681L363.386 344.857L369.811 338.848H364.292L359.505 343.751V333.38H355.294V352.738H359.505Z" fill="#2C2C2C"/>
<path fill-rule="evenodd" clip-rule="evenodd" d="M345.598 352.999C344.168 352.999 342.886 352.694 341.753 352.084C340.619 351.456 339.73 350.601 339.085 349.52C338.439 348.422 338.117 347.183 338.117 345.806C338.117 344.393 338.439 343.146 339.085 342.065C339.73 340.966 340.619 340.112 341.753 339.502C342.886 338.874 344.168 338.56 345.598 338.56C347.046 338.56 348.327 338.874 349.443 339.502C350.577 340.112 351.466 340.966 352.112 342.065C352.757 343.146 353.079 344.393 353.079 345.806C353.079 347.183 352.757 348.422 352.112 349.52C351.466 350.601 350.577 351.456 349.443 352.084C348.327 352.694 347.046 352.999 345.598 352.999ZM345.598 349.389C346.226 349.389 346.775 349.232 347.246 348.919C347.734 348.605 348.118 348.177 348.397 347.637C348.676 347.096 348.807 346.486 348.789 345.806C348.807 345.091 348.676 344.463 348.397 343.922C348.118 343.364 347.734 342.937 347.246 342.641C346.775 342.327 346.226 342.17 345.598 342.17C344.988 342.17 344.438 342.327 343.95 342.641C343.462 342.954 343.078 343.382 342.799 343.922C342.52 344.463 342.381 345.091 342.381 345.806C342.381 346.486 342.52 347.096 342.799 347.637C343.078 348.177 343.462 348.605 343.95 348.919C344.438 349.232 344.988 349.389 345.598 349.389Z" fill="#2C2C2C"/>
<path fill-rule="evenodd" clip-rule="evenodd" d="M325.544 352.084C326.678 352.694 327.959 352.999 329.389 352.999C330.837 352.999 332.118 352.694 333.235 352.084C334.368 351.456 335.257 350.601 335.903 349.52C336.548 348.422 336.871 347.183 336.871 345.806C336.871 344.393 336.548 343.146 335.903 342.065C335.257 340.966 334.368 340.112 333.235 339.502C332.118 338.874 330.837 338.56 329.389 338.56C327.959 338.56 326.678 338.874 325.544 339.502C324.411 340.112 323.521 340.966 322.876 342.065C322.231 343.146 321.908 344.393 321.908 345.806C321.908 347.183 322.231 348.422 322.876 349.52C323.521 350.601 324.411 351.456 325.544 352.084ZM331.037 348.919C330.566 349.232 330.017 349.389 329.389 349.389C328.779 349.389 328.23 349.232 327.741 348.919C327.253 348.605 326.869 348.177 326.59 347.637C326.311 347.096 326.172 346.486 326.172 345.806C326.172 345.091 326.311 344.463 326.59 343.922C326.869 343.382 327.253 342.954 327.741 342.641C328.23 342.327 328.779 342.17 329.389 342.17C330.017 342.17 330.566 342.327 331.037 342.641C331.526 342.937 331.909 343.364 332.188 343.922C332.467 344.463 332.598 345.091 332.581 345.806C332.598 346.486 332.467 347.096 332.188 347.637C331.909 348.177 331.526 348.605 331.037 348.919Z" fill="#2C2C2C"/>
<path d="M308.363 352.738V334.427H312.836V348.788H320.997V352.738H308.363Z" fill="#2C2C2C"/>
<path d="M291.34 342.536V352.738H295.552V342.536H298.22V338.848H295.552V335.343H291.34V338.848H288.882V342.536H291.34Z" fill="#2C2C2C"/>
<path d="M282.554 352.999C281.211 352.999 279.999 352.685 278.918 352.057C277.854 351.43 277.017 350.575 276.406 349.494C275.796 348.395 275.491 347.166 275.491 345.806C275.491 344.411 275.796 343.172 276.406 342.091C277.017 340.993 277.854 340.129 278.918 339.502C279.999 338.874 281.211 338.56 282.554 338.56C283.792 338.56 284.925 338.787 285.954 339.24C287.001 339.676 287.82 340.278 288.413 341.045L286.137 343.818C285.911 343.521 285.632 343.251 285.3 343.007C284.969 342.763 284.603 342.571 284.202 342.431C283.801 342.292 283.382 342.222 282.946 342.222C282.283 342.222 281.699 342.379 281.193 342.693C280.688 342.989 280.295 343.408 280.016 343.948C279.737 344.489 279.598 345.099 279.598 345.78C279.598 346.442 279.737 347.044 280.016 347.584C280.313 348.108 280.714 348.526 281.22 348.84C281.725 349.154 282.292 349.311 282.92 349.311C283.373 349.311 283.792 349.25 284.175 349.128C284.559 349.006 284.908 348.831 285.222 348.605C285.553 348.378 285.858 348.108 286.137 347.794L288.413 350.566C287.82 351.299 286.992 351.892 285.928 352.345C284.864 352.781 283.739 352.999 282.554 352.999Z" fill="#2C2C2C"/>
<path fill-rule="evenodd" clip-rule="evenodd" d="M264.219 352.084C265.37 352.694 266.712 352.999 268.247 352.999C268.892 352.999 269.529 352.921 270.157 352.764C270.802 352.624 271.43 352.406 272.04 352.11C272.65 351.796 273.226 351.412 273.766 350.959L271.805 348.186C271.264 348.605 270.758 348.901 270.287 349.075C269.816 349.25 269.293 349.337 268.718 349.337C267.863 349.337 267.122 349.18 266.494 348.866C265.884 348.552 265.413 348.108 265.082 347.532C264.944 347.279 264.836 347.008 264.759 346.721H274.29L274.316 345.57C274.333 344.559 274.185 343.626 273.871 342.771C273.557 341.917 273.104 341.176 272.511 340.548C271.918 339.92 271.22 339.432 270.418 339.083C269.616 338.734 268.727 338.56 267.75 338.56C266.721 338.56 265.771 338.743 264.899 339.109C264.044 339.458 263.294 339.955 262.649 340.6C262.021 341.245 261.533 342.021 261.184 342.928C260.836 343.818 260.661 344.803 260.661 345.884C260.661 347.262 260.966 348.491 261.577 349.572C262.204 350.636 263.085 351.473 264.219 352.084ZM264.739 344.341H270.418V344.289C270.383 343.853 270.244 343.478 270 343.164C269.773 342.832 269.468 342.571 269.084 342.379C268.718 342.187 268.299 342.091 267.828 342.091C267.131 342.091 266.538 342.231 266.05 342.51C265.579 342.771 265.221 343.155 264.977 343.661C264.878 343.867 264.798 344.094 264.739 344.341Z" fill="#2C2C2C"/>
<path d="M240.937 338.848V352.738H245.174V345.806C245.174 345.387 245.235 345.012 245.357 344.681C245.497 344.35 245.68 344.062 245.907 343.818C246.151 343.574 246.43 343.39 246.744 343.268C247.075 343.129 247.433 343.059 247.816 343.059C248.165 343.059 248.496 343.103 248.81 343.19C249.142 343.26 249.403 343.347 249.595 343.451L250.72 338.821C250.511 338.734 250.266 338.673 249.987 338.638C249.726 338.586 249.438 338.56 249.124 338.56C248.409 338.56 247.72 338.734 247.058 339.083C246.412 339.432 245.854 339.903 245.384 340.496C245.255 340.657 245.136 340.824 245.026 340.996L244.939 338.848H240.937Z" fill="#2C2C2C"/>
<path fill-rule="evenodd" clip-rule="evenodd" d="M232.725 352.999C231.19 352.999 229.847 352.694 228.696 352.084C227.563 351.473 226.682 350.636 226.055 349.572C225.444 348.491 225.139 347.262 225.139 345.884C225.139 344.803 225.313 343.818 225.662 342.928C226.011 342.021 226.499 341.245 227.127 340.6C227.772 339.955 228.522 339.458 229.377 339.109C230.249 338.743 231.199 338.56 232.228 338.56C233.204 338.56 234.094 338.734 234.896 339.083C235.698 339.432 236.396 339.92 236.989 340.548C237.582 341.176 238.035 341.917 238.349 342.771C238.663 343.626 238.811 344.559 238.794 345.57L238.767 346.721H229.236C229.314 347.008 229.421 347.279 229.56 347.532C229.891 348.108 230.362 348.552 230.972 348.866C231.6 349.18 232.341 349.337 233.196 349.337C233.771 349.337 234.294 349.25 234.765 349.075C235.236 348.901 235.742 348.605 236.282 348.186L238.244 350.959C237.704 351.412 237.128 351.796 236.518 352.11C235.907 352.406 235.28 352.624 234.634 352.764C234.007 352.921 233.37 352.999 232.725 352.999ZM234.896 344.341H229.217C229.276 344.094 229.355 343.867 229.455 343.661C229.699 343.155 230.057 342.771 230.528 342.51C231.016 342.231 231.609 342.091 232.306 342.091C232.777 342.091 233.196 342.187 233.562 342.379C233.946 342.571 234.251 342.832 234.477 343.164C234.722 343.478 234.861 343.853 234.896 344.289V344.341Z" fill="#2C2C2C"/>
<path fill-rule="evenodd" clip-rule="evenodd" d="M209.985 334.427V352.738H214.458V346.617H217.911C219.062 346.617 220.09 346.346 220.997 345.806C221.904 345.265 222.619 344.524 223.142 343.582C223.665 342.641 223.927 341.586 223.927 340.417C223.927 339.266 223.665 338.246 223.142 337.357C222.619 336.45 221.904 335.735 220.997 335.212C220.09 334.689 219.062 334.427 217.911 334.427H209.985ZM217.309 342.667H214.405V338.377H217.309C217.693 338.377 218.033 338.464 218.329 338.638C218.643 338.813 218.896 339.057 219.088 339.371C219.28 339.685 219.375 340.06 219.375 340.496C219.375 340.914 219.28 341.289 219.088 341.62C218.896 341.952 218.643 342.213 218.329 342.405C218.033 342.58 217.693 342.667 217.309 342.667Z" fill="#2C2C2C"/>
<path d="M190.329 352.738V338.848H194.332L194.419 340.996C194.529 340.824 194.648 340.657 194.776 340.496C195.247 339.903 195.805 339.432 196.45 339.083C197.113 338.734 197.802 338.56 198.517 338.56C198.831 338.56 199.119 338.586 199.38 338.638C199.659 338.673 199.903 338.734 200.113 338.821L198.988 343.451C198.796 343.347 198.534 343.26 198.203 343.19C197.889 343.103 197.558 343.059 197.209 343.059C196.825 343.059 196.468 343.129 196.137 343.268C195.823 343.39 195.544 343.574 195.299 343.818C195.073 344.062 194.89 344.35 194.75 344.681C194.628 345.012 194.567 345.387 194.567 345.806V352.738H190.329Z" fill="#2C2C2C"/>
<path d="M176.163 352.345C176.895 352.781 177.767 352.999 178.779 352.999C179.546 352.999 180.27 352.851 180.95 352.554C181.63 352.258 182.214 351.848 182.703 351.325C182.827 351.196 182.942 351.064 183.048 350.927L183.147 352.738H187.097V338.848H182.886V347.113C182.886 347.462 182.825 347.785 182.703 348.081C182.58 348.378 182.406 348.639 182.179 348.866C181.97 349.075 181.717 349.241 181.421 349.363C181.124 349.468 180.793 349.52 180.427 349.52C179.694 349.52 179.119 349.285 178.7 348.814C178.299 348.325 178.099 347.654 178.099 346.8V338.848H173.887V347.427C173.887 348.596 174.079 349.599 174.463 350.436C174.864 351.255 175.431 351.892 176.163 352.345Z" fill="#2C2C2C"/>
<path fill-rule="evenodd" clip-rule="evenodd" d="M164.348 352.999C162.919 352.999 161.637 352.694 160.503 352.084C159.37 351.456 158.48 350.601 157.835 349.52C157.19 348.422 156.867 347.183 156.867 345.806C156.867 344.393 157.19 343.146 157.835 342.065C158.48 340.966 159.37 340.112 160.503 339.502C161.637 338.874 162.919 338.56 164.348 338.56C165.796 338.56 167.078 338.874 168.194 339.502C169.327 340.112 170.217 340.966 170.862 342.065C171.507 343.146 171.83 344.393 171.83 345.806C171.83 347.183 171.507 348.422 170.862 349.52C170.217 350.601 169.327 351.456 168.194 352.084C167.078 352.694 165.796 352.999 164.348 352.999ZM164.348 349.389C164.976 349.389 165.526 349.232 165.996 348.919C166.485 348.605 166.868 348.177 167.147 347.637C167.426 347.096 167.557 346.486 167.54 345.806C167.557 345.091 167.426 344.463 167.147 343.922C166.868 343.364 166.485 342.937 165.996 342.641C165.526 342.327 164.976 342.17 164.348 342.17C163.738 342.17 163.189 342.327 162.701 342.641C162.212 342.954 161.829 343.382 161.55 343.922C161.271 344.463 161.131 345.091 161.131 345.806C161.131 346.486 161.271 347.096 161.55 347.637C161.829 348.177 162.212 348.605 162.701 348.919C163.189 349.232 163.738 349.389 164.348 349.389Z" fill="#2C2C2C"/>
<path d="M147.572 344.631V352.738H152.071V344.583L158.768 334.427H153.824L149.831 340.736L145.427 334.427H140.352L147.572 344.631Z" fill="#2C2C2C"/>
<path d="M125.789 352.738V342.536H123.33V338.848H125.789V335.343H130V338.848H132.668V342.536H130V352.738H125.789Z" fill="#2C2C2C"/>
<path d="M113.335 352.371C114.381 352.79 115.567 352.999 116.892 352.999C118.008 352.999 118.993 352.807 119.848 352.424C120.72 352.023 121.4 351.482 121.888 350.802C122.394 350.104 122.647 349.311 122.647 348.422C122.647 347.968 122.577 347.55 122.438 347.166C122.316 346.765 122.106 346.416 121.81 346.12C121.461 345.736 120.99 345.405 120.397 345.126C119.822 344.829 119.124 344.568 118.305 344.341C117.659 344.166 117.136 344.009 116.735 343.87C116.351 343.73 116.081 343.617 115.924 343.53C115.75 343.408 115.61 343.277 115.506 343.138C115.419 342.981 115.375 342.806 115.375 342.614C115.375 342.457 115.41 342.318 115.48 342.196C115.549 342.056 115.645 341.943 115.767 341.856C115.907 341.751 116.072 341.681 116.264 341.647C116.474 341.594 116.709 341.568 116.971 341.568C117.319 341.568 117.694 341.647 118.095 341.803C118.496 341.943 118.898 342.135 119.299 342.379C119.7 342.606 120.049 342.867 120.345 343.164L122.568 340.679C122.098 340.243 121.557 339.868 120.947 339.554C120.354 339.24 119.708 338.996 119.011 338.821C118.331 338.647 117.607 338.56 116.84 338.56C115.863 338.56 114.956 338.743 114.119 339.109C113.282 339.458 112.602 339.955 112.079 340.6C111.573 341.245 111.32 341.995 111.32 342.85C111.32 343.408 111.408 343.914 111.582 344.367C111.774 344.82 112.044 345.221 112.393 345.57C112.777 345.954 113.265 346.294 113.858 346.59C114.468 346.887 115.183 347.14 116.003 347.349C116.578 347.489 117.049 347.628 117.415 347.768C117.781 347.89 118.034 347.994 118.174 348.081C118.47 348.256 118.619 348.517 118.619 348.866C118.619 349.041 118.584 349.198 118.514 349.337C118.444 349.459 118.34 349.572 118.2 349.677C118.078 349.764 117.93 349.834 117.755 349.886C117.581 349.939 117.38 349.965 117.154 349.965C116.543 349.965 115.898 349.843 115.218 349.599C114.538 349.337 113.928 348.936 113.387 348.395L110.823 350.593C111.451 351.343 112.288 351.935 113.335 352.371Z" fill="#2C2C2C"/>
<path fill-rule="evenodd" clip-rule="evenodd" d="M105.32 352.738V351.489L105.267 351.534C104.762 351.988 104.204 352.345 103.593 352.607C103 352.868 102.373 352.999 101.71 352.999C100.838 352.999 100.044 352.825 99.3294 352.476C98.6319 352.127 98.0738 351.648 97.6553 351.037C97.2542 350.41 97.0537 349.677 97.0537 348.84C97.0537 348.125 97.1845 347.497 97.4461 346.957C97.7076 346.416 98.0913 345.971 98.597 345.623C99.1202 345.256 99.7654 344.986 100.533 344.812C101.317 344.62 102.224 344.524 103.253 344.524H105.32V344.21C105.32 343.495 105.119 342.972 104.718 342.641C104.334 342.292 103.794 342.117 103.096 342.117C102.416 342.117 101.806 342.248 101.265 342.51C100.742 342.754 100.236 343.164 99.748 343.739L97.2368 341.306C98.0738 340.452 99.033 339.781 100.114 339.292C101.195 338.804 102.373 338.56 103.646 338.56C104.814 338.56 105.825 338.734 106.68 339.083C107.534 339.432 108.197 339.964 108.668 340.679C109.139 341.394 109.374 342.301 109.374 343.399V352.738H105.32ZM105.32 348.832V347.166H103.358C102.992 347.166 102.669 347.201 102.39 347.271C102.111 347.323 101.876 347.419 101.684 347.558C101.492 347.68 101.344 347.829 101.239 348.003C101.152 348.177 101.108 348.387 101.108 348.631C101.108 348.892 101.178 349.119 101.317 349.311C101.457 349.503 101.64 349.651 101.867 349.756C102.111 349.86 102.39 349.913 102.704 349.913C103.157 349.913 103.585 349.843 103.986 349.703C104.404 349.546 104.77 349.328 105.084 349.049C105.167 348.98 105.246 348.907 105.32 348.832Z" fill="#2C2C2C"/>
<path d="M86.6447 352.057C87.726 352.685 88.9379 352.999 90.2807 352.999C91.4666 352.999 92.5914 352.781 93.6551 352.345C94.7189 351.892 95.5472 351.299 96.1402 350.566L93.8644 347.794C93.5854 348.108 93.2802 348.378 92.9489 348.605C92.635 348.831 92.2862 349.006 91.9025 349.128C91.5189 349.25 91.1004 349.311 90.6469 349.311C90.0192 349.311 89.4524 349.154 88.9467 348.84C88.4409 348.526 88.0398 348.108 87.7434 347.584C87.4644 347.044 87.3249 346.442 87.3249 345.78C87.3249 345.099 87.4644 344.489 87.7434 343.948C88.0224 343.408 88.4148 342.989 88.9205 342.693C89.4262 342.379 90.0104 342.222 90.6731 342.222C91.1091 342.222 91.5276 342.292 91.9287 342.431C92.3298 342.571 92.696 342.763 93.0273 343.007C93.3587 343.251 93.6377 343.521 93.8644 343.818L96.1402 341.045C95.5472 340.278 94.7276 339.676 93.6813 339.24C92.6524 338.787 91.5189 338.56 90.2807 338.56C88.9379 338.56 87.726 338.874 86.6447 339.502C85.581 340.129 84.7439 340.993 84.1336 342.091C83.5232 343.172 83.218 344.411 83.218 345.806C83.218 347.166 83.5232 348.395 84.1336 349.494C84.7439 350.575 85.581 351.43 86.6447 352.057Z" fill="#2C2C2C"/>
<path fill-rule="evenodd" clip-rule="evenodd" d="M75.9741 352.999C74.4395 352.999 73.0967 352.694 71.9458 352.084C70.8122 351.473 69.9316 350.636 69.3038 349.572C68.6934 348.491 68.3883 347.262 68.3883 345.884C68.3883 344.803 68.5626 343.818 68.9114 342.928C69.2602 342.021 69.7485 341.245 70.3763 340.6C71.0215 339.955 71.7714 339.458 72.6259 339.109C73.4978 338.743 74.4482 338.56 75.4771 338.56C76.4537 338.56 77.3431 338.734 78.1452 339.083C78.9474 339.432 79.645 339.92 80.2379 340.548C80.8308 341.176 81.2842 341.917 81.5981 342.771C81.912 343.626 82.0603 344.559 82.0428 345.57L82.0167 346.721H72.4856C72.563 347.008 72.6708 347.279 72.809 347.532C73.1403 348.108 73.6112 348.552 74.2215 348.866C74.8493 349.18 75.5905 349.337 76.445 349.337C77.0205 349.337 77.5436 349.25 78.0145 349.075C78.4853 348.901 78.991 348.605 79.5316 348.186L81.4935 350.959C80.9529 351.412 80.3774 351.796 79.7671 352.11C79.1567 352.406 78.5289 352.624 77.8837 352.764C77.2559 352.921 76.6194 352.999 75.9741 352.999ZM78.1452 344.341H72.4664C72.5254 344.094 72.6047 343.867 72.7043 343.661C72.9485 343.155 73.306 342.771 73.7768 342.51C74.2651 342.231 74.858 342.091 75.5556 342.091C76.0264 342.091 76.445 342.187 76.8112 342.379C77.1948 342.571 77.5 342.832 77.7267 343.164C77.9709 343.478 78.1104 343.853 78.1452 344.289V344.341Z" fill="#2C2C2C"/>
<path d="M58.5375 338.848V352.738H62.7751V345.806C62.7751 345.387 62.8362 345.012 62.9582 344.681C63.0977 344.35 63.2808 344.062 63.5076 343.818C63.7517 343.574 64.0307 343.39 64.3446 343.268C64.676 343.129 65.0334 343.059 65.4171 343.059C65.7659 343.059 66.0972 343.103 66.4111 343.19C66.7424 343.26 67.004 343.347 67.1959 343.451L68.3207 338.821C68.1114 338.734 67.8672 338.673 67.5882 338.638C67.3266 338.586 67.0389 338.56 66.725 338.56C66.01 338.56 65.3212 338.734 64.6585 339.083C64.0133 339.432 63.4552 339.903 62.9844 340.496C62.8561 340.657 62.7368 340.824 62.6266 340.996L62.5397 338.848H58.5375Z" fill="#2C2C2C"/>
<path fill-rule="evenodd" clip-rule="evenodd" d="M48.842 352.999C47.412 352.999 46.1302 352.694 44.9967 352.084C43.8632 351.456 42.9738 350.601 42.3286 349.52C41.6834 348.422 41.3607 347.183 41.3607 345.806C41.3607 344.393 41.6834 343.146 42.3286 342.065C42.9738 340.966 43.8632 340.112 44.9967 339.502C46.1302 338.874 47.412 338.56 48.842 338.56C50.2894 338.56 51.5711 338.874 52.6872 339.502C53.8207 340.112 54.7101 340.966 55.3554 342.065C56.0006 343.146 56.3232 344.393 56.3232 345.806C56.3232 347.183 56.0006 348.422 55.3554 349.52C54.7101 350.601 53.8207 351.456 52.6872 352.084C51.5711 352.694 50.2894 352.999 48.842 352.999ZM48.842 349.389C49.4698 349.389 50.0191 349.232 50.4899 348.919C50.9782 348.605 51.3619 348.177 51.6409 347.637C51.9199 347.096 52.0507 346.486 52.0333 345.806C52.0507 345.091 51.9199 344.463 51.6409 343.922C51.3619 343.364 50.9782 342.937 50.4899 342.641C50.0191 342.327 49.4698 342.17 48.842 342.17C48.2316 342.17 47.6823 342.327 47.194 342.641C46.7057 342.954 46.3221 343.382 46.0431 343.922C45.764 344.463 45.6245 345.091 45.6245 345.806C45.6245 346.486 45.764 347.096 46.0431 347.637C46.3221 348.177 46.7057 348.605 47.194 348.919C47.6823 349.232 48.2316 349.389 48.842 349.389Z" fill="#2C2C2C"/>
<path d="M27.4834 334.427V352.738H31.9564V345.727H39.0976V341.987H31.9564V338.377H40.144V334.427H27.4834Z" fill="#2C2C2C"/>
</svg>
