<svg width="278" height="187" viewBox="0 0 278 187" fill="none" xmlns="http://www.w3.org/2000/svg">
<path fill-rule="evenodd" clip-rule="evenodd" d="M20.2718 40.3833C15.1695 34.3942 11.7162 27.0545 12.2932 18.8302C13.9559 -4.86639 46.9423 0.346561 53.3589 12.3066C59.7754 24.2666 59.013 54.6041 50.7202 56.7417C47.413 57.5942 40.3678 55.5059 33.1973 51.184L37.6981 83.025H11.123L20.2718 40.3833Z" fill="#B28B67"/>
<path fill-rule="evenodd" clip-rule="evenodd" d="M34.526 21.4472C35.5433 35.6174 38.2342 42.7025 42.5987 42.7025C49.1459 42.7025 54.7008 38.5461 57.5735 38.5461C59.6677 38.5461 59.2001 41.1668 57.812 43.1098C56.6668 44.7128 51.0896 46.258 51.0896 48.7432C51.0896 51.2285 55.496 49.3058 55.496 50.7797C55.496 53.2178 56.2704 57.8019 52.0389 57.8019C47.7564 57.8019 35.4777 56.2413 33.3734 49.8853C32.0154 45.7833 31.1374 37.2833 30.7393 24.3852C30.4795 24.3543 30.2151 24.3384 29.947 24.3384C26.2778 24.3384 23.3033 27.3129 23.3033 30.9822C23.3033 32.8449 24.0698 34.5285 25.3047 35.7349C23.7674 37.9048 22.0446 40.1715 20.0704 42.5104C12.6538 38.0607 7.15022 25.0349 14.4012 12.5217C16.4054 6.39168 20.9426 3.11742 26.3011 1.59707C30.6418 -0.218658 35.1478 -0.423383 38.9516 0.665128C46.408 1.30469 53.0662 3.57835 54.9532 4.92862C54.9532 11.9879 53.5854 14.0823 41.9022 13.8977C39.0315 15.4138 36.8246 18.0245 34.526 21.4472Z" fill="#4A280A"/>
<path fill-rule="evenodd" clip-rule="evenodd" d="M243.404 43.5392C238.683 37.9969 235.487 31.2048 236.021 23.594C237.559 1.66508 268.085 6.48916 274.023 17.557C279.961 28.6248 279.255 56.6992 271.581 58.6773C268.521 59.4662 262.001 57.5338 255.366 53.5343L259.531 83H234.938L243.404 43.5392Z" fill="#856649"/>
<path fill-rule="evenodd" clip-rule="evenodd" d="M276.345 22.5264C276.102 21.0918 275.506 19.4987 275.026 18.1414C274.406 16.3917 273.469 14.8141 272.438 13.3273C270.496 10.528 268.167 8.00027 265.595 5.90228C260.897 2.07011 254.916 -0.140295 249.035 0.577538C246.066 0.939946 243.184 2.07256 240.73 3.95774C238.514 5.66102 236.382 8.16838 233.512 8.34853C230.389 8.5444 227.526 5.78794 225.021 4.08553C222.197 2.1663 219.193 0.76782 215.893 0.224208C210.363 -0.686176 205.169 1.1819 201.359 5.71828C197.304 10.5457 194.356 17.625 197.019 24.0213C197.514 25.2103 198.151 26.2127 199.065 27.0434C199.903 27.8053 201.183 28.6158 201.523 29.8331C201.884 31.127 200.805 32.7962 200.387 33.9638C199.788 35.6365 199.296 37.3923 199.471 39.2105C199.758 42.1963 201.635 45.0467 203.616 47.0092C205.633 49.0063 208.114 50.1515 210.765 50.6794C212.535 51.0318 214.343 51.2263 216.142 51.094C217.035 51.0284 217.823 50.7803 218.688 50.583C219.529 50.3912 220 50.6146 220.713 51.076C224.029 53.2197 227.595 54.0491 231.424 53.7304C234.655 53.4612 238.38 52.678 241.016 50.464C243.943 48.005 243.885 44.6141 243.196 40.9913C243.926 41.353 245.945 41.5769 244.739 40.1352C244.261 39.5641 243.357 39.3318 242.744 38.9959C242.03 38.6049 241.305 38.0995 240.75 37.4616C238.511 34.886 240.773 29.6444 243.587 28.7806C247.768 27.4973 248.704 33.4105 251.689 34.9401C253.405 35.8196 255.201 34.6175 256.487 33.3901C258.209 31.7458 259.383 29.5676 260.396 27.3509C261.231 25.5254 262.008 23.6742 262.859 21.8578C263.256 21.0096 264.632 18.6117 263.941 17.6526C266.936 17.0554 270.271 18.2999 272.851 19.932C273.917 20.6067 274.729 21.3505 275.298 22.5416C275.42 22.7968 275.685 23.5555 276.018 23.5866C276.638 23.6446 276.406 22.8869 276.345 22.5264Z" fill="#010107"/>
<path fill-rule="evenodd" clip-rule="evenodd" d="M155.815 21.2403C159.441 34.6023 164.166 64.637 159.344 69.3483H128.838C128.835 69.2942 128.832 69.2402 128.829 69.1863C117.522 67.9351 108.728 58.3484 108.728 46.7078V24.6169C108.728 12.1259 118.853 2 131.344 2H133.448C144.792 2 154.185 10.3509 155.815 21.2403Z" fill="#191847"/>
<path fill-rule="evenodd" clip-rule="evenodd" d="M120.575 42.4896C115.728 36.7999 112.447 29.827 112.995 22.0138C114.575 -0.498427 145.912 4.45397 152.008 15.8162C158.104 27.1784 157.38 55.9996 149.501 58.0304C146.359 58.8402 139.666 56.8564 132.854 52.7505L137.13 83H111.883L120.575 42.4896Z" fill="#E1C5AA"/>
<path fill-rule="evenodd" clip-rule="evenodd" d="M127.399 38.6866C128.563 51.1816 128.097 65.4507 124.63 68.8378H94.1234C92.4236 39.3058 108.851 50.7419 108.851 22.9368C109.875 21.9361 110.843 20.9457 111.8 20.0915L111.766 19.2738C117.049 8.45926 123.751 3.052 131.872 3.052C144.053 3.052 147.898 8.72024 151.172 13.5327C148.724 21.9325 139.224 23.1781 130.782 28.414C129.787 27.6055 128.518 27.121 127.136 27.121C123.941 27.121 121.351 29.7114 121.351 32.9067C121.351 36.1021 123.941 38.6924 127.136 38.6924C127.224 38.6924 127.312 38.6905 127.399 38.6866Z" fill="#191847"/>
<path fill-rule="evenodd" clip-rule="evenodd" d="M122.559 147.086C118.262 142.042 115.354 135.861 115.84 128.934C117.24 108.976 145.022 113.367 150.426 123.44C155.83 133.513 155.188 159.063 148.203 160.864C145.418 161.582 139.484 159.823 133.445 156.183L137.236 183H114.854L122.559 147.086Z" fill="#B28B67"/>
<path fill-rule="evenodd" clip-rule="evenodd" d="M106.081 122.29C105.358 121.574 104.964 120.551 104.623 119.58C104.269 118.572 103.924 117.553 103.689 116.503C103.219 114.405 103.215 111.993 104.711 110.364C105.911 109.058 107.712 108.472 109.374 108.345C110.481 108.26 111.618 108.415 112.68 108.764C113.733 109.11 114.64 109.8 115.661 110.228C115.7 107.968 116.087 105.603 117.234 103.673C118.338 101.816 120.097 100.773 122.101 100.498C124.157 100.215 126.188 100.696 128.029 101.692C128.49 101.941 128.947 102.202 129.384 102.498C129.75 102.745 130.13 103.044 130.56 103.144C131.038 103.257 131.275 102.98 131.587 102.631C131.951 102.222 132.362 101.861 132.797 101.541C134.72 100.128 137.242 99.5469 139.47 100.394C140.496 100.784 141.494 101.447 142.191 102.361C142.811 103.175 143.254 104.466 144.111 105.034C144.474 105.274 144.731 104.955 145.062 104.72C145.559 104.365 146.033 103.974 146.537 103.63C147.243 103.146 148.009 102.783 148.828 102.594C150.028 102.316 151.686 102.381 152.029 103.952C152.157 104.543 152.059 105.174 152.017 105.769C151.96 106.585 151.9 107.401 151.829 108.217C151.776 108.836 151.708 109.434 151.591 110.041C151.528 110.366 151.333 110.97 151.472 111.294C151.646 111.7 152.447 111.469 152.79 111.483C153.466 111.511 154.145 111.63 154.771 111.919C155.255 112.143 155.765 112.472 155.969 113.028C156.095 113.369 156.062 113.719 156.003 114.07C155.931 114.492 156.013 114.715 156.066 115.14C156.974 114.693 160.122 113.699 160.518 115.327C160.65 115.869 160.35 116.482 160.121 116.939C159.719 117.74 159.192 118.473 158.653 119.172C157.53 120.63 156.189 121.888 154.746 122.963C156.437 123.715 156.878 125.931 155.414 127.252C154.768 127.835 153.899 127.965 153.084 127.928C152.785 127.914 152.355 127.8 152.121 127.852C151.994 127.879 151.859 127.987 151.684 127.999C150.533 128.077 149.235 127.8 148.11 127.545C146.106 127.09 144.209 126.141 142.66 124.695C142.262 124.324 141.934 124.11 141.399 124.116C140.93 124.12 140.47 124.249 140.002 124.261C138.763 124.292 137.646 123.687 136.495 123.283C136.424 124.838 135.982 126.55 135.346 127.948C134.827 129.089 133.745 129.254 132.681 129.354C129.278 129.675 125.863 129.317 122.456 129.322C125.754 130.068 129.162 130.375 132.431 131.252C133.909 131.648 132.78 132.644 132.149 133.335C131.108 134.471 130.335 135.88 129.798 137.364C128.185 135.261 125.333 133.875 122.807 134.521C120.016 135.235 118.05 139.01 119.835 141.724C120.871 143.299 122.743 143.907 124.3 144.584C123.085 145.847 122.791 147.712 122.06 149.284C121.7 150.058 121.193 150.935 120.387 151.205C120.089 151.304 119.739 151.313 119.503 151.556C119.212 151.857 119.142 152.194 118.77 152.453C117.284 153.486 114.963 153.406 113.646 152.058C112.455 150.839 112.765 148.91 113.76 147.674C112.176 147.014 109.292 146.165 109.921 143.698C106.49 143.47 98.16 137.906 102.765 133.84C100.238 132.412 97.916 128.921 99.5392 125.844C100.789 123.475 103.696 122.416 106.081 122.29Z" fill="#3F2B1A"/>
<path fill-rule="evenodd" clip-rule="evenodd" d="M24.7036 148.396C20.1976 143.107 17.1478 136.625 17.6574 129.362C19.1258 108.434 48.2572 113.038 53.9239 123.6C59.5905 134.163 58.9172 160.955 51.5935 162.843C48.6729 163.595 42.451 161.751 36.1186 157.934L40.0933 186.054H16.624L24.7036 148.396Z" fill="#E4CCB6"/>
<path fill-rule="evenodd" clip-rule="evenodd" d="M29.3351 114.46C41.1251 110.375 56.4249 115.148 54.3775 124.722C53.0627 130.869 45.943 133.94 38.9385 137.226C37.9075 135.436 35.9412 134.226 33.6849 134.226C30.3599 134.226 27.6645 136.853 27.6645 140.093C27.6645 141.261 28.0142 142.348 28.6171 143.262C26.2608 145.312 24.5982 147.779 24.1961 150.979C20.3982 150.979 14.2598 139.828 16.2863 129.248C15.755 129.307 15.2151 129.337 14.6683 129.337C6.56722 129.337 0 122.769 0 114.668C0 106.567 6.56722 100 14.6683 100C22.6997 100 29.2235 106.455 29.3351 114.46Z" fill="black"/>
<path fill-rule="evenodd" clip-rule="evenodd" d="M238.936 146.374C234.518 141.188 231.527 134.831 232.027 127.709C233.467 107.188 262.033 111.703 267.589 122.06C273.146 132.417 272.486 158.689 265.304 160.54C262.44 161.278 256.339 159.47 250.13 155.727L254.027 183.301H231.014L238.936 146.374Z" fill="#F1CEAE"/>
<path fill-rule="evenodd" clip-rule="evenodd" d="M277.785 107.702C277.308 106.027 276.027 104.592 274.299 104.167C273.88 104.064 273.447 104.022 273.016 104.039C272.862 104.046 272.818 104.09 272.746 103.982C272.693 103.902 272.691 103.706 272.669 103.612C272.601 103.319 272.515 103.03 272.409 102.748C272.047 101.787 271.44 100.936 270.708 100.219C269.338 98.8788 267.487 97.9536 265.565 97.7862C264.512 97.6946 263.468 97.8656 262.473 98.2079C261.958 98.3851 261.458 98.6058 260.972 98.8497C260.826 98.9232 260.35 99.2828 260.203 99.2595C260.041 99.2338 259.715 98.8304 259.583 98.7291C257.951 97.4774 255.937 96.9853 253.905 97.0003C251.611 97.0173 249.402 97.1319 247.489 98.5301C247.084 98.8262 246.699 99.1503 246.331 99.4915C246.138 99.6712 245.951 99.8576 245.772 100.052C245.664 100.169 245.559 100.289 245.458 100.412C245.287 100.62 245.314 100.689 245.074 100.543C244.154 99.984 243.087 99.7224 242.012 99.8545C241.374 99.9329 240.753 100.124 240.164 100.377C239.963 100.462 239.499 100.805 239.285 100.808C239.073 100.811 238.615 100.494 238.396 100.413C237.215 99.9776 235.943 99.8701 234.702 100.072C233.422 100.279 232.164 100.79 231.08 101.496C230.558 101.835 230.103 102.211 229.737 102.716C229.58 102.934 229.437 103.165 229.258 103.367C229.153 103.485 228.946 103.607 228.89 103.756C228.923 103.667 227.49 103.114 227.355 103.079C226.634 102.89 225.9 102.929 225.194 103.161C223.867 103.598 222.726 104.577 221.788 105.581C221.306 106.097 220.885 106.667 220.527 107.274C220.355 107.565 220.199 107.864 220.055 108.17C219.985 108.318 219.939 108.503 219.848 108.637C219.73 108.808 219.65 108.812 219.437 108.887C218.35 109.267 217.36 109.911 216.606 110.781C215.844 111.662 215.349 112.746 215.142 113.888C215.129 113.955 215.122 114.234 215.083 114.27C215.029 114.32 214.81 114.298 214.728 114.308C214.442 114.341 214.158 114.391 213.877 114.458C213.361 114.58 212.858 114.76 212.382 114.995C210.527 115.913 209.201 117.633 208.552 119.569C207.871 121.6 207.883 123.928 208.697 125.921C208.828 126.243 208.985 126.556 209.169 126.851C209.282 127.033 209.318 127.033 209.245 127.224C209.163 127.435 209.014 127.641 208.917 127.848C208.6 128.524 208.379 129.24 208.24 129.972C208.01 131.172 207.897 132.434 208.123 133.643C208.228 134.205 208.411 134.754 208.69 135.254C208.832 135.509 208.999 135.751 209.187 135.975C209.284 136.091 209.388 136.202 209.496 136.308C209.558 136.369 209.64 136.422 209.692 136.49C209.821 136.655 209.848 136.519 209.782 136.762C209.689 137.101 209.479 137.436 209.35 137.767C209.217 138.107 209.097 138.452 208.987 138.801C208.765 139.506 208.577 140.225 208.46 140.956C208.234 142.359 208.274 143.854 208.937 145.142C209.221 145.692 209.628 146.176 210.122 146.552C210.364 146.735 210.625 146.894 210.9 147.024C211.041 147.091 211.221 147.12 211.286 147.256C211.355 147.403 211.252 147.694 211.229 147.858C211.024 149.285 210.922 150.784 211.346 152.182C211.737 153.47 212.597 154.608 213.714 155.361C215.881 156.821 218.802 156.739 221.078 155.57C221.672 155.265 222.227 154.886 222.722 154.44C223.984 156.138 226.579 156.084 228.422 155.6C230.718 154.998 232.561 153.401 233.623 151.303C235.074 153.07 238.121 152.497 239.128 150.579C239.374 150.11 239.52 149.593 239.592 149.07C239.63 148.795 239.606 148.517 239.634 148.244C239.671 147.896 239.903 147.558 240.037 147.222C240.297 146.567 240.458 145.89 240.465 145.184C240.469 144.815 240.422 144.455 240.387 144.09C240.355 143.76 240.447 143.453 240.499 143.128C239.91 143.225 239.192 143.066 238.637 142.896C238.093 142.728 237.583 142.287 237.198 141.884C236.306 140.948 235.761 139.721 235.388 138.499C234.57 135.819 234.905 132.603 237.601 131.132C238.857 130.447 242.62 130.449 244.116 130.788C245.688 131.144 247.471 134.614 247.559 134.941C247.613 135.142 247.586 135.392 247.772 135.527C248.179 135.823 248.851 135.309 249.152 135.056C249.671 134.619 250.041 134.037 250.361 133.447C251.06 132.163 251.623 130.785 252.02 129.379C252.327 128.294 252.523 127.176 252.924 126.12C253.322 125.068 253.951 124.129 254.928 123.533C255.992 122.885 257.21 122.544 258.377 122.137C259.534 121.733 260.671 121.24 261.568 120.384C261.765 120.195 261.957 119.995 262.116 119.774C262.241 119.599 262.365 119.264 262.556 119.153C262.852 118.98 263.286 119.429 263.542 119.592C264.808 120.396 265.865 121.518 266.717 122.743C267.564 123.961 268.259 125.134 268.824 126.494C269.243 127.504 269.505 128.796 270.242 129.623C270.571 129.992 273.016 130.216 273.809 129.893C274.601 129.571 275.489 128.734 275.754 128.209C276.027 127.672 276.092 127.082 275.975 126.494C275.907 126.149 275.767 125.826 275.691 125.486C275.627 125.2 275.568 124.931 275.429 124.669C275.166 124.174 274.716 123.818 274.174 123.669C274.738 123.149 275.206 122.526 275.53 121.83C275.866 121.107 276.151 120.228 276.232 119.435C276.297 118.79 276.196 118.123 275.843 117.569C275.473 116.988 274.817 116.609 274.25 116.246C275.117 115.568 275.858 114.744 276.468 113.831C277.654 112.056 278.387 109.818 277.785 107.702Z" fill="#938141"/>
</svg>
